<svg width="17" height="17" viewBox="0 0 17 17" fill="none" xmlns="http://www.w3.org/2000/svg">
<path d="M8.02756 0.178028C8.23739 0.0620229 8.47322 0.00117111 8.71299 0.00117111C8.95275 0.00117111 9.18859 0.0620229 9.39842 0.178028L15.7394 3.68192C15.9611 3.80432 16.146 3.98392 16.2747 4.20201C16.4034 4.42011 16.4713 4.66872 16.4714 4.92197V11.8783C16.4713 12.1315 16.4033 12.38 16.2746 12.598C16.1459 12.816 15.9611 12.9955 15.7394 13.1179L9.39842 16.6227C9.18865 16.7386 8.95289 16.7994 8.71322 16.7994C8.47355 16.7994 8.2378 16.7386 8.02803 16.6227L1.68702 13.1188C1.46525 12.9964 1.28036 12.8167 1.15163 12.5985C1.02289 12.3803 0.95502 12.1316 0.955078 11.8783V4.92244C0.955273 4.66935 1.02327 4.42094 1.15199 4.20302C1.28071 3.98511 1.46546 3.80566 1.68702 3.68333L8.02756 0.177555V0.178028ZM15.0542 4.92244L8.71275 1.41856L2.37175 4.92244V11.8783L8.71275 15.3822L15.0547 11.8783V4.92244H15.0542ZM3.68783 5.62322C3.77864 5.45879 3.93105 5.33717 4.11153 5.2851C4.292 5.23303 4.48577 5.25477 4.65022 5.34556L8.71322 7.59097L12.7772 5.34556C12.941 5.26086 13.1315 5.24343 13.308 5.29699C13.4846 5.35054 13.6332 5.47085 13.7224 5.63232C13.8116 5.7938 13.8343 5.9837 13.7856 6.16164C13.737 6.33958 13.6208 6.49152 13.4619 6.58514L9.42156 8.81875V13.2704C9.42156 13.4583 9.34693 13.6384 9.21409 13.7713C9.08125 13.9041 8.90108 13.9787 8.71322 13.9787C8.52536 13.9787 8.34519 13.9041 8.21236 13.7713C8.07952 13.6384 8.00489 13.4583 8.00489 13.2704V8.81828L3.96455 6.58561C3.88309 6.54057 3.81131 6.47991 3.75331 6.4071C3.6953 6.33429 3.65222 6.25077 3.62652 6.1613C3.60082 6.07183 3.59301 5.97818 3.60353 5.88569C3.61405 5.7932 3.64269 5.70369 3.68783 5.62228V5.62322Z" fill="black"/>
</svg>
