<svg width="39" height="39" viewBox="0 0 39 39" fill="none" xmlns="http://www.w3.org/2000/svg">
<path opacity="0.05" d="M19.5 39C8.74575 39 -1.40583e-06 30.2523 -9.06172e-07 19.5C-4.06509e-07 8.7477 8.74575 -1.24394e-06 19.5 -8.01767e-07C30.2523 -3.59673e-07 39 8.7477 39 19.5C39 30.2523 30.2523 39 19.5 39Z" fill="#647382"/>
<path d="M22.3131 27.7306C21.9407 27.7306 21.5663 27.5882 21.2816 27.3036L14.4819 20.5371C14.207 20.2621 14.0529 19.8897 14.0529 19.4997C14.0529 19.1116 14.207 18.7392 14.4819 18.4643L21.2816 11.6939C21.8529 11.1245 22.7772 11.1245 23.3486 11.6978C23.918 12.2711 23.916 13.1973 23.3447 13.7667L17.5863 19.4997L23.3447 25.2327C23.916 25.8021 23.918 26.7264 23.3486 27.2997C23.0639 27.5882 22.6875 27.7306 22.3131 27.7306Z" fill="#647382"/>
</svg>
