<svg width="391" height="150" viewBox="0 0 391 150" fill="none" xmlns="http://www.w3.org/2000/svg">
<g filter="url(#filter0_d_2213_4615)">
<rect x="28.83" y="18.0188" width="332.892" height="91.3822" rx="11.3994" fill="white"/>
<rect x="29.3999" y="18.5888" width="331.752" height="90.2423" rx="10.8294" stroke="#E8E8E8" stroke-opacity="0.4" stroke-width="1.13994"/>
</g>
<rect x="125.108" y="71.0531" width="118.307" height="8.15913" rx="1.63183" fill="#BBC3CD"/>
<rect x="125.108" y="85.7395" width="76.6958" height="8.15913" rx="1.63183" fill="#BBC3CD"/>
<path d="M129.177 55.1503C132.1 55.1503 134.29 53.3819 134.702 50.7521L134.712 50.6604H132.677L132.65 50.7429C132.155 52.4197 130.936 53.336 129.177 53.336C126.73 53.336 125.145 51.3751 125.145 48.3147V48.3055C125.145 45.245 126.721 43.3025 129.177 43.3025C130.955 43.3025 132.182 44.2463 132.622 45.7948L132.677 45.9781H134.712L134.693 45.8956C134.281 43.2841 132.091 41.4882 129.177 41.4882C125.429 41.4882 123.047 44.1088 123.047 48.3055V48.3147C123.047 52.5114 125.429 55.1503 129.177 55.1503ZM140.475 55.1228C143.233 55.1228 145.047 53.2169 145.047 50.1106V50.0923C145.047 47.0044 143.215 45.1076 140.466 45.1076C137.726 45.1076 135.903 47.0135 135.903 50.0923V50.1106C135.903 53.2078 137.708 55.1228 140.475 55.1228ZM140.484 53.4643C138.936 53.4643 137.928 52.2456 137.928 50.1106V50.0923C137.928 47.9848 138.945 46.7661 140.466 46.7661C142.014 46.7661 143.022 47.9848 143.022 50.0923V50.1106C143.022 52.2365 142.033 53.4643 140.484 53.4643ZM146.651 54.9304H148.63V41.7081H146.651V54.9304ZM150.738 54.9304H152.717V41.7081H150.738V54.9304ZM157.583 55.1045C158.856 55.1045 159.974 54.4448 160.533 53.4093H160.57V54.9304H162.558V48.2872C162.558 46.3538 161.065 45.1076 158.71 45.1076C156.336 45.1076 154.898 46.3813 154.76 48.0398L154.751 48.1406H156.62L156.639 48.0581C156.804 47.2884 157.509 46.7478 158.655 46.7478C159.882 46.7478 160.57 47.3892 160.57 48.4521V49.176L157.949 49.3318C155.667 49.4692 154.366 50.4955 154.366 52.1723V52.1907C154.366 53.9225 155.658 55.1045 157.583 55.1045ZM156.364 52.1448V52.1265C156.364 51.311 157.024 50.7887 158.215 50.7154L160.57 50.5688V51.3202C160.57 52.5755 159.516 53.5193 158.123 53.5193C157.06 53.5193 156.364 52.9878 156.364 52.1448ZM169.605 55.1228C172.051 55.1228 173.636 53.1803 173.636 50.1106V50.1015C173.636 47.0318 172.042 45.1076 169.623 45.1076C168.258 45.1076 167.158 45.7948 166.581 46.931H166.535V41.7081H164.556V54.9304H166.535V53.2994H166.581C167.149 54.4265 168.221 55.1228 169.605 55.1228ZM169.082 53.4185C167.579 53.4185 166.526 52.1174 166.526 50.1106V50.1015C166.526 48.1039 167.589 46.8028 169.082 46.8028C170.64 46.8028 171.611 48.0673 171.611 50.1015V50.1106C171.611 52.1632 170.64 53.4185 169.082 53.4185ZM179.308 55.1228C182.066 55.1228 183.881 53.2169 183.881 50.1106V50.0923C183.881 47.0044 182.048 45.1076 179.299 45.1076C176.559 45.1076 174.736 47.0135 174.736 50.0923V50.1106C174.736 53.2078 176.541 55.1228 179.308 55.1228ZM179.317 53.4643C177.769 53.4643 176.761 52.2456 176.761 50.1106V50.0923C176.761 47.9848 177.778 46.7661 179.299 46.7661C180.848 46.7661 181.856 47.9848 181.856 50.0923V50.1106C181.856 52.2365 180.866 53.4643 179.317 53.4643ZM185.411 54.9304H187.39V49.1852C187.39 47.7466 188.178 46.9127 189.452 46.9127C189.837 46.9127 190.185 46.9585 190.341 47.0227V45.1809C190.185 45.1534 189.937 45.1076 189.653 45.1076C188.554 45.1076 187.747 45.8132 187.436 46.9402H187.39V45.2909H185.411V54.9304ZM194.198 55.1045C195.472 55.1045 196.59 54.4448 197.149 53.4093H197.185V54.9304H199.174V48.2872C199.174 46.3538 197.68 45.1076 195.325 45.1076C192.952 45.1076 191.513 46.3813 191.376 48.0398L191.367 48.1406H193.236L193.254 48.0581C193.419 47.2884 194.125 46.7478 195.27 46.7478C196.498 46.7478 197.185 47.3892 197.185 48.4521V49.176L194.565 49.3318C192.283 49.4692 190.982 50.4955 190.982 52.1723V52.1907C190.982 53.9225 192.274 55.1045 194.198 55.1045ZM192.98 52.1448V52.1265C192.98 51.311 193.639 50.7887 194.83 50.7154L197.185 50.5688V51.3202C197.185 52.5755 196.132 53.5193 194.739 53.5193C193.676 53.5193 192.98 52.9878 192.98 52.1448ZM204.479 55.1228C204.882 55.1228 205.258 55.077 205.487 55.0404V53.5101C205.341 53.5285 205.166 53.5468 204.956 53.5468C204.122 53.5468 203.682 53.2536 203.682 52.2731V46.8669H205.487V45.2909H203.682V42.7802H201.657V45.2909H200.273V46.8669H201.657V52.3922C201.657 54.3165 202.573 55.1228 204.479 55.1228ZM211.003 55.1228C213.34 55.1228 214.824 53.7301 215.136 52.1998L215.154 52.099H213.276L213.248 52.1723C213.001 52.8962 212.222 53.501 211.049 53.501C209.473 53.501 208.474 52.4381 208.438 50.6146H215.264V49.9457C215.264 47.0502 213.606 45.1076 210.903 45.1076C208.199 45.1076 206.458 47.1235 206.458 50.1381V50.1473C206.458 53.1894 208.172 55.1228 211.003 55.1228ZM210.912 46.7295C212.204 46.7295 213.138 47.545 213.303 49.2127H208.465C208.639 47.6 209.629 46.7295 210.912 46.7295ZM222.512 54.9304H224.556L226.562 47.7099H226.608L228.633 54.9304H230.695L233.334 45.2909H231.373L229.614 52.8779H229.568L227.552 45.2909H225.646L223.639 52.8779H223.603L221.843 45.2909H219.864L222.512 54.9304ZM235.615 43.8064C236.266 43.8064 236.77 43.2933 236.77 42.6702C236.77 42.038 236.266 41.5248 235.615 41.5248C234.974 41.5248 234.461 42.038 234.461 42.6702C234.461 43.2933 234.974 43.8064 235.615 43.8064ZM234.626 54.9304H236.605V45.2909H234.626V54.9304ZM242.03 55.1228C242.433 55.1228 242.808 55.077 243.037 55.0404V53.5101C242.891 53.5285 242.717 53.5468 242.506 53.5468C241.672 53.5468 241.232 53.2536 241.232 52.2731V46.8669H243.037V45.2909H241.232V42.7802H239.207V45.2909H237.824V46.8669H239.207V52.3922C239.207 54.3165 240.124 55.1228 242.03 55.1228ZM244.751 54.9304H246.73V49.3501C246.73 47.8474 247.637 46.8028 249.003 46.8028C250.395 46.8028 251.202 47.7557 251.202 49.3501V54.9304H253.181V48.9744C253.181 46.647 251.825 45.1076 249.763 45.1076C248.325 45.1076 247.289 45.7582 246.776 46.8761H246.73V41.7081H244.751V54.9304ZM260.053 58.1467C261.941 58.1467 262.949 57.377 263.664 55.3794L267.255 45.2909H265.166L262.738 53.1345H262.674L260.246 45.2909H258.102L261.611 54.9396L261.446 55.3977C261.116 56.3324 260.603 56.5798 259.668 56.5798C259.403 56.5798 259.174 56.5431 259.018 56.5065V58.055C259.256 58.1008 259.668 58.1467 260.053 58.1467ZM272.185 55.1228C274.943 55.1228 276.758 53.2169 276.758 50.1106V50.0923C276.758 47.0044 274.925 45.1076 272.176 45.1076C269.436 45.1076 267.613 47.0135 267.613 50.0923V50.1106C267.613 53.2078 269.418 55.1228 272.185 55.1228ZM272.194 53.4643C270.646 53.4643 269.638 52.2456 269.638 50.1106V50.0923C269.638 47.9848 270.655 46.7661 272.176 46.7661C273.725 46.7661 274.733 47.9848 274.733 50.0923V50.1106C274.733 52.2365 273.743 53.4643 272.194 53.4643ZM281.568 55.1228C283.034 55.1228 284.015 54.4539 284.519 53.4827H284.565V54.9304H286.553V45.2909H284.565V50.917C284.565 52.4197 283.667 53.4185 282.274 53.4185C280.899 53.4185 280.221 52.6122 280.221 51.1552V45.2909H278.242V51.5401C278.242 53.7575 279.452 55.1228 281.568 55.1228ZM288.514 54.9304H290.493V49.1852C290.493 47.7466 291.281 46.9127 292.555 46.9127C292.94 46.9127 293.288 46.9585 293.444 47.0227V45.1809C293.288 45.1534 293.04 45.1076 292.756 45.1076C291.657 45.1076 290.85 45.8132 290.539 46.9402H290.493V45.2909H288.514V54.9304ZM298.483 58.1375H300.462V53.3086H300.508C301.076 54.4265 302.185 55.1228 303.55 55.1228C305.969 55.1228 307.555 53.1894 307.555 50.1198V50.1106C307.555 47.0318 305.979 45.1076 303.523 45.1076C302.148 45.1076 301.086 45.804 300.508 46.9494H300.462V45.2909H298.483V58.1375ZM303.01 53.4185C301.516 53.4185 300.453 52.1174 300.453 50.1198V50.1106C300.453 48.1039 301.507 46.8028 303.01 46.8028C304.558 46.8028 305.539 48.0581 305.539 50.1106V50.1198C305.539 52.154 304.568 53.4185 303.01 53.4185ZM313.208 55.1228C315.545 55.1228 317.029 53.7301 317.341 52.1998L317.359 52.099H315.481L315.453 52.1723C315.206 52.8962 314.427 53.501 313.254 53.501C311.678 53.501 310.679 52.4381 310.643 50.6146H317.469V49.9457C317.469 47.0502 315.811 45.1076 313.108 45.1076C310.404 45.1076 308.663 47.1235 308.663 50.1381V50.1473C308.663 53.1894 310.377 55.1228 313.208 55.1228ZM313.117 46.7295C314.409 46.7295 315.343 47.545 315.508 49.2127H310.67C310.844 47.6 311.834 46.7295 313.117 46.7295ZM323.123 55.1228C325.459 55.1228 326.944 53.7301 327.255 52.1998L327.274 52.099H325.395L325.368 52.1723C325.12 52.8962 324.341 53.501 323.169 53.501C321.593 53.501 320.594 52.4381 320.557 50.6146H327.384V49.9457C327.384 47.0502 325.725 45.1076 323.022 45.1076C320.319 45.1076 318.578 47.1235 318.578 50.1381V50.1473C318.578 53.1894 320.291 55.1228 323.123 55.1228ZM323.031 46.7295C324.323 46.7295 325.258 47.545 325.423 49.2127H320.585C320.759 47.6 321.748 46.7295 323.031 46.7295ZM328.923 54.9304H330.902V49.1852C330.902 47.7466 331.69 46.9127 332.964 46.9127C333.349 46.9127 333.697 46.9585 333.853 47.0227V45.1809C333.697 45.1534 333.45 45.1076 333.166 45.1076C332.066 45.1076 331.26 45.8132 330.948 46.9402H330.902V45.2909H328.923V54.9304Z" fill="#272D33"/>
<rect opacity="0.1" x="47.069" y="33.7905" width="59.2766" height="59.2766" rx="9.11948" fill="#5C4FFF"/>
<path opacity="0.4" d="M83.0771 48.2297H70.3387C65.7182 48.2297 63.028 50.9351 63.028 55.5709V71.2716C63.028 75.9833 65.7182 78.628 70.3387 78.628H83.0771C87.7722 78.628 90.3864 75.9833 90.3864 71.2716V55.5709C90.3864 50.9351 87.7722 48.2297 83.0771 48.2297" fill="#5C4FFF"/>
<path fill-rule="evenodd" clip-rule="evenodd" d="M70.7484 55.2973V55.3125C70.0933 55.3125 69.5628 55.8445 69.5628 56.498C69.5628 57.1516 70.0933 57.6836 70.7484 57.6836H75.2914C75.9465 57.6836 76.4785 57.1516 76.4785 56.4813C76.4785 55.8293 75.9465 55.2973 75.2914 55.2973H70.7484ZM82.6652 64.5536H70.7491C70.094 64.5536 69.5635 64.0216 69.5635 63.368C69.5635 62.7145 70.094 62.181 70.7491 62.181H82.6652C83.3188 62.181 83.8507 62.7145 83.8507 63.368C83.8507 64.0216 83.3188 64.5536 82.6652 64.5536ZM82.6652 71.4996H70.7491C70.2931 71.5604 69.8523 71.3324 69.6091 70.9524C69.366 70.5572 69.366 70.0557 69.6091 69.6757C69.8523 69.2805 70.2931 69.0677 70.7491 69.1133H82.6652C83.2716 69.1741 83.7291 69.6909 83.7291 70.314C83.7291 70.9205 83.2716 71.4388 82.6652 71.4996Z" fill="#5C4FFF"/>
<defs>
<filter id="filter0_d_2213_4615" x="0.331572" y="0.919768" width="389.889" height="148.379" filterUnits="userSpaceOnUse" color-interpolation-filters="sRGB">
<feFlood flood-opacity="0" result="BackgroundImageFix"/>
<feColorMatrix in="SourceAlpha" type="matrix" values="0 0 0 0 0 0 0 0 0 0 0 0 0 0 0 0 0 0 127 0" result="hardAlpha"/>
<feOffset dy="11.3994"/>
<feGaussianBlur stdDeviation="14.2492"/>
<feColorMatrix type="matrix" values="0 0 0 0 0 0 0 0 0 0 0 0 0 0 0 0 0 0 0.07 0"/>
<feBlend mode="normal" in2="BackgroundImageFix" result="effect1_dropShadow_2213_4615"/>
<feBlend mode="normal" in="SourceGraphic" in2="effect1_dropShadow_2213_4615" result="shape"/>
</filter>
</defs>
</svg>
