<svg width="581" height="397" viewBox="0 0 581 397" fill="none" xmlns="http://www.w3.org/2000/svg">
<g filter="url(#filter0_d_3107_5233)">
<rect x="29" y="18" width="328.813" height="91.3822" rx="11.3994" fill="white"/>
<rect x="29.57" y="18.57" width="327.673" height="90.2423" rx="10.8294" stroke="#E8E8E8" stroke-opacity="0.4" stroke-width="1.13994"/>
</g>
<rect x="125.278" y="71.0343" width="118.307" height="8.15913" rx="1.63183" fill="#BBC3CD"/>
<rect x="125.278" y="85.7208" width="76.6958" height="8.15913" rx="1.63183" fill="#BBC3CD"/>
<path d="M126.442 55.9501H128.412L131.262 45.9806H131.308L134.148 55.9501H136.119L139.692 42.7277H137.557L135.092 53.0912H135.046L132.252 42.7277H130.309L127.514 53.0912H127.478L125.013 42.7277H122.878L126.442 55.9501ZM144.182 56.1425C146.94 56.1425 148.754 54.2366 148.754 51.1303V51.112C148.754 48.024 146.922 46.1272 144.173 46.1272C141.433 46.1272 139.61 48.0332 139.61 51.112V51.1303C139.61 54.2274 141.415 56.1425 144.182 56.1425ZM144.191 54.484C142.643 54.484 141.635 53.2653 141.635 51.1303V51.112C141.635 49.0045 142.652 47.7858 144.173 47.7858C145.721 47.7858 146.729 49.0045 146.729 51.112V51.1303C146.729 53.2561 145.74 54.484 144.191 54.484ZM150.285 55.9501H152.264V50.2048C152.264 48.7662 153.052 47.9324 154.326 47.9324C154.71 47.9324 155.059 47.9782 155.214 48.0423V46.2006C155.059 46.1731 154.811 46.1272 154.527 46.1272C153.428 46.1272 152.621 46.8328 152.31 47.9599H152.264V46.3105H150.285V55.9501ZM156.552 55.9501H158.531V52.4773L159.356 51.6618L162.627 55.9501H164.927L160.813 50.4706L164.772 46.3105H162.444L158.577 50.4247H158.531V42.7277H156.552V55.9501ZM173.87 56.1425C176.629 56.1425 178.443 54.2366 178.443 51.1303V51.112C178.443 48.024 176.61 46.1272 173.861 46.1272C171.122 46.1272 169.298 48.0332 169.298 51.112V51.1303C169.298 54.2274 171.103 56.1425 173.87 56.1425ZM173.88 54.484C172.331 54.484 171.323 53.2653 171.323 51.1303V51.112C171.323 49.0045 172.34 47.7858 173.861 47.7858C175.41 47.7858 176.418 49.0045 176.418 51.112V51.1303C176.418 53.2561 175.428 54.484 173.88 54.484ZM179.973 55.9501H181.952V50.3331C181.952 48.8304 182.85 47.8224 184.243 47.8224C185.618 47.8224 186.296 48.6379 186.296 50.0857V55.9501H188.284V49.71C188.284 47.4925 187.065 46.1272 184.949 46.1272C183.492 46.1272 182.502 46.787 181.998 47.7674H181.952V46.3105H179.973V55.9501ZM194.011 55.9501H195.99V50.2048C195.99 48.7662 196.778 47.9324 198.052 47.9324C198.437 47.9324 198.785 47.9782 198.941 48.0423V46.2006C198.785 46.1731 198.537 46.1272 198.253 46.1272C197.154 46.1272 196.347 46.8328 196.036 47.9599H195.99V46.3105H194.011V55.9501ZM203.861 56.1425C206.198 56.1425 207.682 54.7497 207.994 53.2195L208.012 53.1187H206.134L206.106 53.192C205.859 53.9159 205.08 54.5206 203.907 54.5206C202.331 54.5206 201.332 53.4577 201.296 51.6343H208.122V50.9654C208.122 48.0698 206.464 46.1272 203.76 46.1272C201.057 46.1272 199.316 48.1431 199.316 51.1578V51.1669C199.316 54.2091 201.03 56.1425 203.861 56.1425ZM203.77 47.7491C205.062 47.7491 205.996 48.5646 206.161 50.2323H201.323C201.497 48.6196 202.487 47.7491 203.77 47.7491ZM212.493 56.1242C213.767 56.1242 214.884 55.4644 215.443 54.429H215.48V55.9501H217.468V49.3068C217.468 47.3734 215.975 46.1272 213.62 46.1272C211.247 46.1272 209.808 47.4009 209.671 49.0594L209.661 49.1602H211.531L211.549 49.0778C211.714 48.3081 212.42 47.7674 213.565 47.7674C214.793 47.7674 215.48 48.4089 215.48 49.4718V50.1957L212.859 50.3514C210.578 50.4889 209.277 51.5151 209.277 53.192V53.2103C209.277 54.9421 210.569 56.1242 212.493 56.1242ZM211.274 53.1645V53.1462C211.274 52.3307 211.934 51.8084 213.125 51.7351L215.48 51.5884V52.3398C215.48 53.5952 214.426 54.539 213.033 54.539C211.971 54.539 211.274 54.0075 211.274 53.1645ZM219.466 55.9501H221.445V42.7277H219.466V55.9501ZM227.291 59.1572H229.27V54.3282H229.316C229.884 55.4461 230.993 56.1425 232.358 56.1425C234.777 56.1425 236.363 54.2091 236.363 51.1395V51.1303C236.363 48.0515 234.787 46.1272 232.331 46.1272C230.956 46.1272 229.894 46.8236 229.316 47.969H229.27V46.3105H227.291V59.1572ZM231.818 54.4382C230.324 54.4382 229.261 53.137 229.261 51.1395V51.1303C229.261 49.1236 230.315 47.8224 231.818 47.8224C233.366 47.8224 234.347 49.0778 234.347 51.1303V51.1395C234.347 53.1737 233.376 54.4382 231.818 54.4382ZM237.902 55.9501H239.881V50.2048C239.881 48.7662 240.669 47.9324 241.943 47.9324C242.328 47.9324 242.676 47.9782 242.832 48.0423V46.2006C242.676 46.1731 242.429 46.1272 242.145 46.1272C241.045 46.1272 240.239 46.8328 239.927 47.9599H239.881V46.3105H237.902V55.9501ZM247.78 56.1425C250.538 56.1425 252.352 54.2366 252.352 51.1303V51.112C252.352 48.024 250.52 46.1272 247.771 46.1272C245.031 46.1272 243.207 48.0332 243.207 51.112V51.1303C243.207 54.2274 245.013 56.1425 247.78 56.1425ZM247.789 54.484C246.24 54.484 245.233 53.2653 245.233 51.1303V51.112C245.233 49.0045 246.25 47.7858 247.771 47.7858C249.319 47.7858 250.327 49.0045 250.327 51.112V51.1303C250.327 53.2561 249.338 54.484 247.789 54.484ZM254.936 44.8261C255.587 44.8261 256.091 44.313 256.091 43.6899C256.091 43.0576 255.587 42.5445 254.936 42.5445C254.295 42.5445 253.782 43.0576 253.782 43.6899C253.782 44.313 254.295 44.8261 254.936 44.8261ZM252.774 59.1755C254.909 59.1755 255.926 58.2408 255.926 56.2799V46.3105H253.947V56.2616C253.947 57.2329 253.58 57.5444 252.6 57.5444C252.499 57.5444 252.407 57.5353 252.316 57.5353V59.1572C252.444 59.1663 252.618 59.1755 252.774 59.1755ZM262.083 56.1425C264.42 56.1425 265.904 54.7497 266.216 53.2195L266.234 53.1187H264.356L264.328 53.192C264.081 53.9159 263.302 54.5206 262.129 54.5206C260.553 54.5206 259.554 53.4577 259.518 51.6343H266.344V50.9654C266.344 48.0698 264.686 46.1272 261.983 46.1272C259.28 46.1272 257.539 48.1431 257.539 51.1578V51.1669C257.539 54.2091 259.252 56.1425 262.083 56.1425ZM261.992 47.7491C263.284 47.7491 264.218 48.5646 264.383 50.2323H259.545C259.719 48.6196 260.709 47.7491 261.992 47.7491ZM272.025 56.1425C274.344 56.1425 275.956 54.6581 276.167 52.7247L276.176 52.6605H274.27L274.261 52.7338C274.023 53.7784 273.244 54.484 272.025 54.484C270.495 54.484 269.478 53.247 269.478 51.1395V51.1303C269.478 49.0686 270.477 47.7858 272.016 47.7858C273.308 47.7858 274.041 48.583 274.252 49.5268L274.27 49.6001H276.158L276.149 49.5359C275.984 47.7216 274.481 46.1272 271.998 46.1272C269.249 46.1272 267.453 48.0607 267.453 51.112V51.1211C267.453 54.2091 269.212 56.1425 272.025 56.1425ZM280.959 56.1425C281.363 56.1425 281.738 56.0967 281.967 56.06V54.5298C281.821 54.5481 281.647 54.5664 281.436 54.5664C280.602 54.5664 280.162 54.2732 280.162 53.2928V47.8866H281.967V46.3105H280.162V43.7998H278.137V46.3105H276.754V47.8866H278.137V53.4119C278.137 55.3361 279.053 56.1425 280.959 56.1425ZM287.218 56.1425C289.49 56.1425 291.14 54.933 291.14 53.1737V53.1645C291.14 51.7809 290.388 51.002 288.418 50.5439L286.851 50.1865C285.816 49.9391 285.422 49.5359 285.422 48.9403V48.9312C285.422 48.1615 286.091 47.6575 287.154 47.6575C288.272 47.6575 288.931 48.2439 289.05 49.0869L289.06 49.1511H290.92L290.911 49.0411C290.81 47.4009 289.435 46.1272 287.154 46.1272C284.936 46.1272 283.433 47.3093 283.433 49.0319V49.0411C283.433 50.4431 284.341 51.3227 286.173 51.7442L287.749 52.1016C288.785 52.349 289.133 52.7063 289.133 53.3294V53.3386C289.133 54.1175 288.418 54.6123 287.227 54.6123C286.008 54.6123 285.349 54.09 285.165 53.2011L285.147 53.1095H283.186L283.195 53.192C283.397 54.9513 284.808 56.1425 287.218 56.1425Z" fill="#272D33"/>
<rect opacity="0.1" x="47.239" y="33.9591" width="59.2766" height="59.2766" rx="9.11948" fill="#EC0B43"/>
<path opacity="0.4" d="M83.2472 48.3983H70.5088C65.8882 48.3983 63.198 51.1037 63.198 55.7394V71.4401C63.198 76.1519 65.8882 78.7965 70.5088 78.7965H83.2472C87.9422 78.7965 90.5564 76.1519 90.5564 71.4401V55.7394C90.5564 51.1037 87.9422 48.3983 83.2472 48.3983Z" fill="#EC0B43"/>
<path fill-rule="evenodd" clip-rule="evenodd" d="M70.9184 55.4659V55.481C70.2633 55.481 69.7329 56.013 69.7329 56.6666C69.7329 57.3201 70.2633 57.8521 70.9184 57.8521H75.4615C76.1165 57.8521 76.6485 57.3201 76.6485 56.6499C76.6485 55.9978 76.1165 55.4659 75.4615 55.4659H70.9184ZM82.8353 64.7221H70.9191C70.264 64.7221 69.7336 64.1901 69.7336 63.5366C69.7336 62.883 70.264 62.3495 70.9191 62.3495H82.8353C83.4888 62.3495 84.0208 62.883 84.0208 63.5366C84.0208 64.1901 83.4888 64.7221 82.8353 64.7221ZM82.8353 71.6681H70.9191C70.4632 71.7289 70.0224 71.5009 69.7792 71.121C69.536 70.7258 69.536 70.2242 69.7792 69.8442C70.0224 69.4491 70.4632 69.2363 70.9191 69.2819H82.8353C83.4417 69.3427 83.8992 69.8594 83.8992 70.4826C83.8992 71.089 83.4417 71.6073 82.8353 71.6681Z" fill="#EC0B43"/>
<g filter="url(#filter1_d_3107_5233)">
<rect x="122.83" y="142.019" width="332.892" height="91.3822" rx="11.3994" fill="white"/>
<rect x="123.4" y="142.589" width="331.752" height="90.2423" rx="10.8294" stroke="#E8E8E8" stroke-opacity="0.4" stroke-width="1.13994"/>
</g>
<rect x="219.108" y="195.053" width="118.307" height="8.15913" rx="1.63183" fill="#BBC3CD"/>
<rect x="219.108" y="209.74" width="76.6958" height="8.15913" rx="1.63183" fill="#BBC3CD"/>
<path d="M223.177 179.15C226.1 179.15 228.29 177.382 228.702 174.752L228.712 174.66H226.677L226.65 174.743C226.155 176.42 224.936 177.336 223.177 177.336C220.73 177.336 219.145 175.375 219.145 172.315V172.306C219.145 169.245 220.721 167.302 223.177 167.302C224.955 167.302 226.182 168.246 226.622 169.795L226.677 169.978H228.712L228.693 169.896C228.281 167.284 226.091 165.488 223.177 165.488C219.429 165.488 217.047 168.109 217.047 172.306V172.315C217.047 176.511 219.429 179.15 223.177 179.15ZM234.475 179.123C237.233 179.123 239.047 177.217 239.047 174.111V174.092C239.047 171.004 237.215 169.108 234.466 169.108C231.726 169.108 229.903 171.014 229.903 174.092V174.111C229.903 177.208 231.708 179.123 234.475 179.123ZM234.484 177.464C232.936 177.464 231.928 176.246 231.928 174.111V174.092C231.928 171.985 232.945 170.766 234.466 170.766C236.014 170.766 237.022 171.985 237.022 174.092V174.111C237.022 176.236 236.033 177.464 234.484 177.464ZM240.651 178.93H242.63V165.708H240.651V178.93ZM244.738 178.93H246.717V165.708H244.738V178.93ZM251.583 179.105C252.856 179.105 253.974 178.445 254.533 177.409H254.57V178.93H256.558V172.287C256.558 170.354 255.065 169.108 252.71 169.108C250.336 169.108 248.898 170.381 248.76 172.04L248.751 172.141H250.62L250.639 172.058C250.804 171.288 251.509 170.748 252.655 170.748C253.882 170.748 254.57 171.389 254.57 172.452V173.176L251.949 173.332C249.667 173.469 248.366 174.495 248.366 176.172V176.191C248.366 177.922 249.658 179.105 251.583 179.105ZM250.364 176.145V176.127C250.364 175.311 251.024 174.789 252.215 174.715L254.57 174.569V175.32C254.57 176.576 253.516 177.519 252.123 177.519C251.06 177.519 250.364 176.988 250.364 176.145ZM263.605 179.123C266.051 179.123 267.636 177.18 267.636 174.111V174.101C267.636 171.032 266.042 169.108 263.623 169.108C262.258 169.108 261.158 169.795 260.581 170.931H260.535V165.708H258.556V178.93H260.535V177.299H260.581C261.149 178.426 262.221 179.123 263.605 179.123ZM263.082 177.419C261.579 177.419 260.526 176.117 260.526 174.111V174.101C260.526 172.104 261.589 170.803 263.082 170.803C264.64 170.803 265.611 172.067 265.611 174.101V174.111C265.611 176.163 264.64 177.419 263.082 177.419ZM273.308 179.123C276.066 179.123 277.881 177.217 277.881 174.111V174.092C277.881 171.004 276.048 169.108 273.299 169.108C270.559 169.108 268.736 171.014 268.736 174.092V174.111C268.736 177.208 270.541 179.123 273.308 179.123ZM273.317 177.464C271.769 177.464 270.761 176.246 270.761 174.111V174.092C270.761 171.985 271.778 170.766 273.299 170.766C274.848 170.766 275.856 171.985 275.856 174.092V174.111C275.856 176.236 274.866 177.464 273.317 177.464ZM279.411 178.93H281.39V173.185C281.39 171.747 282.178 170.913 283.452 170.913C283.837 170.913 284.185 170.959 284.341 171.023V169.181C284.185 169.153 283.937 169.108 283.653 169.108C282.554 169.108 281.747 169.813 281.436 170.94H281.39V169.291H279.411V178.93ZM288.198 179.105C289.472 179.105 290.59 178.445 291.149 177.409H291.185V178.93H293.174V172.287C293.174 170.354 291.68 169.108 289.325 169.108C286.952 169.108 285.513 170.381 285.376 172.04L285.367 172.141H287.236L287.254 172.058C287.419 171.288 288.125 170.748 289.27 170.748C290.498 170.748 291.185 171.389 291.185 172.452V173.176L288.565 173.332C286.283 173.469 284.982 174.495 284.982 176.172V176.191C284.982 177.922 286.274 179.105 288.198 179.105ZM286.98 176.145V176.127C286.98 175.311 287.639 174.789 288.83 174.715L291.185 174.569V175.32C291.185 176.576 290.132 177.519 288.739 177.519C287.676 177.519 286.98 176.988 286.98 176.145ZM298.479 179.123C298.882 179.123 299.258 179.077 299.487 179.04V177.51C299.341 177.528 299.166 177.547 298.956 177.547C298.122 177.547 297.682 177.254 297.682 176.273V170.867H299.487V169.291H297.682V166.78H295.657V169.291H294.273V170.867H295.657V176.392C295.657 178.316 296.573 179.123 298.479 179.123ZM305.003 179.123C307.34 179.123 308.824 177.73 309.136 176.2L309.154 176.099H307.276L307.248 176.172C307.001 176.896 306.222 177.501 305.049 177.501C303.473 177.501 302.474 176.438 302.438 174.615H309.264V173.946C309.264 171.05 307.606 169.108 304.903 169.108C302.199 169.108 300.458 171.123 300.458 174.138V174.147C300.458 177.189 302.172 179.123 305.003 179.123ZM304.912 170.729C306.204 170.729 307.138 171.545 307.303 173.213H302.465C302.639 171.6 303.629 170.729 304.912 170.729ZM316.512 178.93H318.556L320.562 171.71H320.608L322.633 178.93H324.695L327.334 169.291H325.373L323.614 176.878H323.568L321.552 169.291H319.646L317.639 176.878H317.603L315.843 169.291H313.864L316.512 178.93ZM329.615 167.806C330.266 167.806 330.77 167.293 330.77 166.67C330.77 166.038 330.266 165.525 329.615 165.525C328.974 165.525 328.461 166.038 328.461 166.67C328.461 167.293 328.974 167.806 329.615 167.806ZM328.626 178.93H330.605V169.291H328.626V178.93ZM336.03 179.123C336.433 179.123 336.808 179.077 337.037 179.04V177.51C336.891 177.528 336.717 177.547 336.506 177.547C335.672 177.547 335.232 177.254 335.232 176.273V170.867H337.037V169.291H335.232V166.78H333.207V169.291H331.824V170.867H333.207V176.392C333.207 178.316 334.124 179.123 336.03 179.123ZM338.751 178.93H340.73V173.35C340.73 171.847 341.637 170.803 343.003 170.803C344.395 170.803 345.202 171.756 345.202 173.35V178.93H347.181V172.974C347.181 170.647 345.825 169.108 343.763 169.108C342.325 169.108 341.289 169.758 340.776 170.876H340.73V165.708H338.751V178.93ZM354.053 182.147C355.941 182.147 356.949 181.377 357.664 179.379L361.255 169.291H359.166L356.738 177.134H356.674L354.246 169.291H352.102L355.611 178.94L355.446 179.398C355.116 180.332 354.603 180.58 353.668 180.58C353.403 180.58 353.174 180.543 353.018 180.506V182.055C353.256 182.101 353.668 182.147 354.053 182.147ZM366.185 179.123C368.943 179.123 370.758 177.217 370.758 174.111V174.092C370.758 171.004 368.925 169.108 366.176 169.108C363.436 169.108 361.613 171.014 361.613 174.092V174.111C361.613 177.208 363.418 179.123 366.185 179.123ZM366.194 177.464C364.646 177.464 363.638 176.246 363.638 174.111V174.092C363.638 171.985 364.655 170.766 366.176 170.766C367.725 170.766 368.733 171.985 368.733 174.092V174.111C368.733 176.236 367.743 177.464 366.194 177.464ZM375.568 179.123C377.034 179.123 378.015 178.454 378.519 177.483H378.565V178.93H380.553V169.291H378.565V174.917C378.565 176.42 377.667 177.419 376.274 177.419C374.899 177.419 374.221 176.612 374.221 175.155V169.291H372.242V175.54C372.242 177.758 373.452 179.123 375.568 179.123ZM382.514 178.93H384.493V173.185C384.493 171.747 385.281 170.913 386.555 170.913C386.94 170.913 387.288 170.959 387.444 171.023V169.181C387.288 169.153 387.04 169.108 386.756 169.108C385.657 169.108 384.85 169.813 384.539 170.94H384.493V169.291H382.514V178.93ZM392.483 182.137H394.462V177.309H394.508C395.076 178.426 396.185 179.123 397.55 179.123C399.969 179.123 401.555 177.189 401.555 174.12V174.111C401.555 171.032 399.979 169.108 397.523 169.108C396.148 169.108 395.086 169.804 394.508 170.949H394.462V169.291H392.483V182.137ZM397.01 177.419C395.516 177.419 394.453 176.117 394.453 174.12V174.111C394.453 172.104 395.507 170.803 397.01 170.803C398.558 170.803 399.539 172.058 399.539 174.111V174.12C399.539 176.154 398.568 177.419 397.01 177.419ZM407.208 179.123C409.545 179.123 411.029 177.73 411.341 176.2L411.359 176.099H409.481L409.453 176.172C409.206 176.896 408.427 177.501 407.254 177.501C405.678 177.501 404.679 176.438 404.643 174.615H411.469V173.946C411.469 171.05 409.811 169.108 407.108 169.108C404.404 169.108 402.663 171.123 402.663 174.138V174.147C402.663 177.189 404.377 179.123 407.208 179.123ZM407.117 170.729C408.409 170.729 409.343 171.545 409.508 173.213H404.67C404.844 171.6 405.834 170.729 407.117 170.729ZM417.123 179.123C419.459 179.123 420.944 177.73 421.255 176.2L421.274 176.099H419.395L419.368 176.172C419.12 176.896 418.341 177.501 417.169 177.501C415.593 177.501 414.594 176.438 414.557 174.615H421.384V173.946C421.384 171.05 419.725 169.108 417.022 169.108C414.319 169.108 412.578 171.123 412.578 174.138V174.147C412.578 177.189 414.291 179.123 417.123 179.123ZM417.031 170.729C418.323 170.729 419.258 171.545 419.423 173.213H414.585C414.759 171.6 415.748 170.729 417.031 170.729ZM422.923 178.93H424.902V173.185C424.902 171.747 425.69 170.913 426.964 170.913C427.349 170.913 427.697 170.959 427.853 171.023V169.181C427.697 169.153 427.45 169.108 427.166 169.108C426.066 169.108 425.26 169.813 424.948 170.94H424.902V169.291H422.923V178.93Z" fill="#272D33"/>
<rect opacity="0.1" x="141.069" y="157.79" width="59.2766" height="59.2766" rx="9.11948" fill="#5C4FFF"/>
<path opacity="0.4" d="M177.077 172.23H164.339C159.718 172.23 157.028 174.935 157.028 179.571V195.272C157.028 199.983 159.718 202.628 164.339 202.628H177.077C181.772 202.628 184.386 199.983 184.386 195.272V179.571C184.386 174.935 181.772 172.23 177.077 172.23Z" fill="#5C4FFF"/>
<path fill-rule="evenodd" clip-rule="evenodd" d="M164.748 179.297V179.313C164.093 179.313 163.563 179.844 163.563 180.498C163.563 181.152 164.093 181.684 164.748 181.684H169.291C169.946 181.684 170.478 181.152 170.478 180.481C170.478 179.829 169.946 179.297 169.291 179.297H164.748ZM176.665 188.554H164.749C164.094 188.554 163.564 188.022 163.564 187.368C163.564 186.714 164.094 186.181 164.749 186.181H176.665C177.319 186.181 177.851 186.714 177.851 187.368C177.851 188.022 177.319 188.554 176.665 188.554ZM176.665 195.5H164.749C164.293 195.56 163.852 195.332 163.609 194.952C163.366 194.557 163.366 194.056 163.609 193.676C163.852 193.281 164.293 193.068 164.749 193.113H176.665C177.272 193.174 177.729 193.691 177.729 194.314C177.729 194.92 177.272 195.439 176.665 195.5Z" fill="#5C4FFF"/>
<g filter="url(#filter2_d_3107_5233)">
<rect x="216.66" y="266.037" width="335.34" height="90.5663" rx="11.3994" fill="white"/>
<rect x="217.23" y="266.607" width="334.2" height="89.4264" rx="10.8294" stroke="#E8E8E8" stroke-opacity="0.4" stroke-width="1.13994"/>
</g>
<path d="M310.373 302.762H312.526L313.745 299.188H318.84L320.049 302.762H322.202L317.401 289.539H315.184L310.373 302.762ZM316.274 291.729H316.311L318.281 297.539H314.295L316.274 291.729ZM323.43 305.969H325.41V301.14H325.455C326.023 302.258 327.132 302.954 328.497 302.954C330.917 302.954 332.502 301.021 332.502 297.951V297.942C332.502 294.863 330.926 292.939 328.47 292.939C327.096 292.939 326.033 293.635 325.455 294.781H325.41V293.122H323.43V305.969ZM327.957 301.25C326.463 301.25 325.4 299.949 325.4 297.951V297.942C325.4 295.935 326.454 294.634 327.957 294.634C329.505 294.634 330.486 295.889 330.486 297.942V297.951C330.486 299.985 329.515 301.25 327.957 301.25ZM334.041 305.969H336.02V301.14H336.066C336.634 302.258 337.743 302.954 339.108 302.954C341.527 302.954 343.113 301.021 343.113 297.951V297.942C343.113 294.863 341.537 292.939 339.081 292.939C337.706 292.939 336.643 293.635 336.066 294.781H336.02V293.122H334.041V305.969ZM338.568 301.25C337.074 301.25 336.011 299.949 336.011 297.951V297.942C336.011 295.935 337.065 294.634 338.568 294.634C340.116 294.634 341.097 295.889 341.097 297.942V297.951C341.097 299.985 340.125 301.25 338.568 301.25ZM344.725 302.762H346.705V289.539H344.725V302.762ZM349.875 305.978C351.763 305.978 352.77 305.208 353.485 303.211L357.077 293.122H354.988L352.56 300.966H352.496L350.067 293.122H347.923L351.433 302.771L351.268 303.229C350.938 304.164 350.425 304.411 349.49 304.411C349.224 304.411 348.995 304.374 348.839 304.338V305.886C349.078 305.932 349.49 305.978 349.875 305.978ZM363.18 305.978C365.067 305.978 366.075 305.208 366.79 303.211L370.382 293.122H368.293L365.865 300.966H365.8L363.372 293.122H361.228L364.737 302.771L364.573 303.229C364.243 304.164 363.73 304.411 362.795 304.411C362.529 304.411 362.3 304.374 362.144 304.338V305.886C362.383 305.932 362.795 305.978 363.18 305.978ZM375.312 302.954C378.07 302.954 379.884 301.048 379.884 297.942V297.924C379.884 294.836 378.051 292.939 375.302 292.939C372.563 292.939 370.739 294.845 370.739 297.924V297.942C370.739 301.039 372.544 302.954 375.312 302.954ZM375.321 301.296C373.772 301.296 372.764 300.077 372.764 297.942V297.924C372.764 295.816 373.781 294.597 375.302 294.597C376.851 294.597 377.859 295.816 377.859 297.924V297.942C377.859 300.068 376.869 301.296 375.321 301.296ZM384.695 302.954C386.161 302.954 387.141 302.285 387.645 301.314H387.691V302.762H389.679V293.122H387.691V298.748C387.691 300.251 386.793 301.25 385.4 301.25C384.026 301.25 383.348 300.443 383.348 298.986V293.122H381.368V299.371C381.368 301.589 382.578 302.954 384.695 302.954ZM391.64 302.762H393.619V297.016C393.619 295.578 394.408 294.744 395.681 294.744C396.066 294.744 396.414 294.79 396.57 294.854V293.012C396.414 292.985 396.167 292.939 395.883 292.939C394.783 292.939 393.977 293.644 393.665 294.771H393.619V293.122H391.64V302.762ZM401.683 302.762H403.662V289.539H401.683V302.762ZM409.811 302.954C412.147 302.954 413.632 301.561 413.943 300.031L413.962 299.93H412.083L412.056 300.004C411.808 300.727 411.029 301.332 409.856 301.332C408.28 301.332 407.282 300.269 407.245 298.446H414.071V297.777C414.071 294.881 412.413 292.939 409.71 292.939C407.007 292.939 405.266 294.955 405.266 297.969V297.979C405.266 301.021 406.979 302.954 409.811 302.954ZM409.719 294.561C411.011 294.561 411.946 295.376 412.111 297.044H407.272C407.447 295.431 408.436 294.561 409.719 294.561ZM418.442 302.936C419.716 302.936 420.834 302.276 421.393 301.241H421.429V302.762H423.418V296.118C423.418 294.185 421.924 292.939 419.569 292.939C417.196 292.939 415.757 294.213 415.62 295.871L415.611 295.972H417.48L417.498 295.889C417.663 295.12 418.369 294.579 419.514 294.579C420.742 294.579 421.429 295.22 421.429 296.283V297.007L418.809 297.163C416.527 297.3 415.226 298.327 415.226 300.004V300.022C415.226 301.754 416.518 302.936 418.442 302.936ZM417.224 299.976V299.958C417.224 299.142 417.883 298.62 419.075 298.547L421.429 298.4V299.151C421.429 300.407 420.376 301.351 418.983 301.351C417.92 301.351 417.224 300.819 417.224 299.976ZM425.342 302.762H427.321V297.016C427.321 295.578 428.109 294.744 429.383 294.744C429.768 294.744 430.116 294.79 430.272 294.854V293.012C430.116 292.985 429.869 292.939 429.585 292.939C428.485 292.939 427.679 293.644 427.367 294.771H427.321V293.122H425.342V302.762ZM431.5 302.762H433.479V297.145C433.479 295.642 434.377 294.634 435.77 294.634C437.144 294.634 437.822 295.45 437.822 296.897V302.762H439.811V296.522C439.811 294.304 438.592 292.939 436.475 292.939C435.018 292.939 434.029 293.599 433.525 294.579H433.479V293.122H431.5V302.762ZM442.798 291.638C443.448 291.638 443.952 291.125 443.952 290.501C443.952 289.869 443.448 289.356 442.798 289.356C442.156 289.356 441.643 289.869 441.643 290.501C441.643 291.125 442.156 291.638 442.798 291.638ZM441.808 302.762H443.787V293.122H441.808V302.762ZM445.831 302.762H447.81V297.145C447.81 295.642 448.708 294.634 450.101 294.634C451.475 294.634 452.153 295.45 452.153 296.897V302.762H454.142V296.522C454.142 294.304 452.923 292.939 450.806 292.939C449.349 292.939 448.36 293.599 447.856 294.579H447.81V293.122H445.831V302.762ZM460.281 306.161C463.002 306.161 464.707 304.695 464.707 302.496V293.122H462.718V294.762H462.672C462.104 293.672 461.041 292.939 459.685 292.939C457.239 292.939 455.626 294.836 455.626 297.859V297.869C455.626 300.874 457.22 302.771 459.639 302.771C461.023 302.771 462.123 302.102 462.672 301.057H462.718V302.377C462.718 303.724 461.848 304.567 460.272 304.567C459.035 304.567 458.201 304.145 457.935 303.531L457.898 303.458H455.938L455.947 303.541C456.24 305.016 457.807 306.161 460.281 306.161ZM460.198 301.158C458.632 301.158 457.651 299.912 457.651 297.896V297.887C457.651 295.899 458.632 294.634 460.198 294.634C461.701 294.634 462.718 295.908 462.718 297.887V297.896C462.718 299.884 461.71 301.158 460.198 301.158ZM470.479 302.762H472.459V297.016C472.459 295.578 473.247 294.744 474.52 294.744C474.905 294.744 475.253 294.79 475.409 294.854V293.012C475.253 292.985 475.006 292.939 474.722 292.939C473.622 292.939 472.816 293.644 472.504 294.771H472.459V293.122H470.479V302.762ZM480.33 302.954C482.666 302.954 484.151 301.561 484.462 300.031L484.481 299.93H482.602L482.575 300.004C482.327 300.727 481.548 301.332 480.376 301.332C478.799 301.332 477.801 300.269 477.764 298.446H484.591V297.777C484.591 294.881 482.932 292.939 480.229 292.939C477.526 292.939 475.785 294.955 475.785 297.969V297.979C475.785 301.021 477.498 302.954 480.33 302.954ZM480.238 294.561C481.53 294.561 482.465 295.376 482.63 297.044H477.792C477.966 295.431 478.955 294.561 480.238 294.561ZM488.961 302.936C490.235 302.936 491.353 302.276 491.912 301.241H491.949V302.762H493.937V296.118C493.937 294.185 492.443 292.939 490.088 292.939C487.715 292.939 486.277 294.213 486.139 295.871L486.13 295.972H487.999L488.018 295.889C488.182 295.12 488.888 294.579 490.033 294.579C491.261 294.579 491.949 295.22 491.949 296.283V297.007L489.328 297.163C487.046 297.3 485.745 298.327 485.745 300.004V300.022C485.745 301.754 487.037 302.936 488.961 302.936ZM487.743 299.976V299.958C487.743 299.142 488.402 298.62 489.594 298.547L491.949 298.4V299.151C491.949 300.407 490.895 301.351 489.502 301.351C488.439 301.351 487.743 300.819 487.743 299.976ZM495.934 302.762H497.914V289.539H495.934V302.762ZM507.141 302.954C507.544 302.954 507.92 302.908 508.149 302.872V301.341C508.002 301.36 507.828 301.378 507.617 301.378C506.784 301.378 506.344 301.085 506.344 300.104V294.698H508.149V293.122H506.344V290.611H504.319V293.122H502.935V294.698H504.319V300.223C504.319 302.148 505.235 302.954 507.141 302.954ZM510.861 291.638C511.512 291.638 512.016 291.125 512.016 290.501C512.016 289.869 511.512 289.356 510.861 289.356C510.22 289.356 509.707 289.869 509.707 290.501C509.707 291.125 510.22 291.638 510.861 291.638ZM509.871 302.762H511.851V293.122H509.871V302.762ZM513.894 302.762H515.873V296.806C515.873 295.559 516.707 294.634 517.88 294.634C518.998 294.634 519.703 295.349 519.703 296.467V302.762H521.646V296.732C521.646 295.514 522.462 294.634 523.634 294.634C524.807 294.634 525.476 295.358 525.476 296.613V302.762H527.465V296.137C527.465 294.203 526.218 292.939 524.313 292.939C522.938 292.939 521.802 293.663 521.307 294.836H521.261C520.876 293.626 519.905 292.939 518.576 292.939C517.312 292.939 516.331 293.608 515.919 294.616H515.873V293.122H513.894V302.762ZM533.494 302.954C535.831 302.954 537.315 301.561 537.626 300.031L537.645 299.93H535.766L535.739 300.004C535.491 300.727 534.713 301.332 533.54 301.332C531.964 301.332 530.965 300.269 530.928 298.446H537.755V297.777C537.755 294.881 536.096 292.939 533.393 292.939C530.69 292.939 528.949 294.955 528.949 297.969V297.979C528.949 301.021 530.663 302.954 533.494 302.954ZM533.402 294.561C534.694 294.561 535.629 295.376 535.794 297.044H530.956C531.13 295.431 532.119 294.561 533.402 294.561Z" fill="#272D33"/>
<rect opacity="0.1" x="234.899" y="281.622" width="59.2766" height="59.2766" rx="9.11948" fill="#0BECB4"/>
<path opacity="0.4" d="M270.907 296.061H258.169C253.548 296.061 250.858 298.766 250.858 303.402V319.103C250.858 323.814 253.548 326.459 258.169 326.459H270.907C275.602 326.459 278.216 323.814 278.216 319.103V303.402C278.216 298.766 275.602 296.061 270.907 296.061Z" fill="#0BECB4"/>
<path fill-rule="evenodd" clip-rule="evenodd" d="M258.578 303.128V303.144C257.923 303.144 257.393 303.676 257.393 304.329C257.393 304.983 257.923 305.515 258.578 305.515H263.121C263.776 305.515 264.308 304.983 264.308 304.312C264.308 303.66 263.776 303.128 263.121 303.128H258.578ZM270.495 312.385H258.579C257.924 312.385 257.394 311.853 257.394 311.199C257.394 310.546 257.924 310.012 258.579 310.012H270.495C271.149 310.012 271.681 310.546 271.681 311.199C271.681 311.853 271.149 312.385 270.495 312.385ZM270.495 319.331H258.579C258.123 319.392 257.682 319.164 257.439 318.784C257.196 318.388 257.196 317.887 257.439 317.507C257.682 317.112 258.123 316.899 258.579 316.944H270.495C271.102 317.005 271.559 317.522 271.559 318.145C271.559 318.752 271.102 319.27 270.495 319.331Z" fill="#0BECB4"/>
<rect x="312.938" y="319.072" width="118.307" height="8.15913" rx="1.63183" fill="#BBC3CD"/>
<rect x="312.938" y="333.758" width="76.6958" height="8.15913" rx="1.63183" fill="#BBC3CD"/>
<defs>
<filter id="filter0_d_3107_5233" x="0.501616" y="0.90097" width="385.81" height="148.379" filterUnits="userSpaceOnUse" color-interpolation-filters="sRGB">
<feFlood flood-opacity="0" result="BackgroundImageFix"/>
<feColorMatrix in="SourceAlpha" type="matrix" values="0 0 0 0 0 0 0 0 0 0 0 0 0 0 0 0 0 0 127 0" result="hardAlpha"/>
<feOffset dy="11.3994"/>
<feGaussianBlur stdDeviation="14.2492"/>
<feColorMatrix type="matrix" values="0 0 0 0 0 0 0 0 0 0 0 0 0 0 0 0 0 0 0.07 0"/>
<feBlend mode="normal" in2="BackgroundImageFix" result="effect1_dropShadow_3107_5233"/>
<feBlend mode="normal" in="SourceGraphic" in2="effect1_dropShadow_3107_5233" result="shape"/>
</filter>
<filter id="filter1_d_3107_5233" x="94.3316" y="124.92" width="389.889" height="148.379" filterUnits="userSpaceOnUse" color-interpolation-filters="sRGB">
<feFlood flood-opacity="0" result="BackgroundImageFix"/>
<feColorMatrix in="SourceAlpha" type="matrix" values="0 0 0 0 0 0 0 0 0 0 0 0 0 0 0 0 0 0 127 0" result="hardAlpha"/>
<feOffset dy="11.3994"/>
<feGaussianBlur stdDeviation="14.2492"/>
<feColorMatrix type="matrix" values="0 0 0 0 0 0 0 0 0 0 0 0 0 0 0 0 0 0 0.07 0"/>
<feBlend mode="normal" in2="BackgroundImageFix" result="effect1_dropShadow_3107_5233"/>
<feBlend mode="normal" in="SourceGraphic" in2="effect1_dropShadow_3107_5233" result="shape"/>
</filter>
<filter id="filter2_d_3107_5233" x="188.162" y="248.938" width="392.337" height="147.563" filterUnits="userSpaceOnUse" color-interpolation-filters="sRGB">
<feFlood flood-opacity="0" result="BackgroundImageFix"/>
<feColorMatrix in="SourceAlpha" type="matrix" values="0 0 0 0 0 0 0 0 0 0 0 0 0 0 0 0 0 0 127 0" result="hardAlpha"/>
<feOffset dy="11.3994"/>
<feGaussianBlur stdDeviation="14.2492"/>
<feColorMatrix type="matrix" values="0 0 0 0 0 0 0 0 0 0 0 0 0 0 0 0 0 0 0.07 0"/>
<feBlend mode="normal" in2="BackgroundImageFix" result="effect1_dropShadow_3107_5233"/>
<feBlend mode="normal" in="SourceGraphic" in2="effect1_dropShadow_3107_5233" result="shape"/>
</filter>
</defs>
</svg>
