<svg width="393" height="149" viewBox="0 0 393 149" fill="none" xmlns="http://www.w3.org/2000/svg">
<g filter="url(#filter0_d_2213_4630)">
<rect x="28.6599" y="18.0375" width="335.34" height="90.5663" rx="11.3994" fill="white"/>
<rect x="29.2299" y="18.6074" width="334.2" height="89.4264" rx="10.8294" stroke="#E8E8E8" stroke-opacity="0.4" stroke-width="1.13994"/>
</g>
<path d="M122.373 54.7617H124.526L125.745 51.1881H130.84L132.049 54.7617H134.202L129.401 41.5393H127.184L122.373 54.7617ZM128.274 43.7293H128.311L130.281 49.5387H126.295L128.274 43.7293ZM135.43 57.9687H137.41V53.1398H137.455C138.023 54.2577 139.132 54.9541 140.497 54.9541C142.917 54.9541 144.502 53.0207 144.502 49.951V49.9419C144.502 46.8631 142.926 44.9388 140.47 44.9388C139.096 44.9388 138.033 45.6352 137.455 46.7806H137.41V45.1221H135.43V57.9687ZM139.957 53.2497C138.463 53.2497 137.4 51.9486 137.4 49.951V49.9419C137.4 47.9352 138.454 46.634 139.957 46.634C141.505 46.634 142.486 47.8893 142.486 49.9419V49.951C142.486 51.9852 141.515 53.2497 139.957 53.2497ZM146.041 57.9687H148.02V53.1398H148.066C148.634 54.2577 149.743 54.9541 151.108 54.9541C153.527 54.9541 155.113 53.0207 155.113 49.951V49.9419C155.113 46.8631 153.537 44.9388 151.081 44.9388C149.706 44.9388 148.643 45.6352 148.066 46.7806H148.02V45.1221H146.041V57.9687ZM150.568 53.2497C149.074 53.2497 148.011 51.9486 148.011 49.951V49.9419C148.011 47.9352 149.065 46.634 150.568 46.634C152.116 46.634 153.097 47.8893 153.097 49.9419V49.951C153.097 51.9852 152.125 53.2497 150.568 53.2497ZM156.725 54.7617H158.705V41.5393H156.725V54.7617ZM161.875 57.9779C163.763 57.9779 164.77 57.2082 165.485 55.2106L169.077 45.1221H166.988L164.56 52.9657H164.496L162.067 45.1221H159.923L163.433 54.7708L163.268 55.229C162.938 56.1636 162.425 56.411 161.49 56.411C161.224 56.411 160.995 56.3744 160.839 56.3377V57.8863C161.078 57.9321 161.49 57.9779 161.875 57.9779ZM175.18 57.9779C177.067 57.9779 178.075 57.2082 178.79 55.2106L182.382 45.1221H180.293L177.865 52.9657H177.8L175.372 45.1221H173.228L176.737 54.7708L176.573 55.229C176.243 56.1636 175.73 56.411 174.795 56.411C174.529 56.411 174.3 56.3744 174.144 56.3377V57.8863C174.383 57.9321 174.795 57.9779 175.18 57.9779ZM187.312 54.9541C190.07 54.9541 191.884 53.0482 191.884 49.9419V49.9236C191.884 46.8356 190.051 44.9388 187.302 44.9388C184.563 44.9388 182.739 46.8448 182.739 49.9236V49.9419C182.739 53.039 184.544 54.9541 187.312 54.9541ZM187.321 53.2956C185.772 53.2956 184.764 52.0769 184.764 49.9419V49.9236C184.764 47.816 185.781 46.5974 187.302 46.5974C188.851 46.5974 189.859 47.816 189.859 49.9236V49.9419C189.859 52.0677 188.869 53.2956 187.321 53.2956ZM196.695 54.9541C198.161 54.9541 199.141 54.2852 199.645 53.3139H199.691V54.7617H201.679V45.1221H199.691V50.7482C199.691 52.251 198.793 53.2497 197.4 53.2497C196.026 53.2497 195.348 52.4434 195.348 50.9865V45.1221H193.368V51.3713C193.368 53.5888 194.578 54.9541 196.695 54.9541ZM203.64 54.7617H205.619V49.0164C205.619 47.5778 206.408 46.744 207.681 46.744C208.066 46.744 208.414 46.7898 208.57 46.8539V45.0121C208.414 44.9846 208.167 44.9388 207.883 44.9388C206.783 44.9388 205.977 45.6444 205.665 46.7715H205.619V45.1221H203.64V54.7617ZM213.683 54.7617H215.662V41.5393H213.683V54.7617ZM221.811 54.9541C224.147 54.9541 225.632 53.5613 225.943 52.0311L225.962 51.9303H224.083L224.056 52.0036C223.808 52.7275 223.029 53.3322 221.856 53.3322C220.28 53.3322 219.282 52.2693 219.245 50.4458H226.071V49.7769C226.071 46.8814 224.413 44.9388 221.71 44.9388C219.007 44.9388 217.266 46.9547 217.266 49.9694V49.9785C217.266 53.0207 218.979 54.9541 221.811 54.9541ZM221.719 46.5607C223.011 46.5607 223.946 47.3762 224.111 49.0439H219.272C219.447 47.4312 220.436 46.5607 221.719 46.5607ZM230.442 54.9358C231.716 54.9358 232.834 54.276 233.393 53.2406H233.429V54.7617H235.418V48.1184C235.418 46.185 233.924 44.9388 231.569 44.9388C229.196 44.9388 227.757 46.2125 227.62 47.871L227.611 47.9718H229.48L229.498 47.8893C229.663 47.1196 230.369 46.579 231.514 46.579C232.742 46.579 233.429 47.2204 233.429 48.2834V49.0072L230.809 49.163C228.527 49.3005 227.226 50.3267 227.226 52.0036V52.0219C227.226 53.7537 228.518 54.9358 230.442 54.9358ZM229.224 51.9761V51.9578C229.224 51.1422 229.883 50.6199 231.075 50.5466L233.429 50.4V51.1514C233.429 52.4067 232.376 53.3505 230.983 53.3505C229.92 53.3505 229.224 52.8191 229.224 51.9761ZM237.342 54.7617H239.321V49.0164C239.321 47.5778 240.109 46.744 241.383 46.744C241.768 46.744 242.116 46.7898 242.272 46.8539V45.0121C242.116 44.9846 241.869 44.9388 241.585 44.9388C240.485 44.9388 239.679 45.6444 239.367 46.7715H239.321V45.1221H237.342V54.7617ZM243.5 54.7617H245.479V49.1447C245.479 47.6419 246.377 46.634 247.77 46.634C249.144 46.634 249.822 47.4495 249.822 48.8973V54.7617H251.811V48.5216C251.811 46.3041 250.592 44.9388 248.475 44.9388C247.018 44.9388 246.029 45.5986 245.525 46.579H245.479V45.1221H243.5V54.7617ZM254.798 43.6377C255.448 43.6377 255.952 43.1245 255.952 42.5015C255.952 41.8692 255.448 41.3561 254.798 41.3561C254.156 41.3561 253.643 41.8692 253.643 42.5015C253.643 43.1245 254.156 43.6377 254.798 43.6377ZM253.808 54.7617H255.787V45.1221H253.808V54.7617ZM257.831 54.7617H259.81V49.1447C259.81 47.6419 260.708 46.634 262.101 46.634C263.475 46.634 264.153 47.4495 264.153 48.8973V54.7617H266.142V48.5216C266.142 46.3041 264.923 44.9388 262.806 44.9388C261.349 44.9388 260.36 45.5986 259.856 46.579H259.81V45.1221H257.831V54.7617ZM272.281 58.1612C275.002 58.1612 276.707 56.6951 276.707 54.4959V45.1221H274.718V46.7623H274.672C274.104 45.6719 273.041 44.9388 271.685 44.9388C269.239 44.9388 267.626 46.8356 267.626 49.8594V49.8686C267.626 52.8741 269.22 54.7708 271.639 54.7708C273.023 54.7708 274.123 54.1019 274.672 53.0573H274.718V54.3768C274.718 55.7238 273.848 56.5668 272.272 56.5668C271.035 56.5668 270.201 56.1453 269.935 55.5314L269.898 55.4581H267.938L267.947 55.5405C268.24 57.0158 269.807 58.1612 272.281 58.1612ZM272.198 53.1581C270.632 53.1581 269.651 51.9119 269.651 49.8961V49.8869C269.651 47.8985 270.632 46.634 272.198 46.634C273.701 46.634 274.718 47.9077 274.718 49.8869V49.8961C274.718 51.8845 273.71 53.1581 272.198 53.1581ZM282.479 54.7617H284.459V49.0164C284.459 47.5778 285.247 46.744 286.52 46.744C286.905 46.744 287.253 46.7898 287.409 46.8539V45.0121C287.253 44.9846 287.006 44.9388 286.722 44.9388C285.622 44.9388 284.816 45.6444 284.504 46.7715H284.459V45.1221H282.479V54.7617ZM292.33 54.9541C294.666 54.9541 296.151 53.5613 296.462 52.0311L296.481 51.9303H294.602L294.575 52.0036C294.327 52.7275 293.548 53.3322 292.376 53.3322C290.799 53.3322 289.801 52.2693 289.764 50.4458H296.591V49.7769C296.591 46.8814 294.932 44.9388 292.229 44.9388C289.526 44.9388 287.785 46.9547 287.785 49.9694V49.9785C287.785 53.0207 289.498 54.9541 292.33 54.9541ZM292.238 46.5607C293.53 46.5607 294.465 47.3762 294.63 49.0439H289.792C289.966 47.4312 290.955 46.5607 292.238 46.5607ZM300.961 54.9358C302.235 54.9358 303.353 54.276 303.912 53.2406H303.949V54.7617H305.937V48.1184C305.937 46.185 304.443 44.9388 302.088 44.9388C299.715 44.9388 298.277 46.2125 298.139 47.871L298.13 47.9718H299.999L300.018 47.8893C300.182 47.1196 300.888 46.579 302.033 46.579C303.261 46.579 303.949 47.2204 303.949 48.2834V49.0072L301.328 49.163C299.046 49.3005 297.745 50.3267 297.745 52.0036V52.0219C297.745 53.7537 299.037 54.9358 300.961 54.9358ZM299.743 51.9761V51.9578C299.743 51.1422 300.402 50.6199 301.594 50.5466L303.949 50.4V51.1514C303.949 52.4067 302.895 53.3505 301.502 53.3505C300.439 53.3505 299.743 52.8191 299.743 51.9761ZM307.934 54.7617H309.914V41.5393H307.934V54.7617ZM319.141 54.9541C319.544 54.9541 319.92 54.9083 320.149 54.8716V53.3414C320.002 53.3597 319.828 53.378 319.617 53.378C318.784 53.378 318.344 53.0848 318.344 52.1044V46.6981H320.149V45.1221H318.344V42.6114H316.319V45.1221H314.935V46.6981H316.319V52.2235C316.319 54.1477 317.235 54.9541 319.141 54.9541ZM322.861 43.6377C323.512 43.6377 324.016 43.1245 324.016 42.5015C324.016 41.8692 323.512 41.3561 322.861 41.3561C322.22 41.3561 321.707 41.8692 321.707 42.5015C321.707 43.1245 322.22 43.6377 322.861 43.6377ZM321.871 54.7617H323.851V45.1221H321.871V54.7617ZM325.894 54.7617H327.873V48.8057C327.873 47.5595 328.707 46.634 329.88 46.634C330.998 46.634 331.703 47.3487 331.703 48.4666V54.7617H333.646V48.7323C333.646 47.5137 334.462 46.634 335.634 46.634C336.807 46.634 337.476 47.3579 337.476 48.6132V54.7617H339.465V48.1367C339.465 46.2033 338.218 44.9388 336.313 44.9388C334.938 44.9388 333.802 45.6627 333.307 46.8356H333.261C332.876 45.6261 331.905 44.9388 330.576 44.9388C329.312 44.9388 328.331 45.6077 327.919 46.6157H327.873V45.1221H325.894V54.7617ZM345.494 54.9541C347.831 54.9541 349.315 53.5613 349.626 52.0311L349.645 51.9303H347.766L347.739 52.0036C347.491 52.7275 346.713 53.3322 345.54 53.3322C343.964 53.3322 342.965 52.2693 342.928 50.4458H349.755V49.7769C349.755 46.8814 348.096 44.9388 345.393 44.9388C342.69 44.9388 340.949 46.9547 340.949 49.9694V49.9785C340.949 53.0207 342.663 54.9541 345.494 54.9541ZM345.402 46.5607C346.694 46.5607 347.629 47.3762 347.794 49.0439H342.956C343.13 47.4312 344.119 46.5607 345.402 46.5607Z" fill="#272D33"/>
<rect opacity="0.1" x="46.8989" y="33.6217" width="59.2766" height="59.2766" rx="9.11948" fill="#0BECB4"/>
<path opacity="0.4" d="M82.9071 48.0609H70.1687C65.5482 48.0609 62.8579 50.7663 62.8579 55.402V71.1027C62.8579 75.8145 65.5482 78.4591 70.1687 78.4591H82.9071C87.6021 78.4591 90.2164 75.8145 90.2164 71.1027V55.402C90.2164 50.7663 87.6021 48.0609 82.9071 48.0609Z" fill="#0BECB4"/>
<path fill-rule="evenodd" clip-rule="evenodd" d="M70.5783 55.1284V55.1436C69.9232 55.1436 69.3928 55.6756 69.3928 56.3291C69.3928 56.9827 69.9232 57.5147 70.5783 57.5147H75.1213C75.7764 57.5147 76.3084 56.9827 76.3084 56.3124C76.3084 55.6604 75.7764 55.1284 75.1213 55.1284H70.5783ZM82.4952 64.3847H70.579C69.924 64.3847 69.3935 63.8527 69.3935 63.1992C69.3935 62.5456 69.924 62.0121 70.579 62.0121H82.4952C83.1487 62.0121 83.6807 62.5456 83.6807 63.1992C83.6807 63.8527 83.1487 64.3847 82.4952 64.3847ZM82.4952 71.3307H70.579C70.1231 71.3915 69.6823 71.1635 69.4391 70.7835C69.1959 70.3884 69.1959 69.8868 69.4391 69.5068C69.6823 69.1116 70.1231 68.8988 70.579 68.9444H82.4952C83.1016 69.0052 83.5591 69.522 83.5591 70.1452C83.5591 70.7516 83.1016 71.2699 82.4952 71.3307Z" fill="#0BECB4"/>
<rect x="124.938" y="71.0718" width="118.307" height="8.15913" rx="1.63183" fill="#BBC3CD"/>
<rect x="124.938" y="85.7582" width="76.6958" height="8.15913" rx="1.63183" fill="#BBC3CD"/>
<defs>
<filter id="filter0_d_2213_4630" x="0.161528" y="0.938445" width="392.337" height="147.563" filterUnits="userSpaceOnUse" color-interpolation-filters="sRGB">
<feFlood flood-opacity="0" result="BackgroundImageFix"/>
<feColorMatrix in="SourceAlpha" type="matrix" values="0 0 0 0 0 0 0 0 0 0 0 0 0 0 0 0 0 0 127 0" result="hardAlpha"/>
<feOffset dy="11.3994"/>
<feGaussianBlur stdDeviation="14.2492"/>
<feColorMatrix type="matrix" values="0 0 0 0 0 0 0 0 0 0 0 0 0 0 0 0 0 0 0.07 0"/>
<feBlend mode="normal" in2="BackgroundImageFix" result="effect1_dropShadow_2213_4630"/>
<feBlend mode="normal" in="SourceGraphic" in2="effect1_dropShadow_2213_4630" result="shape"/>
</filter>
</defs>
</svg>
