<svg width="522" height="300" viewBox="0 0 522 300" fill="none" xmlns="http://www.w3.org/2000/svg">
<rect x="1" width="261.573" height="290" rx="20" fill="white"/>
<rect x="1.40871" y="0.408708" width="260.756" height="289.183" rx="19.5913" stroke="#647382" stroke-opacity="0.1" stroke-width="0.817416"/>
<g filter="url(#filter0_d_3080_5235)">
<rect x="12" y="11" width="240.427" height="267.475" rx="13" fill="white"/>
</g>
<g filter="url(#filter1_d_3080_5235)">
<rect x="21.2134" y="20" width="222" height="65.2941" rx="8.27069" fill="white"/>
<rect x="21.6269" y="20.4135" width="221.173" height="64.467" rx="7.85715" stroke="#E8E8E8" stroke-opacity="0.4" stroke-width="0.827069"/>
</g>
<g opacity="0.5">
<path opacity="0.2" d="M230.155 52.647C230.155 57.1482 226.493 60.8088 221.993 60.8088C217.493 60.8088 213.831 57.1482 213.831 52.647C213.831 48.1466 217.493 44.4852 221.993 44.4852C226.493 44.4852 230.155 48.1466 230.155 52.647" fill="#272D33"/>
<path d="M225.438 51.4698C225.438 51.6257 225.378 51.7824 225.259 51.9015L222.427 54.7475C222.312 54.8626 222.156 54.9271 221.993 54.9271C221.83 54.9271 221.675 54.8626 221.559 54.7475L218.726 51.9015C218.487 51.6624 218.487 51.2755 218.727 51.0364C218.967 50.7981 219.355 50.7989 219.593 51.038L221.993 53.4482L224.392 51.038C224.631 50.7989 225.018 50.7981 225.258 51.0364C225.378 51.1555 225.438 51.3131 225.438 51.4698" fill="#272D33"/>
</g>
<path d="M89.0445 68.4633H92.566C94.5497 68.4633 95.7257 67.4876 95.7257 65.8464V65.8334C95.7257 64.5993 94.9115 63.6947 93.5675 63.5396V63.5138C94.5303 63.3781 95.254 62.4412 95.254 61.4784V61.4655C95.254 60.0698 94.1749 59.1393 92.5789 59.1393H89.0445V68.4633ZM92.314 60.1667C93.4383 60.1667 94.078 60.6707 94.078 61.5882V61.6012C94.078 62.6092 93.3285 63.1584 91.9522 63.1584H90.2076V60.1667H92.314ZM92.2817 64.1599C93.7678 64.1599 94.5303 64.7091 94.5303 65.7882V65.8011C94.5303 66.8737 93.7872 67.4359 92.3915 67.4359H90.2076V64.1599H92.2817ZM99.1632 68.5925C100.184 68.5925 100.869 68.1337 101.231 67.507H101.257V68.4633H102.381V61.7433H101.257V65.6977C101.257 66.8414 100.565 67.5974 99.5056 67.5974C98.4718 67.5974 97.9613 66.9965 97.9613 65.9045V61.7433H96.837V66.1048C96.837 67.6362 97.69 68.5925 99.1632 68.5925ZM106.232 68.5925C107.731 68.5925 108.842 67.7654 108.842 66.5894V66.583C108.842 65.6267 108.351 65.0904 106.994 64.7608L105.928 64.5024C105.185 64.3215 104.882 64.0048 104.882 63.5461V63.5396C104.882 62.9452 105.386 62.551 106.2 62.551C107.033 62.551 107.531 62.9839 107.621 63.6365L107.628 63.6818H108.7L108.694 63.5978C108.61 62.4735 107.673 61.6141 106.2 61.6141C104.746 61.6141 103.731 62.4347 103.731 63.5913V63.5978C103.731 64.567 104.345 65.155 105.612 65.4587L106.678 65.7171C107.44 65.9045 107.692 66.1759 107.692 66.6605V66.667C107.692 67.2743 107.15 67.6556 106.238 67.6556C105.321 67.6556 104.823 67.2614 104.688 66.5894L104.675 66.5248H103.551L103.557 66.583C103.693 67.7848 104.649 68.5925 106.232 68.5925ZM110.645 60.6061C111.039 60.6061 111.35 60.2895 111.35 59.9018C111.35 59.5077 111.039 59.1975 110.645 59.1975C110.258 59.1975 109.941 59.5077 109.941 59.9018C109.941 60.2895 110.258 60.6061 110.645 60.6061ZM110.083 68.4633H111.207V61.7433H110.083V68.4633ZM112.739 68.4633H113.863V64.5088C113.863 63.3652 114.554 62.6092 115.614 62.6092C116.648 62.6092 117.158 63.2101 117.158 64.3021V68.4633H118.283V64.1018C118.283 62.5704 117.43 61.6141 115.957 61.6141C114.936 61.6141 114.251 62.0729 113.889 62.6996H113.863V61.7433H112.739V68.4633ZM122.483 68.5925C123.949 68.5925 125.048 67.7137 125.268 66.6024L125.28 66.5377H124.176L124.156 66.5959C123.962 67.171 123.361 67.5974 122.508 67.5974C121.313 67.5974 120.551 66.7897 120.525 65.407H125.364V64.9934C125.364 62.9775 124.247 61.6141 122.412 61.6141C120.577 61.6141 119.388 63.0421 119.388 65.1227V65.1291C119.388 67.242 120.551 68.5925 122.483 68.5925ZM122.405 62.6092C123.387 62.6092 124.111 63.223 124.221 64.5282H120.544C120.667 63.2747 121.429 62.6092 122.405 62.6092ZM128.886 68.5925C130.385 68.5925 131.496 67.7654 131.496 66.5894V66.583C131.496 65.6267 131.005 65.0904 129.648 64.7608L128.582 64.5024C127.839 64.3215 127.536 64.0048 127.536 63.5461V63.5396C127.536 62.9452 128.04 62.551 128.854 62.551C129.687 62.551 130.185 62.9839 130.275 63.6365L130.282 63.6818H131.354L131.348 63.5978C131.264 62.4735 130.327 61.6141 128.854 61.6141C127.4 61.6141 126.385 62.4347 126.385 63.5913V63.5978C126.385 64.567 126.999 65.155 128.266 65.4587L129.332 65.7171C130.094 65.9045 130.346 66.1759 130.346 66.6605V66.667C130.346 67.2743 129.803 67.6556 128.892 67.6556C127.975 67.6556 127.477 67.2614 127.342 66.5894L127.329 66.5248H126.204L126.211 66.583C126.347 67.7848 127.303 68.5925 128.886 68.5925ZM135.05 68.5925C136.549 68.5925 137.661 67.7654 137.661 66.5894V66.583C137.661 65.6267 137.17 65.0904 135.813 64.7608L134.747 64.5024C134.003 64.3215 133.7 64.0048 133.7 63.5461V63.5396C133.7 62.9452 134.204 62.551 135.018 62.551C135.851 62.551 136.349 62.9839 136.439 63.6365L136.446 63.6818H137.518L137.512 63.5978C137.428 62.4735 136.491 61.6141 135.018 61.6141C133.564 61.6141 132.55 62.4347 132.55 63.5913V63.5978C132.55 64.567 133.163 65.155 134.43 65.4587L135.496 65.7171C136.259 65.9045 136.511 66.1759 136.511 66.6605V66.667C136.511 67.2743 135.968 67.6556 135.057 67.6556C134.139 67.6556 133.642 67.2614 133.506 66.5894L133.493 66.5248H132.369L132.375 66.583C132.511 67.7848 133.467 68.5925 135.05 68.5925ZM145.615 68.6183C147.566 68.6183 149.059 67.4617 149.414 65.6784L149.427 65.6137H148.251L148.232 65.6719C147.825 66.8996 146.92 67.5457 145.615 67.5457C143.76 67.5457 142.552 66.066 142.552 63.7981V63.7916C142.552 61.5236 143.754 60.0569 145.615 60.0569C146.926 60.0569 147.844 60.7159 148.206 61.8467L148.251 61.9889H149.427L149.414 61.9242C149.059 60.1603 147.553 58.9843 145.615 58.9843C143.017 58.9843 141.357 60.8581 141.357 63.7916V63.7981C141.357 66.7316 143.024 68.6183 145.615 68.6183ZM150.687 68.4633H151.811V59.1393H150.687V68.4633ZM155.294 68.5925C156.192 68.5925 157 68.1079 157.394 67.3713H157.42V68.4633H158.544V63.8175C158.544 62.4735 157.549 61.6141 155.96 61.6141C154.376 61.6141 153.414 62.5058 153.317 63.6107L153.31 63.6818H154.396L154.409 63.6236C154.538 63.0227 155.081 62.6092 155.947 62.6092C156.884 62.6092 157.42 63.1067 157.42 63.9273V64.4894L155.494 64.5993C153.95 64.6898 153.058 65.407 153.058 66.5507V66.5636C153.058 67.7848 153.956 68.5925 155.294 68.5925ZM154.208 66.5636V66.5507C154.208 65.9239 154.725 65.5233 155.624 65.4716L157.42 65.3617V65.911C157.42 66.8867 156.606 67.6168 155.546 67.6168C154.738 67.6168 154.208 67.2097 154.208 66.5636ZM162.356 68.5925C163.855 68.5925 164.967 67.7654 164.967 66.5894V66.583C164.967 65.6267 164.476 65.0904 163.119 64.7608L162.053 64.5024C161.31 64.3215 161.006 64.0048 161.006 63.5461V63.5396C161.006 62.9452 161.51 62.551 162.324 62.551C163.158 62.551 163.655 62.9839 163.746 63.6365L163.752 63.6818H164.825L164.818 63.5978C164.734 62.4735 163.797 61.6141 162.324 61.6141C160.87 61.6141 159.856 62.4347 159.856 63.5913V63.5978C159.856 64.567 160.47 65.155 161.736 65.4587L162.802 65.7171C163.565 65.9045 163.817 66.1759 163.817 66.6605V66.667C163.817 67.2743 163.274 67.6556 162.363 67.6556C161.445 67.6556 160.948 67.2614 160.812 66.5894L160.799 66.5248H159.675L159.681 66.583C159.817 67.7848 160.773 68.5925 162.356 68.5925ZM168.521 68.5925C170.02 68.5925 171.131 67.7654 171.131 66.5894V66.583C171.131 65.6267 170.64 65.0904 169.283 64.7608L168.217 64.5024C167.474 64.3215 167.17 64.0048 167.17 63.5461V63.5396C167.17 62.9452 167.674 62.551 168.488 62.551C169.322 62.551 169.819 62.9839 169.91 63.6365L169.916 63.6818H170.989L170.982 63.5978C170.898 62.4735 169.962 61.6141 168.488 61.6141C167.035 61.6141 166.02 62.4347 166.02 63.5913V63.5978C166.02 64.567 166.634 65.155 167.9 65.4587L168.966 65.7171C169.729 65.9045 169.981 66.1759 169.981 66.6605V66.667C169.981 67.2743 169.438 67.6556 168.527 67.6556C167.61 67.6556 167.112 67.2614 166.976 66.5894L166.963 66.5248H165.839L165.846 66.583C165.981 67.7848 166.938 68.5925 168.521 68.5925Z" fill="#272D33"/>
<path d="M88.8183 45.2427H93.0635V44.4576H89.6906V38.2497H88.8183V45.2427ZM94.3671 39.3498C94.6628 39.3498 94.8954 39.1124 94.8954 38.8216C94.8954 38.526 94.6628 38.2934 94.3671 38.2934C94.0764 38.2934 93.8389 38.526 93.8389 38.8216C93.8389 39.1124 94.0764 39.3498 94.3671 39.3498ZM93.9455 45.2427H94.7888V40.2027H93.9455V45.2427ZM97.3572 45.2427H98.2198L100.071 40.2027H99.1939L97.7982 44.3461H97.7788L96.388 40.2027H95.5011L97.3572 45.2427ZM102.615 45.3396C103.715 45.3396 104.539 44.6805 104.704 43.847L104.714 43.7985H103.885L103.87 43.8422C103.725 44.2735 103.274 44.5933 102.635 44.5933C101.738 44.5933 101.166 43.9875 101.147 42.9505H104.777V42.6403C104.777 41.1283 103.938 40.1058 102.562 40.1058C101.186 40.1058 100.294 41.1768 100.294 42.7372V42.7421C100.294 44.3268 101.166 45.3396 102.615 45.3396ZM102.557 40.8521C103.294 40.8521 103.836 41.3125 103.919 42.2914H101.161C101.253 41.3513 101.825 40.8521 102.557 40.8521ZM110.718 45.359C112.181 45.359 113.301 44.4915 113.567 43.154L113.577 43.1055H112.695L112.681 43.1492C112.375 44.0699 111.697 44.5545 110.718 44.5545C109.327 44.5545 108.421 43.4448 108.421 41.7438V41.7389C108.421 40.038 109.322 38.9379 110.718 38.9379C111.702 38.9379 112.39 39.4322 112.661 40.2803L112.695 40.3869H113.577L113.567 40.3384C113.301 39.0154 112.172 38.1334 110.718 38.1334C108.77 38.1334 107.524 39.5388 107.524 41.7389V41.7438C107.524 43.9439 108.775 45.359 110.718 45.359ZM114.522 45.2427H115.365V38.2497H114.522V45.2427ZM117.977 45.3396C118.651 45.3396 119.257 44.9761 119.552 44.4237H119.572V45.2427H120.415V41.7583C120.415 40.7503 119.669 40.1058 118.477 40.1058C117.289 40.1058 116.567 40.7746 116.494 41.6032L116.49 41.6566H117.304L117.313 41.6129C117.41 41.1623 117.817 40.8521 118.467 40.8521C119.17 40.8521 119.572 41.2253 119.572 41.8407V42.2623L118.128 42.3447C116.969 42.4125 116.301 42.9505 116.301 43.8082V43.8179C116.301 44.7338 116.974 45.3396 117.977 45.3396ZM117.163 43.8179V43.8082C117.163 43.3382 117.551 43.0377 118.225 42.9989L119.572 42.9165V43.3285C119.572 44.0602 118.961 44.6078 118.166 44.6078C117.561 44.6078 117.163 44.3025 117.163 43.8179ZM123.274 45.3396C124.398 45.3396 125.232 44.7193 125.232 43.8373V43.8325C125.232 43.1152 124.864 42.713 123.846 42.4659L123.046 42.272C122.489 42.1363 122.261 41.8989 122.261 41.5548V41.5499C122.261 41.1041 122.639 40.8085 123.25 40.8085C123.875 40.8085 124.248 41.1332 124.316 41.6226L124.321 41.6566H125.125L125.121 41.5936C125.058 40.7503 124.355 40.1058 123.25 40.1058C122.16 40.1058 121.399 40.7213 121.399 41.5887V41.5936C121.399 42.3205 121.859 42.7615 122.809 42.9892L123.609 43.1831C124.18 43.3236 124.369 43.5272 124.369 43.8906V43.8955C124.369 44.351 123.962 44.6369 123.279 44.6369C122.591 44.6369 122.218 44.3413 122.116 43.8373L122.106 43.7888H121.263L121.268 43.8325C121.37 44.7338 122.087 45.3396 123.274 45.3396ZM127.897 45.3396C129.022 45.3396 129.855 44.7193 129.855 43.8373V43.8325C129.855 43.1152 129.487 42.713 128.469 42.4659L127.67 42.272C127.112 42.1363 126.885 41.8989 126.885 41.5548V41.5499C126.885 41.1041 127.263 40.8085 127.873 40.8085C128.498 40.8085 128.871 41.1332 128.939 41.6226L128.944 41.6566H129.749L129.744 41.5936C129.681 40.7503 128.978 40.1058 127.873 40.1058C126.783 40.1058 126.022 40.7213 126.022 41.5887V41.5936C126.022 42.3205 126.482 42.7615 127.432 42.9892L128.232 43.1831C128.804 43.3236 128.993 43.5272 128.993 43.8906V43.8955C128.993 44.351 128.585 44.6369 127.902 44.6369C127.214 44.6369 126.841 44.3413 126.739 43.8373L126.729 43.7888H125.886L125.891 43.8325C125.993 44.7338 126.71 45.3396 127.897 45.3396Z" fill="#647382"/>
<rect opacity="0.1" x="34.2722" y="31.4265" width="42.4412" height="42.4412" rx="6.61655" fill="#5C4FFF"/>
<path opacity="0.4" d="M60.0536 41.7646H50.9331C47.6249 41.7646 45.6987 43.7017 45.6987 47.0208V58.2623C45.6987 61.6358 47.6249 63.5294 50.9331 63.5294H60.0536C63.4152 63.5294 65.287 61.6358 65.287 58.2623V47.0208C65.287 43.7017 63.4152 41.7646 60.0536 41.7646Z" fill="#5C4FFF"/>
<path fill-rule="evenodd" clip-rule="evenodd" d="M51.227 46.825V46.8358C50.758 46.8358 50.3782 47.2167 50.3782 47.6847C50.3782 48.1526 50.758 48.5335 51.227 48.5335H54.4797C54.9488 48.5335 55.3296 48.1526 55.3296 47.6727C55.3296 47.2058 54.9488 46.825 54.4797 46.825H51.227ZM59.7588 53.4523H51.227C50.758 53.4523 50.3782 53.0714 50.3782 52.6035C50.3782 52.1355 50.758 51.7536 51.227 51.7536H59.7588C60.2267 51.7536 60.6076 52.1355 60.6076 52.6035C60.6076 53.0714 60.2267 53.4523 59.7588 53.4523ZM59.7588 58.4255H51.227C50.9006 58.469 50.585 58.3058 50.4109 58.0337C50.2367 57.7508 50.2367 57.3917 50.4109 57.1196C50.585 56.8367 50.9006 56.6843 51.227 56.717H59.7588C60.193 56.7605 60.5206 57.1305 60.5206 57.5767C60.5206 58.0109 60.193 58.382 59.7588 58.4255Z" fill="#5C4FFF"/>
<g filter="url(#filter2_d_3080_5235)">
<rect x="20.8635" y="98.3438" width="222.7" height="171.938" rx="8.27069" fill="white"/>
<rect x="21.2771" y="98.7573" width="221.873" height="171.11" rx="7.85715" stroke="#E8E8E8" stroke-opacity="0.4" stroke-width="0.827069"/>
</g>
<g opacity="0.5">
<path opacity="0.2" d="M214.088 131.094C214.088 126.578 217.761 122.906 222.276 122.906C226.79 122.906 230.463 126.578 230.463 131.094C230.463 135.608 226.79 139.281 222.276 139.281C217.761 139.281 214.088 135.608 214.088 131.094" fill="#272D33"/>
<path d="M218.82 132.275C218.82 132.118 218.88 131.961 218.999 131.842L221.841 128.987C221.956 128.871 222.112 128.807 222.276 128.807C222.439 128.807 222.595 128.871 222.711 128.987L225.554 131.842C225.793 132.082 225.793 132.47 225.552 132.71C225.311 132.949 224.922 132.948 224.683 132.708L222.276 130.29L219.869 132.708C219.63 132.948 219.242 132.949 219.001 132.71C218.88 132.59 218.82 132.432 218.82 132.275" fill="#272D33"/>
</g>
<path d="M88.8967 145.912H91.999C94.7431 145.912 96.355 144.205 96.355 141.294V141.281C96.355 138.384 94.7303 136.682 91.999 136.682H88.8967V145.912ZM90.0481 144.876V137.719H91.9223C94.0139 137.719 95.1781 138.991 95.1781 141.294V141.307C95.1781 143.597 94.0139 144.876 91.9223 144.876H90.0481ZM100.353 146.04C101.805 146.04 102.892 145.17 103.11 144.07L103.123 144.006H102.029L102.01 144.064C101.818 144.633 101.223 145.055 100.378 145.055C99.1951 145.055 98.4403 144.256 98.4147 142.887H103.206V142.478C103.206 140.482 102.099 139.132 100.282 139.132C98.4659 139.132 97.2889 140.546 97.2889 142.605V142.612C97.2889 144.704 98.4403 146.04 100.353 146.04ZM100.276 140.117C101.248 140.117 101.965 140.725 102.073 142.017H98.4339C98.5554 140.776 99.3102 140.117 100.276 140.117ZM106.692 146.04C108.176 146.04 109.276 145.222 109.276 144.057V144.051C109.276 143.104 108.79 142.574 107.447 142.247L106.391 141.991C105.656 141.812 105.355 141.499 105.355 141.045V141.038C105.355 140.45 105.854 140.06 106.66 140.06C107.485 140.06 107.977 140.488 108.067 141.134L108.073 141.179H109.135L109.129 141.096C109.046 139.983 108.118 139.132 106.66 139.132C105.221 139.132 104.216 139.945 104.216 141.09V141.096C104.216 142.055 104.824 142.637 106.078 142.938L107.133 143.194C107.888 143.379 108.137 143.648 108.137 144.128V144.134C108.137 144.736 107.6 145.113 106.698 145.113C105.79 145.113 105.297 144.723 105.163 144.057L105.15 143.994H104.037L104.044 144.051C104.178 145.241 105.125 146.04 106.692 146.04ZM111.061 138.134C111.451 138.134 111.758 137.821 111.758 137.437C111.758 137.047 111.451 136.74 111.061 136.74C110.677 136.74 110.363 137.047 110.363 137.437C110.363 137.821 110.677 138.134 111.061 138.134ZM110.504 145.912H111.617V139.26H110.504V145.912ZM115.947 148.279C117.751 148.279 118.883 147.269 118.883 145.727V139.26H117.77V140.386H117.745C117.335 139.644 116.594 139.132 115.653 139.132C113.965 139.132 112.807 140.475 112.807 142.542V142.548C112.807 144.627 113.952 145.976 115.628 145.976C116.581 145.976 117.348 145.503 117.745 144.768H117.77V145.618C117.77 146.648 117.105 147.294 115.935 147.294C115.026 147.294 114.393 147 114.182 146.52L114.156 146.463H113.037L113.05 146.52C113.267 147.505 114.304 148.279 115.947 148.279ZM115.871 144.991C114.687 144.991 113.945 144.057 113.945 142.548V142.542C113.945 141.064 114.687 140.117 115.871 140.117C116.996 140.117 117.77 141.077 117.77 142.542V142.548C117.77 144.026 117.003 144.991 115.871 144.991ZM120.323 145.912H121.436V141.998C121.436 140.866 122.12 140.117 123.169 140.117C124.193 140.117 124.698 140.712 124.698 141.793V145.912H125.811V141.595C125.811 140.079 124.967 139.132 123.508 139.132C122.497 139.132 121.819 139.586 121.461 140.207H121.436V139.26H120.323V145.912ZM133.109 146.066C135.22 146.066 136.519 145.03 136.519 143.392V143.386C136.519 141.979 135.725 141.211 133.832 140.795L132.809 140.571C131.606 140.309 131.05 139.836 131.05 139.081V139.075C131.05 138.186 131.856 137.597 133.09 137.591C134.261 137.591 135.047 138.147 135.188 139.087L135.201 139.177H136.352L136.346 139.081C136.244 137.571 134.926 136.529 133.122 136.529C131.222 136.529 129.879 137.591 129.873 139.107V139.113C129.873 140.463 130.717 141.275 132.521 141.672L133.544 141.895C134.811 142.177 135.342 142.631 135.342 143.443V143.45C135.342 144.403 134.504 145.004 133.173 145.004C131.836 145.004 130.941 144.435 130.806 143.507L130.794 143.418H129.642L129.649 143.507C129.764 145.087 131.114 146.066 133.109 146.066ZM139.858 146.04C140.075 146.04 140.312 146.015 140.452 145.996V145.094C140.356 145.1 140.229 145.119 140.094 145.119C139.499 145.119 139.186 144.921 139.186 144.211V140.181H140.452V139.26H139.186V137.463H138.035V139.26H137.062V140.181H138.035V144.217C138.035 145.49 138.636 146.04 139.858 146.04ZM141.649 145.912H142.762V141.806C142.762 140.795 143.324 140.194 144.188 140.194C144.457 140.194 144.693 140.226 144.783 140.258V139.177C144.693 139.164 144.527 139.132 144.335 139.132C143.587 139.132 143.011 139.618 142.787 140.386H142.762V139.26H141.649V145.912ZM147.508 146.04C148.397 146.04 149.196 145.561 149.587 144.831H149.612V145.912H150.725V141.313C150.725 139.983 149.74 139.132 148.167 139.132C146.599 139.132 145.646 140.015 145.55 141.109L145.544 141.179H146.619L146.631 141.122C146.759 140.527 147.297 140.117 148.154 140.117C149.081 140.117 149.612 140.61 149.612 141.422V141.979L147.706 142.087C146.177 142.177 145.295 142.887 145.295 144.019V144.032C145.295 145.241 146.184 146.04 147.508 146.04ZM146.433 144.032V144.019C146.433 143.399 146.945 143.002 147.834 142.951L149.612 142.842V143.386C149.612 144.352 148.806 145.075 147.757 145.075C146.958 145.075 146.433 144.672 146.433 144.032ZM154.301 146.04C154.518 146.04 154.755 146.015 154.896 145.996V145.094C154.8 145.1 154.672 145.119 154.537 145.119C153.943 145.119 153.629 144.921 153.629 144.211V140.181H154.896V139.26H153.629V137.463H152.478V139.26H151.506V140.181H152.478V144.217C152.478 145.49 153.079 146.04 154.301 146.04ZM158.638 146.04C160.09 146.04 161.177 145.17 161.394 144.07L161.407 144.006H160.313L160.294 144.064C160.102 144.633 159.508 145.055 158.663 145.055C157.48 145.055 156.725 144.256 156.699 142.887H161.49V142.478C161.49 140.482 160.384 139.132 158.567 139.132C156.751 139.132 155.574 140.546 155.574 142.605V142.612C155.574 144.704 156.725 146.04 158.638 146.04ZM158.561 140.117C159.533 140.117 160.25 140.725 160.358 142.017H156.719C156.84 140.776 157.595 140.117 158.561 140.117ZM165.431 148.279C167.234 148.279 168.367 147.269 168.367 145.727V139.26H167.254V140.386H167.228C166.819 139.644 166.077 139.132 165.136 139.132C163.448 139.132 162.29 140.475 162.29 142.542V142.548C162.29 144.627 163.435 145.976 165.111 145.976C166.064 145.976 166.831 145.503 167.228 144.768H167.254V145.618C167.254 146.648 166.588 147.294 165.418 147.294C164.51 147.294 163.876 147 163.665 146.52L163.64 146.463H162.52L162.533 146.52C162.751 147.505 163.787 148.279 165.431 148.279ZM165.354 144.991C164.171 144.991 163.429 144.057 163.429 142.548V142.542C163.429 141.064 164.171 140.117 165.354 140.117C166.48 140.117 167.254 141.077 167.254 142.542V142.548C167.254 144.026 166.486 144.991 165.354 144.991ZM170.446 148.151C171.648 148.151 172.23 147.601 172.703 146.328L175.3 139.26H174.13L172.288 144.799H172.262L170.426 139.26H169.237L171.706 145.919L171.571 146.296C171.303 147.051 170.912 147.23 170.209 147.23C170.075 147.23 169.947 147.211 169.851 147.192V148.1C169.991 148.126 170.228 148.151 170.446 148.151Z" fill="#272D33"/>
<path d="M88.6729 123.625H92.8753V122.848H89.5364V116.702H88.6729V123.625ZM94.1658 117.791C94.4585 117.791 94.6887 117.556 94.6887 117.268C94.6887 116.976 94.4585 116.746 94.1658 116.746C93.878 116.746 93.6429 116.976 93.6429 117.268C93.6429 117.556 93.878 117.791 94.1658 117.791ZM93.7485 123.625H94.5832V118.636H93.7485V123.625ZM97.1258 123.625H97.9797L99.8123 118.636H98.944L97.5624 122.737H97.5432L96.1663 118.636H95.2884L97.1258 123.625ZM102.331 123.721C103.42 123.721 104.235 123.069 104.399 122.243L104.408 122.195H103.588L103.573 122.239C103.43 122.666 102.983 122.982 102.35 122.982C101.463 122.982 100.897 122.382 100.877 121.356H104.471V121.049C104.471 119.552 103.641 118.54 102.278 118.54C100.916 118.54 100.033 119.6 100.033 121.145V121.15C100.033 122.718 100.897 123.721 102.331 123.721ZM102.273 119.279C103.003 119.279 103.54 119.734 103.621 120.703H100.892C100.983 119.773 101.549 119.279 102.273 119.279ZM110.352 123.74C111.801 123.74 112.909 122.881 113.173 121.557L113.183 121.509H112.309L112.295 121.553C111.993 122.464 111.321 122.944 110.352 122.944C108.975 122.944 108.078 121.845 108.078 120.161V120.157C108.078 118.473 108.97 117.384 110.352 117.384C111.326 117.384 112.007 117.873 112.276 118.712L112.309 118.818H113.183L113.173 118.77C112.909 117.46 111.791 116.587 110.352 116.587C108.424 116.587 107.191 117.979 107.191 120.157V120.161C107.191 122.339 108.428 123.74 110.352 123.74ZM114.118 123.625H114.953V116.702H114.118V123.625ZM117.539 123.721C118.205 123.721 118.805 123.361 119.098 122.814H119.117V123.625H119.952V120.176C119.952 119.178 119.213 118.54 118.033 118.54C116.857 118.54 116.143 119.202 116.071 120.022L116.066 120.075H116.872L116.881 120.032C116.977 119.586 117.38 119.279 118.023 119.279C118.719 119.279 119.117 119.648 119.117 120.257V120.675L117.687 120.756C116.541 120.823 115.879 121.356 115.879 122.205V122.215C115.879 123.121 116.546 123.721 117.539 123.721ZM116.733 122.215V122.205C116.733 121.74 117.116 121.442 117.783 121.404L119.117 121.322V121.73C119.117 122.454 118.512 122.997 117.726 122.997C117.126 122.997 116.733 122.694 116.733 122.215ZM122.782 123.721C123.895 123.721 124.72 123.107 124.72 122.234V122.229C124.72 121.519 124.356 121.121 123.348 120.876L122.557 120.684C122.005 120.55 121.779 120.315 121.779 119.974V119.969C121.779 119.528 122.154 119.235 122.758 119.235C123.377 119.235 123.746 119.557 123.814 120.041L123.818 120.075H124.615L124.61 120.013C124.548 119.178 123.852 118.54 122.758 118.54C121.679 118.54 120.926 119.149 120.926 120.008V120.013C120.926 120.732 121.381 121.169 122.322 121.394L123.113 121.586C123.679 121.725 123.866 121.927 123.866 122.287V122.291C123.866 122.742 123.463 123.025 122.787 123.025C122.106 123.025 121.736 122.733 121.636 122.234L121.626 122.186H120.791L120.796 122.229C120.897 123.121 121.607 123.721 122.782 123.721ZM127.359 123.721C128.472 123.721 129.297 123.107 129.297 122.234V122.229C129.297 121.519 128.932 121.121 127.925 120.876L127.133 120.684C126.582 120.55 126.356 120.315 126.356 119.974V119.969C126.356 119.528 126.73 119.235 127.335 119.235C127.954 119.235 128.323 119.557 128.39 120.041L128.395 120.075H129.191L129.187 120.013C129.124 119.178 128.429 118.54 127.335 118.54C126.255 118.54 125.502 119.149 125.502 120.008V120.013C125.502 120.732 125.958 121.169 126.898 121.394L127.69 121.586C128.256 121.725 128.443 121.927 128.443 122.287V122.291C128.443 122.742 128.04 123.025 127.364 123.025C126.682 123.025 126.313 122.733 126.212 122.234L126.203 122.186H125.368L125.373 122.229C125.473 123.121 126.183 123.721 127.359 123.721Z" fill="#647382"/>
<rect opacity="0.1" x="33.9636" y="109.806" width="42.575" height="42.575" rx="6.55" fill="#EC0B43"/>
<path opacity="0.4" d="M59.8262 120.177H50.6769C47.3583 120.177 45.426 122.12 45.426 125.45V136.727C45.426 140.111 47.3583 142.01 50.6769 142.01H59.8262C63.1984 142.01 65.076 140.111 65.076 136.727V125.45C65.076 122.12 63.1984 120.177 59.8262 120.177Z" fill="#EC0B43"/>
<path fill-rule="evenodd" clip-rule="evenodd" d="M50.9721 125.253V125.264C50.5016 125.264 50.1206 125.646 50.1206 126.116C50.1206 126.585 50.5016 126.967 50.9721 126.967H54.2351C54.7056 126.967 55.0877 126.585 55.0877 126.104C55.0877 125.636 54.7056 125.253 54.2351 125.253H50.9721ZM59.5303 131.902H50.9716C50.5011 131.902 50.1201 131.52 50.1201 131.05C50.1201 130.581 50.5011 130.198 50.9716 130.198H59.5303C59.9997 130.198 60.3818 130.581 60.3818 131.05C60.3818 131.52 59.9997 131.902 59.5303 131.902ZM59.5304 136.891H50.9717C50.6442 136.934 50.3276 136.771 50.153 136.498C49.9783 136.214 49.9783 135.854 50.153 135.581C50.3276 135.297 50.6442 135.144 50.9717 135.177H59.5304C59.966 135.22 60.2946 135.592 60.2946 136.039C60.2946 136.475 59.966 136.847 59.5304 136.891Z" fill="#EC0B43"/>
<path d="M34.5393 175.206H35.9881V172.29H39.1064V175.206H40.5552V168.284H39.1064V171.095H35.9881V168.284H34.5393V175.206ZM43.9469 175.312C45.5013 175.312 46.4943 174.314 46.4943 172.635V172.625C46.4943 170.961 45.4821 169.958 43.9421 169.958C42.407 169.958 41.3995 170.97 41.3995 172.625V172.635C41.3995 174.309 42.383 175.312 43.9469 175.312ZM43.9517 174.213C43.2609 174.213 42.8244 173.642 42.8244 172.635V172.625C42.8244 171.632 43.2657 171.057 43.9421 171.057C44.6234 171.057 45.0695 171.632 45.0695 172.625V172.635C45.0695 173.638 44.633 174.213 43.9517 174.213ZM49.3344 175.312C50.6584 175.312 51.5843 174.65 51.5843 173.642V173.638C51.5843 172.88 51.143 172.457 50.0684 172.232L49.1953 172.045C48.6771 171.934 48.4996 171.762 48.4996 171.498V171.493C48.4996 171.162 48.8019 170.946 49.2864 170.946C49.8045 170.946 50.1068 171.224 50.1547 171.594L50.1595 171.632H51.45V171.584C51.4164 170.682 50.6537 169.958 49.2864 169.958C47.9767 169.958 47.1324 170.591 47.1324 171.57V171.575C47.1324 172.342 47.6361 172.841 48.634 173.052L49.5071 173.235C50.0108 173.345 50.1835 173.503 50.1835 173.777V173.781C50.1835 174.112 49.8621 174.319 49.3344 174.319C48.7731 174.319 48.4709 174.084 48.3797 173.681L48.3701 173.638H47.0029L47.0077 173.681C47.118 174.655 47.9096 175.312 49.3344 175.312ZM54.3188 175.312C54.6115 175.312 54.837 175.283 54.9953 175.259V174.232C54.9089 174.242 54.8178 174.256 54.693 174.256C54.2709 174.256 54.055 174.093 54.055 173.614V171.119H54.9953V170.064H54.055V168.807H52.6398V170.064H51.925V171.119H52.6398V173.767C52.6398 174.87 53.1771 175.312 54.3188 175.312ZM58.032 175.312C59.5 175.312 60.21 174.444 60.3683 173.686L60.3827 173.633H59.097L59.0874 173.662C58.9867 173.949 58.6365 174.266 58.0608 174.266C57.346 174.266 56.8998 173.786 56.8854 172.966H60.4259V172.534C60.4259 170.98 59.4808 169.958 57.9744 169.958C56.4681 169.958 55.5038 171.004 55.5038 172.64V172.645C55.5038 174.29 56.4585 175.312 58.032 175.312ZM57.9984 171.004C58.5789 171.004 58.9963 171.373 59.0826 172.083H56.8998C56.991 171.388 57.4227 171.004 57.9984 171.004ZM63.0548 175.312C63.7984 175.312 64.3645 174.938 64.638 174.328H64.6667V175.206H66.0676V168.284H64.6667V170.956H64.638C64.3597 170.332 63.784 169.958 63.0548 169.958C61.7595 169.958 60.9632 170.956 60.9632 172.63V172.635C60.9632 174.304 61.7595 175.312 63.0548 175.312ZM63.525 174.151C62.8246 174.151 62.388 173.57 62.388 172.635V172.63C62.388 171.69 62.8294 171.119 63.525 171.119C64.2014 171.119 64.6715 171.704 64.6715 172.63V172.635C64.6715 173.566 64.2062 174.151 63.525 174.151ZM71.9971 175.312C73.2924 175.312 74.0936 174.304 74.0936 172.635V172.63C74.0936 170.956 73.2924 169.958 72.0019 169.958C71.2679 169.958 70.697 170.332 70.414 170.956H70.3852V168.284H68.9844V175.206H70.3852V174.328H70.414C70.6922 174.938 71.2583 175.312 71.9971 175.312ZM71.5318 174.151C70.8506 174.151 70.3852 173.566 70.3852 172.635V172.63C70.3852 171.704 70.8553 171.119 71.5318 171.119C72.2274 171.119 72.6688 171.69 72.6688 172.63V172.635C72.6688 173.57 72.2274 174.151 71.5318 174.151ZM75.4368 176.9C76.5786 176.9 77.2694 176.511 77.6724 175.297L79.4378 170.064H77.9602L76.8712 174.084H76.8329L75.7487 170.064H74.2087L76.0269 175.206L75.9645 175.374C75.8398 175.724 75.6095 175.844 75.1922 175.844C74.9859 175.844 74.8228 175.816 74.722 175.796V176.837C74.8851 176.866 75.1634 176.9 75.4368 176.9ZM80.6564 171.872C81.0881 171.872 81.4335 171.532 81.4335 171.095C81.4335 170.663 81.0881 170.318 80.6564 170.318C80.2198 170.318 79.8792 170.663 79.8792 171.095C79.8792 171.532 80.2198 171.872 80.6564 171.872ZM80.6564 175.288C81.0881 175.288 81.4335 174.942 81.4335 174.511C81.4335 174.074 81.0881 173.734 80.6564 173.734C80.2198 173.734 79.8792 174.074 79.8792 174.511C79.8792 174.942 80.2198 175.288 80.6564 175.288ZM83.909 175.206H84.8157L85.5161 173.225H88.3034L89.0038 175.206H89.9105L87.3391 168.284H86.4852L83.909 175.206ZM86.9025 169.32H86.9217L88.0443 172.491H85.7799L86.9025 169.32ZM90.6445 175.206H91.4792V173.326L91.9446 172.88L93.7963 175.206H94.7654L92.5346 172.371L94.6982 170.217H93.686L91.4984 172.419H91.4792V168.284H90.6445V175.206ZM95.816 169.373C96.1087 169.373 96.3389 169.138 96.3389 168.85C96.3389 168.557 96.1087 168.327 95.816 168.327C95.5282 168.327 95.2931 168.557 95.2931 168.85C95.2931 169.138 95.5282 169.373 95.816 169.373ZM95.3987 175.206H96.2334V170.217H95.3987V175.206ZM97.3704 175.206H98.2051V172.27C98.2051 171.421 98.7184 170.86 99.5052 170.86C100.273 170.86 100.652 171.306 100.652 172.117V175.206H101.487V171.968C101.487 170.831 100.853 170.121 99.7595 170.121C99.0015 170.121 98.493 170.462 98.2243 170.927H98.2051V170.217H97.3704V175.206ZM104.144 175.206H105.051L105.751 173.225H108.539L109.239 175.206H110.146L107.574 168.284H106.72L104.144 175.206ZM107.138 169.32H107.157L108.28 172.491H106.015L107.138 169.32ZM110.856 175.206H111.691V168.284H110.856V175.206ZM114.276 175.302C114.943 175.302 115.543 174.942 115.835 174.396H115.855V175.206H116.689V171.757C116.689 170.759 115.951 170.121 114.77 170.121C113.595 170.121 112.88 170.783 112.808 171.603L112.803 171.656H113.609L113.619 171.613C113.715 171.167 114.118 170.86 114.761 170.86C115.456 170.86 115.855 171.229 115.855 171.839V172.256L114.425 172.337C113.278 172.405 112.616 172.937 112.616 173.786V173.796C112.616 174.703 113.283 175.302 114.276 175.302ZM113.47 173.796V173.786C113.47 173.321 113.854 173.023 114.521 172.985L115.855 172.904V173.311C115.855 174.036 115.25 174.578 114.463 174.578C113.864 174.578 113.47 174.276 113.47 173.796ZM120.23 175.302C121.506 175.302 122.35 174.285 122.35 172.712V172.707C122.35 171.133 121.496 170.121 120.244 170.121C119.539 170.121 118.959 170.476 118.647 171.052H118.627V168.284H117.793V175.206H118.627V174.362H118.647C118.959 174.942 119.515 175.302 120.23 175.302ZM120.067 174.563C119.222 174.563 118.623 173.829 118.623 172.712V172.707C118.623 171.594 119.227 170.86 120.067 170.86C120.949 170.86 121.496 171.57 121.496 172.707V172.712C121.496 173.858 120.949 174.563 120.067 174.563ZM123.66 169.373C123.953 169.373 124.183 169.138 124.183 168.85C124.183 168.557 123.953 168.327 123.66 168.327C123.372 168.327 123.137 168.557 123.137 168.85C123.137 169.138 123.372 169.373 123.66 169.373ZM123.243 175.206H124.077V170.217H123.243V175.206Z" fill="#647382"/>
<path d="M59.1978 200.588H60.0037V195.238H60.0325L62.2441 200.588H62.9733L65.1849 195.238H65.2136V200.588H66.0196V193.665H65.0218L62.6231 199.499H62.5943L60.1956 193.665H59.1978V200.588ZM68.5478 200.683C69.2146 200.683 69.8143 200.324 70.107 199.777H70.1261V200.588H70.9609V197.138C70.9609 196.14 70.2221 195.502 69.0419 195.502C67.8666 195.502 67.1518 196.164 67.0798 196.985L67.075 197.037H67.881L67.8906 196.994C67.9865 196.548 68.3895 196.241 69.0323 196.241C69.728 196.241 70.1261 196.611 70.1261 197.22V197.637L68.6965 197.719C67.55 197.786 66.8879 198.318 66.8879 199.168V199.177C66.8879 200.084 67.5548 200.683 68.5478 200.683ZM67.7419 199.177V199.168C67.7419 198.702 68.1256 198.405 68.7925 198.366L70.1261 198.285V198.693C70.1261 199.417 69.5217 199.959 68.7349 199.959C68.1352 199.959 67.7419 199.657 67.7419 199.177ZM72.0211 200.588H72.8558V197.508C72.8558 196.75 73.278 196.299 73.9257 196.299C74.1271 196.299 74.3047 196.323 74.3718 196.347V195.536C74.3047 195.526 74.1799 195.502 74.036 195.502C73.4747 195.502 73.0429 195.867 72.875 196.443H72.8558V195.598H72.0211V200.588ZM76.8808 200.683C78.0082 200.683 78.8286 199.949 78.9629 199L78.9677 198.966H78.1473L78.1377 199.004C77.9986 199.561 77.5621 199.945 76.8808 199.945C76.0173 199.945 75.4224 199.259 75.4224 198.098V198.093C75.4224 196.961 76.0029 196.241 76.8712 196.241C77.6052 196.241 78.0082 196.682 78.1329 197.181L78.1425 197.22H78.9581L78.9533 197.181C78.8478 196.327 78.1138 195.502 76.8712 195.502C75.4848 195.502 74.5685 196.51 74.5685 198.083V198.088C74.5685 199.676 75.4656 200.683 76.8808 200.683ZM79.7784 200.588H80.6132V197.676C80.6132 196.826 81.1265 196.241 81.8989 196.241C82.6761 196.241 83.1366 196.774 83.1366 197.676V200.588H83.9713V197.532C83.9713 196.323 83.2469 195.502 82.1867 195.502C81.4431 195.502 80.901 195.833 80.6324 196.395H80.6132V193.665H79.7784V200.588ZM89.5027 193.55C88.0875 193.55 87.0512 194.538 87.0512 195.901V195.91C87.0512 197.225 88.0299 198.198 89.3492 198.198C90.2895 198.198 90.9995 197.7 91.2777 197.085H91.2969C91.2969 197.138 91.2969 197.186 91.2921 197.234C91.2537 198.688 90.7452 199.94 89.4547 199.94C88.7447 199.94 88.2506 199.585 88.0443 199.014L88.0251 198.961H87.1472L87.1616 199.024C87.3919 200.031 88.2698 200.703 89.4451 200.703C91.1386 200.703 92.1317 199.34 92.1317 197.009V196.999C92.1317 194.433 90.7788 193.55 89.5027 193.55ZM89.4979 197.44C88.5864 197.44 87.9292 196.793 87.9292 195.891V195.881C87.9292 195.008 88.6296 194.317 89.5123 194.317C90.3998 194.317 91.0906 195.023 91.0906 195.91V195.915C91.0906 196.798 90.4046 197.44 89.4979 197.44ZM94.7318 200.683C94.8949 200.683 95.0724 200.664 95.178 200.65V199.973C95.106 199.978 95.0101 199.993 94.9093 199.993C94.4632 199.993 94.2281 199.844 94.2281 199.311V196.289H95.178V195.598H94.2281V194.25H93.3646V195.598H92.6354V196.289H93.3646V199.316C93.3646 200.271 93.8155 200.683 94.7318 200.683ZM96.1183 200.588H96.953V197.676C96.953 196.826 97.4663 196.241 98.2387 196.241C99.0159 196.241 99.4764 196.774 99.4764 197.676V200.588H100.311V197.532C100.311 196.323 99.5868 195.502 98.5265 195.502C97.7829 195.502 97.2408 195.833 96.9722 196.395H96.953V193.665H96.1183V200.588ZM101.036 201.945H101.63L102.331 199.599H101.458L101.036 201.945ZM105.037 200.588H109.604V199.82H106.222V199.801L107.867 198.112C109.138 196.812 109.489 196.241 109.489 195.483V195.474C109.489 194.389 108.572 193.55 107.32 193.55C106.03 193.55 104.993 194.437 104.993 195.637V195.665H105.828V195.641C105.828 194.898 106.471 194.303 107.335 194.303C108.088 194.303 108.62 194.811 108.625 195.517V195.526C108.625 196.102 108.409 196.476 107.474 197.45L105.037 199.993V200.588ZM113.015 200.703C114.607 200.703 115.562 199.326 115.562 197.129V197.119C115.562 194.922 114.607 193.55 113.015 193.55C111.422 193.55 110.477 194.922 110.477 197.119V197.129C110.477 199.326 111.422 200.703 113.015 200.703ZM113.015 199.949C111.959 199.949 111.345 198.865 111.345 197.129V197.119C111.345 195.382 111.959 194.308 113.015 194.308C114.07 194.308 114.694 195.382 114.694 197.119V197.129C114.694 198.865 114.07 199.949 113.015 199.949ZM116.464 200.588H121.031V199.82H117.649V199.801L119.294 198.112C120.566 196.812 120.916 196.241 120.916 195.483V195.474C120.916 194.389 120 193.55 118.747 193.55C117.457 193.55 116.421 194.437 116.421 195.637V195.665H117.255V195.641C117.255 194.898 117.898 194.303 118.762 194.303C119.515 194.303 120.048 194.811 120.052 195.517V195.526C120.052 196.102 119.836 196.476 118.901 197.45L116.464 199.993V200.588ZM123.794 200.588H124.629V193.665H123.785L121.942 194.989V195.857L123.775 194.581H123.794V200.588Z" fill="#647382"/>
<path d="M58.996 252.988H64.1148V252.21H60.0946V252.191L64.0333 246.679V246.065H59.1303V246.842H62.9538V246.861L58.996 252.373V252.988ZM67.1036 253.083C68.4804 253.083 69.4111 252.086 69.4111 250.493V250.483C69.4111 248.891 68.4756 247.902 67.0988 247.902C65.7219 247.902 64.7912 248.895 64.7912 250.483V250.493C64.7912 252.081 65.7171 253.083 67.1036 253.083ZM67.1084 252.345C66.2256 252.345 65.6452 251.668 65.6452 250.493V250.483C65.6452 249.318 66.2304 248.641 67.0988 248.641C67.9815 248.641 68.5572 249.313 68.5572 250.483V250.493C68.5572 251.663 67.9863 252.345 67.1084 252.345ZM72.3231 253.083C73.6999 253.083 74.6306 252.086 74.6306 250.493V250.483C74.6306 248.891 73.6951 247.902 72.3183 247.902C70.9415 247.902 70.0108 248.895 70.0108 250.483V250.493C70.0108 252.081 70.9367 253.083 72.3231 253.083ZM72.3279 252.345C71.4452 252.345 70.8647 251.668 70.8647 250.493V250.483C70.8647 249.318 71.45 248.641 72.3183 248.641C73.201 248.641 73.7767 249.313 73.7767 250.483V250.493C73.7767 251.663 73.2058 252.345 72.3279 252.345ZM75.475 252.988H76.3097V249.86C76.3097 249.164 76.7894 248.641 77.4515 248.641C78.0703 248.641 78.4733 249.039 78.4733 249.644V252.988H79.3081V249.816C79.3081 249.135 79.7734 248.641 80.4354 248.641C81.0927 248.641 81.4717 249.049 81.4717 249.735V252.988H82.3064V249.543C82.3064 248.55 81.6684 247.902 80.6801 247.902C79.9797 247.902 79.3944 248.262 79.1162 248.862H79.097C78.8811 248.253 78.3774 247.902 77.6961 247.902C77.0533 247.902 76.5544 248.233 76.3289 248.727H76.3097V247.998H75.475V252.988ZM85.5158 252.988H86.3218V247.638H86.3506L88.5622 252.988H89.2914L91.503 247.638H91.5317V252.988H92.3377V246.065H91.3398L88.9412 251.899H88.9124L86.5137 246.065H85.5158V252.988ZM95.6047 253.083C96.6937 253.083 97.5093 252.431 97.6724 251.606L97.682 251.558H96.8616L96.8472 251.601C96.7033 252.028 96.2571 252.345 95.6239 252.345C94.7364 252.345 94.1703 251.745 94.1511 250.718H97.7443V250.411C97.7443 248.915 96.9144 247.902 95.5519 247.902C94.1895 247.902 93.3068 248.963 93.3068 250.507V250.512C93.3068 252.081 94.1703 253.083 95.6047 253.083ZM95.5471 248.641C96.2763 248.641 96.8136 249.097 96.8952 250.066H94.1655C94.2566 249.135 94.8227 248.641 95.5471 248.641ZM100.642 253.083C101.731 253.083 102.546 252.431 102.71 251.606L102.719 251.558H101.899L101.884 251.601C101.741 252.028 101.294 252.345 100.661 252.345C99.7736 252.345 99.2075 251.745 99.1883 250.718H102.782V250.411C102.782 248.915 101.952 247.902 100.589 247.902C99.2267 247.902 98.344 248.963 98.344 250.507V250.512C98.344 252.081 99.2075 253.083 100.642 253.083ZM100.584 248.641C101.314 248.641 101.851 249.097 101.932 250.066H99.2027C99.2939 249.135 99.86 248.641 100.584 248.641ZM105.247 253.083C105.411 253.083 105.588 253.064 105.694 253.05V252.373C105.622 252.378 105.526 252.393 105.425 252.393C104.979 252.393 104.744 252.244 104.744 251.711V248.689H105.694V247.998H104.744V246.65H103.88V247.998H103.151V248.689H103.88V251.716C103.88 252.671 104.331 253.083 105.247 253.083ZM107.061 247.154C107.353 247.154 107.584 246.919 107.584 246.631C107.584 246.338 107.353 246.108 107.061 246.108C106.773 246.108 106.538 246.338 106.538 246.631C106.538 246.919 106.773 247.154 107.061 247.154ZM106.643 252.988H107.478V247.998H106.643V252.988ZM108.615 252.988H109.45V250.052C109.45 249.202 109.963 248.641 110.75 248.641C111.518 248.641 111.897 249.087 111.897 249.898V252.988H112.731V249.749C112.731 248.612 112.098 247.902 111.004 247.902C110.246 247.902 109.738 248.243 109.469 248.708H109.45V247.998H108.615V252.988ZM115.907 254.763C117.26 254.763 118.109 254.005 118.109 252.848V247.998H117.274V248.843H117.255C116.948 248.286 116.392 247.902 115.686 247.902C114.42 247.902 113.552 248.91 113.552 250.459V250.464C113.552 252.023 114.41 253.036 115.667 253.036C116.382 253.036 116.958 252.681 117.255 252.129H117.274V252.767C117.274 253.539 116.775 254.024 115.898 254.024C115.216 254.024 114.741 253.803 114.583 253.443L114.564 253.4H113.724L113.734 253.443C113.897 254.182 114.674 254.763 115.907 254.763ZM115.85 252.297C114.962 252.297 114.406 251.596 114.406 250.464V250.459C114.406 249.351 114.962 248.641 115.85 248.641C116.694 248.641 117.274 249.361 117.274 250.459V250.464C117.274 251.572 116.699 252.297 115.85 252.297Z" fill="#647382"/>
<path fill-rule="evenodd" clip-rule="evenodd" d="M43.9288 252.05C43.9288 253.424 42.9925 254.395 41.4949 254.395H37.2085C35.7123 254.395 34.7822 253.424 34.7822 252.05V247.251C34.7822 245.878 35.7123 244.9 37.2161 244.9H41.4949C42.9925 244.9 43.9288 245.878 43.9288 247.251V252.05Z" stroke="#647382" stroke-width="1.22813" stroke-linecap="round" stroke-linejoin="round"/>
<path d="M43.9287 249.055L46.7535 246.742C47.2016 246.374 47.8822 246.694 47.8822 247.278V252.016C47.8822 252.601 47.2016 252.92 46.7535 252.552L43.9287 250.239" stroke="#647382" stroke-width="1.22813" stroke-linecap="round" stroke-linejoin="round"/>
<path d="M45.2622 203.963H36.0922C35.3687 203.963 34.7822 203.376 34.7822 202.653V193.483C34.7822 192.759 35.3687 192.173 36.0922 192.173H37.4022V190.863H38.7122V192.173H42.6422V190.863H43.9522V192.173H45.2622C45.9857 192.173 46.5722 192.759 46.5722 193.483V202.653C46.5722 203.376 45.9857 203.963 45.2622 203.963ZM36.0922 196.103V202.653H45.2622V196.103H36.0922ZM36.0922 193.483V194.793H45.2622V193.483H36.0922ZM43.9522 201.343H42.6422V200.033H43.9522V201.343ZM41.3322 201.343H40.0222V200.033H41.3322V201.343ZM38.7122 201.343H37.4022V200.033H38.7122V201.343ZM43.9522 198.723H42.6422V197.413H43.9522V198.723ZM41.3322 198.723H40.0222V197.413H41.3322V198.723ZM38.7122 198.723H37.4022V197.413H38.7122V198.723Z" fill="#647382"/>
<path d="M60.8528 226.787H61.6876V219.865H60.8432L59.0011 221.189V222.057L60.8337 220.781H60.8528V226.787ZM63.4434 226.787H68.0105V226.02H64.6284V226.001L66.2739 224.312C67.5452 223.012 67.8954 222.441 67.8954 221.683V221.673C67.8954 220.589 66.9791 219.75 65.727 219.75C64.4365 219.75 63.4002 220.637 63.4002 221.837V221.865H64.235V221.841C64.235 221.098 64.8778 220.503 65.7414 220.503C66.4945 220.503 67.0271 221.011 67.0318 221.717V221.726C67.0318 222.302 66.816 222.676 65.8805 223.65L63.4434 226.193V226.787ZM69.5025 222.014C69.8095 222.014 70.0494 221.774 70.0494 221.467C70.0494 221.16 69.8095 220.92 69.5025 220.92C69.1955 220.92 68.9556 221.16 68.9556 221.467C68.9556 221.774 69.1955 222.014 69.5025 222.014ZM69.5025 225.727C69.8095 225.727 70.0494 225.487 70.0494 225.18C70.0494 224.873 69.8095 224.633 69.5025 224.633C69.1955 224.633 68.9556 224.873 68.9556 225.18C68.9556 225.487 69.1955 225.727 69.5025 225.727ZM73.4507 226.903C74.8372 226.903 75.8542 226.049 75.8542 224.893V224.883C75.8542 223.899 75.1682 223.271 74.1607 223.185V223.165C75.0243 222.983 75.6287 222.398 75.6287 221.544V221.534C75.6287 220.484 74.7604 219.75 73.4411 219.75C72.1458 219.75 71.2535 220.503 71.1432 221.63L71.1384 221.678H71.9683L71.9731 221.63C72.0451 220.93 72.6256 220.498 73.4411 220.498C74.2855 220.498 74.7604 220.916 74.7604 221.64V221.649C74.7604 222.34 74.1847 222.849 73.3596 222.849H72.5296V223.578H73.398C74.367 223.578 74.9763 224.053 74.9763 224.902V224.912C74.9763 225.646 74.3574 226.154 73.4507 226.154C72.5296 226.154 71.906 225.684 71.834 225.003L71.8292 224.955H70.9993L71.0041 225.012C71.0952 226.106 72.0211 226.903 73.4507 226.903ZM79.3467 226.903C80.9394 226.903 81.8941 225.526 81.8941 223.329V223.319C81.8941 221.122 80.9394 219.75 79.3467 219.75C77.754 219.75 76.8089 221.122 76.8089 223.319V223.329C76.8089 225.526 77.754 226.903 79.3467 226.903ZM79.3467 226.149C78.2913 226.149 77.6772 225.065 77.6772 223.329V223.319C77.6772 221.582 78.2913 220.508 79.3467 220.508C80.4021 220.508 81.0258 221.582 81.0258 223.319V223.329C81.0258 225.065 80.4021 226.149 79.3467 226.149ZM85.0172 226.787H85.8807V224.317H87.483C88.7831 224.317 89.7042 223.401 89.7042 222.086V222.076C89.7042 220.762 88.7831 219.865 87.483 219.865H85.0172V226.787ZM87.2623 220.632C88.2506 220.632 88.8215 221.175 88.8215 222.086V222.096C88.8215 223.007 88.2506 223.549 87.2623 223.549H85.8807V220.632H87.2623ZM90.6972 226.787H91.5032V221.438H91.532L93.7436 226.787H94.4728L96.6844 221.438H96.7131V226.787H97.5191V219.865H96.5212L94.1226 225.698H94.0938L91.6951 219.865H90.6972V226.787ZM100.777 224.37H103.847V223.592H100.777V224.37ZM109.407 226.903C111 226.903 111.954 225.526 111.954 223.329V223.319C111.954 221.122 111 219.75 109.407 219.75C107.814 219.75 106.869 221.122 106.869 223.319V223.329C106.869 225.526 107.814 226.903 109.407 226.903ZM109.407 226.149C108.352 226.149 107.737 225.065 107.737 223.329V223.319C107.737 221.582 108.352 220.508 109.407 220.508C110.462 220.508 111.086 221.582 111.086 223.319V223.329C111.086 225.065 110.462 226.149 109.407 226.149ZM114.622 226.787H115.456V219.865H114.612L112.77 221.189V222.057L114.603 220.781H114.622V226.787ZM117.706 222.014C118.013 222.014 118.253 221.774 118.253 221.467C118.253 221.16 118.013 220.92 117.706 220.92C117.399 220.92 117.16 221.16 117.16 221.467C117.16 221.774 117.399 222.014 117.706 222.014ZM117.706 225.727C118.013 225.727 118.253 225.487 118.253 225.18C118.253 224.873 118.013 224.633 117.706 224.633C117.399 224.633 117.16 224.873 117.16 225.18C117.16 225.487 117.399 225.727 117.706 225.727ZM121.655 226.903C123.041 226.903 124.058 226.049 124.058 224.893V224.883C124.058 223.899 123.372 223.271 122.365 223.185V223.165C123.228 222.983 123.833 222.398 123.833 221.544V221.534C123.833 220.484 122.964 219.75 121.645 219.75C120.35 219.75 119.457 220.503 119.347 221.63L119.342 221.678H120.172L120.177 221.63C120.249 220.93 120.829 220.498 121.645 220.498C122.489 220.498 122.964 220.916 122.964 221.64V221.649C122.964 222.34 122.389 222.849 121.563 222.849H120.734V223.578H121.602C122.571 223.578 123.18 224.053 123.18 224.902V224.912C123.18 225.646 122.561 226.154 121.655 226.154C120.734 226.154 120.11 225.684 120.038 225.003L120.033 224.955H119.203L119.208 225.012C119.299 226.106 120.225 226.903 121.655 226.903ZM127.551 226.903C129.143 226.903 130.098 225.526 130.098 223.329V223.319C130.098 221.122 129.143 219.75 127.551 219.75C125.958 219.75 125.013 221.122 125.013 223.319V223.329C125.013 225.526 125.958 226.903 127.551 226.903ZM127.551 226.149C126.495 226.149 125.881 225.065 125.881 223.329V223.319C125.881 221.582 126.495 220.508 127.551 220.508C128.606 220.508 129.23 221.582 129.23 223.319V223.329C129.23 225.065 128.606 226.149 127.551 226.149ZM133.221 226.787H134.085V224.317H135.687C136.987 224.317 137.908 223.401 137.908 222.086V222.076C137.908 220.762 136.987 219.865 135.687 219.865H133.221V226.787ZM135.466 220.632C136.455 220.632 137.025 221.175 137.025 222.086V222.096C137.025 223.007 136.455 223.549 135.466 223.549H134.085V220.632H135.466ZM138.901 226.787H139.707V221.438H139.736L141.947 226.787H142.677L144.888 221.438H144.917V226.787H145.723V219.865H144.725L142.326 225.698H142.298L139.899 219.865H138.901V226.787Z" fill="#647382"/>
<path d="M40.5136 230.163C36.8962 230.163 33.9636 227.23 33.9636 223.613C33.9636 219.995 36.8962 217.062 40.5136 217.062C44.1311 217.062 47.0636 219.995 47.0636 223.613C47.0597 227.228 44.1294 230.159 40.5136 230.163ZM40.5136 218.373C37.6197 218.373 35.2736 220.719 35.2736 223.613C35.2736 226.506 37.6197 228.853 40.5136 228.853C43.4076 228.853 45.7536 226.506 45.7536 223.613C45.7504 220.72 43.4062 218.376 40.5136 218.373ZM43.7886 224.268H39.8586V220.338H41.1686V222.958H43.7886V224.268Z" fill="#647382"/>
<g filter="url(#filter3_d_3080_5235)">
<rect x="284" y="36" width="217.6" height="64" rx="8.10676" fill="white"/>
<rect x="284.405" y="36.4053" width="216.789" height="63.1893" rx="7.70143" stroke="#E8E8E8" stroke-opacity="0.4" stroke-width="0.810677"/>
</g>
<g opacity="0.5">
<path opacity="0.2" d="M488.8 68C488.8 72.412 485.211 76 480.8 76C476.389 76 472.8 72.412 472.8 68C472.8 63.5888 476.389 60 480.8 60C485.211 60 488.8 63.5888 488.8 68" fill="#272D33"/>
<path d="M484.177 66.8461C484.177 66.9989 484.118 67.1525 484.001 67.2693L481.225 70.0589C481.113 70.1717 480.96 70.2349 480.8 70.2349C480.641 70.2349 480.488 70.1717 480.375 70.0589L477.597 67.2693C477.364 67.0349 477.364 66.6557 477.599 66.4213C477.834 66.1877 478.214 66.1885 478.448 66.4229L480.8 68.7853L483.152 66.4229C483.385 66.1885 483.765 66.1877 484 66.4213C484.118 66.5381 484.177 66.6925 484.177 66.8461" fill="#272D33"/>
</g>
<path d="M350.487 82.8H353.558C356.276 82.8 357.872 81.109 357.872 78.2273V78.2147C357.872 75.3456 356.263 73.6609 353.558 73.6609H350.487V82.8ZM351.627 81.774V74.687H353.482C355.554 74.687 356.706 75.9473 356.706 78.2273V78.24C356.706 80.5074 355.554 81.774 353.482 81.774H351.627ZM361.83 82.9267C363.268 82.9267 364.344 82.0654 364.56 80.976L364.572 80.9127H363.489L363.47 80.9697C363.28 81.5334 362.691 81.9514 361.855 81.9514C360.684 81.9514 359.936 81.1597 359.911 79.8043H364.655V79.399C364.655 77.423 363.559 76.0866 361.76 76.0866C359.962 76.0866 358.796 77.4863 358.796 79.5257V79.532C358.796 81.603 359.936 82.9267 361.83 82.9267ZM361.754 77.062C362.717 77.062 363.426 77.6637 363.534 78.943H359.93C360.05 77.7143 360.798 77.062 361.754 77.062ZM368.106 82.9267C369.576 82.9267 370.665 82.116 370.665 80.9634V80.957C370.665 80.0197 370.184 79.494 368.854 79.171L367.809 78.9177C367.08 78.7403 366.783 78.43 366.783 77.9803V77.974C366.783 77.3913 367.277 77.005 368.075 77.005C368.892 77.005 369.379 77.4293 369.468 78.069L369.474 78.1133H370.526L370.519 78.031C370.437 76.929 369.519 76.0866 368.075 76.0866C366.65 76.0866 365.655 76.891 365.655 78.0247V78.031C365.655 78.981 366.257 79.5573 367.498 79.855L368.543 80.1083C369.291 80.292 369.538 80.558 369.538 81.033V81.0394C369.538 81.6347 369.006 82.0084 368.113 82.0084C367.213 82.0084 366.726 81.622 366.593 80.9634L366.58 80.9H365.478L365.484 80.957C365.617 82.135 366.555 82.9267 368.106 82.9267ZM372.432 75.0986C372.818 75.0986 373.122 74.7883 373.122 74.4083C373.122 74.0219 372.818 73.7179 372.432 73.7179C372.052 73.7179 371.742 74.0219 371.742 74.4083C371.742 74.7883 372.052 75.0986 372.432 75.0986ZM371.881 82.8H372.983V76.2133H371.881V82.8ZM377.271 85.1434C379.057 85.1434 380.178 84.1427 380.178 82.6164V76.2133H379.076V77.328H379.05C378.645 76.5933 377.91 76.0866 376.979 76.0866C375.307 76.0866 374.161 77.4167 374.161 79.4623V79.4687C374.161 81.527 375.295 82.8634 376.954 82.8634C377.898 82.8634 378.658 82.3947 379.05 81.6664H379.076V82.5087C379.076 83.5284 378.417 84.1681 377.258 84.1681C376.359 84.1681 375.732 83.8767 375.523 83.4017L375.497 83.3447H374.389L374.402 83.4017C374.617 84.3771 375.643 85.1434 377.271 85.1434ZM377.195 81.888C376.023 81.888 375.288 80.9634 375.288 79.4687V79.4623C375.288 77.9993 376.023 77.062 377.195 77.062C378.309 77.062 379.076 78.012 379.076 79.4623V79.4687C379.076 80.9317 378.316 81.888 377.195 81.888ZM381.603 82.8H382.705V78.924C382.705 77.803 383.383 77.062 384.421 77.062C385.435 77.062 385.935 77.651 385.935 78.7213V82.8H387.037V78.525C387.037 77.024 386.201 76.0866 384.757 76.0866C383.756 76.0866 383.085 76.5363 382.73 77.1506H382.705V76.2133H381.603V82.8ZM394.263 82.9521C396.353 82.9521 397.639 81.926 397.639 80.3047V80.2984C397.639 78.905 396.854 78.145 394.979 77.7333L393.966 77.5117C392.775 77.252 392.224 76.7833 392.224 76.036V76.0296C392.224 75.1493 393.022 74.5666 394.244 74.5603C395.403 74.5603 396.182 75.1113 396.322 76.0423L396.334 76.131H397.474L397.468 76.036C397.367 74.5413 396.062 73.5089 394.276 73.5089C392.395 73.5089 391.065 74.5603 391.059 76.0613V76.0676C391.059 77.404 391.895 78.2083 393.681 78.601L394.694 78.8227C395.948 79.1013 396.474 79.551 396.474 80.3554V80.3617C396.474 81.3054 395.644 81.9007 394.327 81.9007C393.003 81.9007 392.116 81.337 391.983 80.4187L391.971 80.33H390.831L390.837 80.4187C390.951 81.983 392.287 82.9521 394.263 82.9521ZM400.945 82.9267C401.16 82.9267 401.395 82.9014 401.534 82.8824V81.9894C401.439 81.9957 401.312 82.0147 401.179 82.0147C400.59 82.0147 400.28 81.8184 400.28 81.1154V77.1253H401.534V76.2133H400.28V74.4336H399.14V76.2133H398.177V77.1253H399.14V81.1217C399.14 82.382 399.735 82.9267 400.945 82.9267ZM402.718 82.8H403.82V78.734C403.82 77.7333 404.378 77.138 405.233 77.138C405.499 77.138 405.733 77.1696 405.822 77.2013V76.131C405.733 76.1183 405.568 76.0866 405.378 76.0866C404.637 76.0866 404.067 76.568 403.846 77.328H403.82V76.2133H402.718V82.8ZM408.52 82.9267C409.4 82.9267 410.192 82.4517 410.578 81.7297H410.604V82.8H411.706V78.2463C411.706 76.929 410.73 76.0866 409.172 76.0866C407.62 76.0866 406.677 76.9606 406.582 78.0437L406.575 78.1133H407.639L407.652 78.0563C407.779 77.4673 408.311 77.062 409.159 77.062C410.078 77.062 410.604 77.5497 410.604 78.354V78.905L408.716 79.0127C407.202 79.1013 406.328 79.8043 406.328 80.9254V80.938C406.328 82.135 407.209 82.9267 408.52 82.9267ZM407.456 80.938V80.9254C407.456 80.311 407.962 79.9183 408.843 79.8677L410.604 79.76V80.2984C410.604 81.2547 409.805 81.9704 408.767 81.9704C407.975 81.9704 407.456 81.5714 407.456 80.938ZM415.246 82.9267C415.461 82.9267 415.696 82.9014 415.835 82.8824V81.9894C415.74 81.9957 415.613 82.0147 415.48 82.0147C414.891 82.0147 414.581 81.8184 414.581 81.1154V77.1253H415.835V76.2133H414.581V74.4336H413.441V76.2133H412.478V77.1253H413.441V81.1217C413.441 82.382 414.036 82.9267 415.246 82.9267ZM419.54 82.9267C420.978 82.9267 422.054 82.0654 422.27 80.976L422.282 80.9127H421.199L421.18 80.9697C420.99 81.5334 420.401 81.9514 419.565 81.9514C418.394 81.9514 417.646 81.1597 417.621 79.8043H422.365V79.399C422.365 77.423 421.269 76.0866 419.47 76.0866C417.672 76.0866 416.506 77.4863 416.506 79.5257V79.532C416.506 81.603 417.646 82.9267 419.54 82.9267ZM419.464 77.062C420.427 77.062 421.136 77.6637 421.244 78.943H417.64C417.76 77.7143 418.508 77.062 419.464 77.062ZM426.266 85.1434C428.052 85.1434 429.173 84.1427 429.173 82.6164V76.2133H428.071V77.328H428.046C427.64 76.5933 426.906 76.0866 425.975 76.0866C424.303 76.0866 423.156 77.4167 423.156 79.4623V79.4687C423.156 81.527 424.29 82.8634 425.949 82.8634C426.893 82.8634 427.653 82.3947 428.046 81.6664H428.071V82.5087C428.071 83.5284 427.412 84.1681 426.253 84.1681C425.354 84.1681 424.727 83.8767 424.518 83.4017L424.493 83.3447H423.384L423.397 83.4017C423.612 84.3771 424.638 85.1434 426.266 85.1434ZM426.19 81.888C425.018 81.888 424.284 80.9634 424.284 79.4687V79.4623C424.284 77.9993 425.018 77.062 426.19 77.062C427.305 77.062 428.071 78.012 428.071 79.4623V79.4687C428.071 80.9317 427.311 81.888 426.19 81.888ZM431.231 85.0167C432.422 85.0167 432.998 84.4721 433.467 83.2117L436.038 76.2133H434.879L433.055 81.698H433.03L431.212 76.2133H430.034L432.479 82.8064L432.346 83.1801C432.08 83.9274 431.694 84.1047 430.997 84.1047C430.864 84.1047 430.737 84.0857 430.642 84.0667V84.9661C430.782 84.9914 431.016 85.0167 431.231 85.0167Z" fill="#272D33"/>
<path d="M350.265 61H354.426V60.2305H351.12V54.1457H350.265V61ZM355.704 55.2239C355.994 55.2239 356.222 54.9912 356.222 54.7062C356.222 54.4164 355.994 54.1884 355.704 54.1884C355.419 54.1884 355.186 54.4164 355.186 54.7062C355.186 54.9912 355.419 55.2239 355.704 55.2239ZM355.291 61H356.117V56.0599H355.291V61ZM358.635 61H359.48L361.295 56.0599H360.435L359.067 60.1212H359.048L357.685 56.0599H356.815L358.635 61ZM363.789 61.095C364.867 61.095 365.674 60.449 365.836 59.632L365.845 59.5845H365.033L365.019 59.6272C364.876 60.05 364.435 60.3635 363.808 60.3635C362.929 60.3635 362.368 59.7697 362.349 58.7532H365.907V58.4492C365.907 56.9672 365.085 55.9649 363.736 55.9649C362.387 55.9649 361.513 57.0147 361.513 58.5442V58.549C361.513 60.1022 362.368 61.095 363.789 61.095ZM363.732 56.6964C364.454 56.6964 364.986 57.1477 365.066 58.1072H362.364C362.454 57.1857 363.014 56.6964 363.732 56.6964ZM371.731 61.114C373.165 61.114 374.262 60.2637 374.524 58.9527L374.533 58.9052H373.669L373.654 58.948C373.355 59.8505 372.69 60.3255 371.731 60.3255C370.367 60.3255 369.479 59.2377 369.479 57.5705V57.5657C369.479 55.8984 370.363 54.8202 371.731 54.8202C372.695 54.8202 373.369 55.3047 373.635 56.1359L373.669 56.2404H374.533L374.524 56.1929C374.262 54.8962 373.156 54.0317 371.731 54.0317C369.821 54.0317 368.6 55.4092 368.6 57.5657V57.5705C368.6 59.727 369.826 61.114 371.731 61.114ZM375.459 61H376.286V54.1457H375.459V61ZM378.846 61.095C379.506 61.095 380.1 60.7387 380.39 60.1972H380.409V61H381.235V57.5847C381.235 56.5967 380.504 55.9649 379.335 55.9649C378.172 55.9649 377.464 56.6204 377.393 57.4327L377.388 57.485H378.186L378.195 57.4422C378.29 57.0005 378.689 56.6964 379.326 56.6964C380.015 56.6964 380.409 57.0622 380.409 57.6655V58.0787L378.993 58.1595C377.858 58.226 377.203 58.7532 377.203 59.594V59.6035C377.203 60.5012 377.863 61.095 378.846 61.095ZM378.048 59.6035V59.594C378.048 59.1332 378.428 58.8387 379.088 58.8007L380.409 58.72V59.1237C380.409 59.841 379.81 60.3777 379.031 60.3777C378.438 60.3777 378.048 60.0785 378.048 59.6035ZM384.038 61.095C385.14 61.095 385.957 60.487 385.957 59.6225V59.6177C385.957 58.9147 385.596 58.5205 384.599 58.2782L383.815 58.0882C383.269 57.9552 383.045 57.7225 383.045 57.3852V57.3805C383.045 56.9435 383.416 56.6537 384.014 56.6537C384.627 56.6537 384.993 56.972 385.059 57.4517L385.064 57.485H385.853L385.848 57.4232C385.786 56.5967 385.097 55.9649 384.014 55.9649C382.946 55.9649 382.2 56.5682 382.2 57.4185V57.4232C382.2 58.1357 382.651 58.568 383.582 58.7912L384.366 58.9812C384.926 59.119 385.112 59.3185 385.112 59.6747V59.6795C385.112 60.126 384.713 60.4062 384.043 60.4062C383.368 60.4062 383.003 60.1165 382.903 59.6225L382.893 59.575H382.067L382.071 59.6177C382.171 60.5012 382.874 61.095 384.038 61.095ZM388.57 61.095C389.672 61.095 390.489 60.487 390.489 59.6225V59.6177C390.489 58.9147 390.128 58.5205 389.13 58.2782L388.346 58.0882C387.8 57.9552 387.577 57.7225 387.577 57.3852V57.3805C387.577 56.9435 387.947 56.6537 388.546 56.6537C389.159 56.6537 389.524 56.972 389.591 57.4517L389.596 57.485H390.384L390.379 57.4232C390.318 56.5967 389.629 55.9649 388.546 55.9649C387.477 55.9649 386.731 56.5682 386.731 57.4185V57.4232C386.731 58.1357 387.183 58.568 388.114 58.7912L388.897 58.9812C389.458 59.119 389.643 59.3185 389.643 59.6747V59.6795C389.643 60.126 389.244 60.4062 388.574 60.4062C387.9 60.4062 387.534 60.1165 387.434 59.6225L387.425 59.575H386.598L386.603 59.6177C386.703 60.5012 387.406 61.095 388.57 61.095Z" fill="#647382"/>
<rect opacity="0.1" x="296.8" y="47.2" width="41.6" height="41.6" rx="6.48541" fill="#EC0B43"/>
<path opacity="0.4" d="M322.07 57.3333H313.131C309.888 57.3333 308 59.2319 308 62.4853V73.5039C308 76.8106 309.888 78.6666 313.131 78.6666H322.07C325.365 78.6666 327.2 76.8106 327.2 73.5039V62.4853C327.2 59.2319 325.365 57.3333 322.07 57.3333Z" fill="#EC0B43"/>
<path fill-rule="evenodd" clip-rule="evenodd" d="M313.419 62.2932V62.3039C312.959 62.3039 312.587 62.6772 312.587 63.1359C312.587 63.5945 312.959 63.9679 313.419 63.9679H316.607C317.067 63.9679 317.44 63.5945 317.44 63.1241C317.44 62.6665 317.067 62.2932 316.607 62.2932H313.419ZM321.781 68.7892H313.419C312.959 68.7892 312.587 68.4159 312.587 67.9572C312.587 67.4985 312.959 67.1241 313.419 67.1241H321.781C322.24 67.1241 322.613 67.4985 322.613 67.9572C322.613 68.4159 322.24 68.7892 321.781 68.7892ZM321.781 73.6639H313.419C313.099 73.7065 312.789 73.5465 312.619 73.2799C312.448 73.0025 312.448 72.6505 312.619 72.3839C312.789 72.1065 313.099 71.9572 313.419 71.9892H321.781C322.207 72.0319 322.528 72.3945 322.528 72.8319C322.528 73.2575 322.207 73.6212 321.781 73.6639Z" fill="#EC0B43"/>
<g filter="url(#filter4_d_3080_5235)">
<rect x="284" y="194" width="217.6" height="64" rx="8.10676" fill="white"/>
<rect x="284.405" y="194.405" width="216.789" height="63.1893" rx="7.70143" stroke="#E8E8E8" stroke-opacity="0.4" stroke-width="0.810677"/>
</g>
<g opacity="0.5">
<path opacity="0.2" d="M488.8 226C488.8 230.412 485.211 234 480.8 234C476.389 234 472.8 230.412 472.8 226C472.8 221.589 476.389 218 480.8 218C485.211 218 488.8 221.589 488.8 226" fill="#272D33"/>
<path d="M484.177 224.846C484.177 224.999 484.118 225.152 484.001 225.269L481.225 228.059C481.113 228.172 480.96 228.235 480.8 228.235C480.641 228.235 480.488 228.172 480.375 228.059L477.597 225.269C477.364 225.035 477.364 224.656 477.599 224.421C477.834 224.188 478.214 224.188 478.448 224.423L480.8 226.785L483.152 224.423C483.385 224.188 483.765 224.188 484 224.421C484.118 224.538 484.177 224.692 484.177 224.846" fill="#272D33"/>
</g>
<path d="M350.487 240.8H353.938C355.883 240.8 357.036 239.844 357.036 238.235V238.222C357.036 237.013 356.238 236.126 354.92 235.974V235.949C355.864 235.816 356.573 234.897 356.573 233.954V233.941C356.573 232.573 355.516 231.661 353.951 231.661H350.487V240.8ZM353.691 232.668C354.793 232.668 355.421 233.162 355.421 234.061V234.074C355.421 235.062 354.686 235.6 353.337 235.6H351.627V232.668H353.691ZM353.66 236.582C355.116 236.582 355.864 237.12 355.864 238.178V238.191C355.864 239.242 355.135 239.793 353.767 239.793H351.627V236.582H353.66ZM360.405 240.927C361.406 240.927 362.077 240.477 362.432 239.863H362.457V240.8H363.559V234.213H362.457V238.089C362.457 239.21 361.779 239.951 360.741 239.951C359.727 239.951 359.227 239.362 359.227 238.292V234.213H358.125V238.488C358.125 239.989 358.961 240.927 360.405 240.927ZM367.334 240.927C368.803 240.927 369.892 240.116 369.892 238.963V238.957C369.892 238.02 369.411 237.494 368.081 237.171L367.036 236.918C366.308 236.74 366.01 236.43 366.01 235.98V235.974C366.01 235.391 366.504 235.005 367.302 235.005C368.119 235.005 368.607 235.429 368.695 236.069L368.702 236.113H369.753L369.747 236.031C369.664 234.929 368.746 234.087 367.302 234.087C365.877 234.087 364.883 234.891 364.883 236.025V236.031C364.883 236.981 365.484 237.557 366.726 237.855L367.771 238.108C368.518 238.292 368.765 238.558 368.765 239.033V239.039C368.765 239.635 368.233 240.008 367.34 240.008C366.441 240.008 365.953 239.622 365.82 238.963L365.807 238.9H364.705L364.712 238.957C364.845 240.135 365.782 240.927 367.334 240.927ZM371.659 233.099C372.046 233.099 372.35 232.788 372.35 232.408C372.35 232.022 372.046 231.718 371.659 231.718C371.279 231.718 370.969 232.022 370.969 232.408C370.969 232.788 371.279 233.099 371.659 233.099ZM371.108 240.8H372.21V234.213H371.108V240.8ZM373.711 240.8H374.813V236.924C374.813 235.803 375.491 235.062 376.53 235.062C377.543 235.062 378.043 235.651 378.043 236.721V240.8H379.145V236.525C379.145 235.024 378.309 234.087 376.865 234.087C375.865 234.087 375.193 234.536 374.839 235.151H374.813V234.213H373.711V240.8ZM383.262 240.927C384.7 240.927 385.777 240.065 385.992 238.976L386.005 238.913H384.922L384.903 238.97C384.713 239.533 384.124 239.951 383.288 239.951C382.116 239.951 381.368 239.16 381.343 237.804H386.087V237.399C386.087 235.423 384.991 234.087 383.193 234.087C381.394 234.087 380.228 235.486 380.228 237.526V237.532C380.228 239.603 381.368 240.927 383.262 240.927ZM383.186 235.062C384.149 235.062 384.858 235.664 384.966 236.943H381.362C381.482 235.714 382.23 235.062 383.186 235.062ZM389.539 240.927C391.008 240.927 392.097 240.116 392.097 238.963V238.957C392.097 238.02 391.616 237.494 390.286 237.171L389.241 236.918C388.513 236.74 388.215 236.43 388.215 235.98V235.974C388.215 235.391 388.709 235.005 389.507 235.005C390.324 235.005 390.812 235.429 390.9 236.069L390.907 236.113H391.958L391.952 236.031C391.869 234.929 390.951 234.087 389.507 234.087C388.082 234.087 387.088 234.891 387.088 236.025V236.031C387.088 236.981 387.689 237.557 388.931 237.855L389.976 238.108C390.723 238.292 390.97 238.558 390.97 239.033V239.039C390.97 239.635 390.438 240.008 389.545 240.008C388.646 240.008 388.158 239.622 388.025 238.963L388.012 238.9H386.91L386.917 238.957C387.05 240.135 387.987 240.927 389.539 240.927ZM395.581 240.927C397.05 240.927 398.139 240.116 398.139 238.963V238.957C398.139 238.02 397.658 237.494 396.328 237.171L395.283 236.918C394.555 236.74 394.257 236.43 394.257 235.98V235.974C394.257 235.391 394.751 235.005 395.549 235.005C396.366 235.005 396.854 235.429 396.942 236.069L396.949 236.113H398L397.994 236.031C397.911 234.929 396.993 234.087 395.549 234.087C394.124 234.087 393.13 234.891 393.13 236.025V236.031C393.13 236.981 393.731 237.557 394.973 237.855L396.018 238.108C396.765 238.292 397.012 238.558 397.012 239.033V239.039C397.012 239.635 396.48 240.008 395.587 240.008C394.688 240.008 394.2 239.622 394.067 238.963L394.054 238.9H392.952L392.959 238.957C393.092 240.135 394.029 240.927 395.581 240.927ZM405.936 240.952C407.848 240.952 409.311 239.818 409.66 238.07L409.672 238.007H408.52L408.501 238.064C408.102 239.267 407.215 239.901 405.936 239.901C404.118 239.901 402.934 238.45 402.934 236.227V236.221C402.934 233.998 404.112 232.56 405.936 232.56C407.221 232.56 408.121 233.206 408.475 234.315L408.52 234.454H409.672L409.66 234.391C409.311 232.662 407.836 231.509 405.936 231.509C403.39 231.509 401.762 233.346 401.762 236.221V236.227C401.762 239.103 403.396 240.952 405.936 240.952ZM410.908 240.8H412.01V231.661H410.908V240.8ZM415.423 240.927C416.304 240.927 417.095 240.452 417.482 239.73H417.507V240.8H418.609V236.246C418.609 234.929 417.634 234.087 416.076 234.087C414.524 234.087 413.58 234.961 413.485 236.044L413.479 236.113H414.543L414.556 236.056C414.682 235.467 415.214 235.062 416.063 235.062C416.981 235.062 417.507 235.55 417.507 236.354V236.905L415.62 237.013C414.106 237.101 413.232 237.804 413.232 238.925V238.938C413.232 240.135 414.112 240.927 415.423 240.927ZM414.359 238.938V238.925C414.359 238.311 414.866 237.918 415.746 237.868L417.507 237.76V238.298C417.507 239.255 416.709 239.97 415.67 239.97C414.879 239.97 414.359 239.571 414.359 238.938ZM422.346 240.927C423.815 240.927 424.904 240.116 424.904 238.963V238.957C424.904 238.02 424.423 237.494 423.093 237.171L422.048 236.918C421.32 236.74 421.022 236.43 421.022 235.98V235.974C421.022 235.391 421.516 235.005 422.314 235.005C423.131 235.005 423.619 235.429 423.707 236.069L423.714 236.113H424.765L424.759 236.031C424.676 234.929 423.758 234.087 422.314 234.087C420.889 234.087 419.895 234.891 419.895 236.025V236.031C419.895 236.981 420.496 237.557 421.738 237.855L422.783 238.108C423.53 238.292 423.777 238.558 423.777 239.033V239.039C423.777 239.635 423.245 240.008 422.352 240.008C421.453 240.008 420.965 239.622 420.832 238.963L420.819 238.9H419.717L419.724 238.957C419.857 240.135 420.794 240.927 422.346 240.927ZM428.388 240.927C429.857 240.927 430.946 240.116 430.946 238.963V238.957C430.946 238.02 430.465 237.494 429.135 237.171L428.09 236.918C427.362 236.74 427.064 236.43 427.064 235.98V235.974C427.064 235.391 427.558 235.005 428.356 235.005C429.173 235.005 429.661 235.429 429.749 236.069L429.756 236.113H430.807L430.801 236.031C430.718 234.929 429.8 234.087 428.356 234.087C426.931 234.087 425.937 234.891 425.937 236.025V236.031C425.937 236.981 426.538 237.557 427.78 237.855L428.825 238.108C429.572 238.292 429.819 238.558 429.819 239.033V239.039C429.819 239.635 429.287 240.008 428.394 240.008C427.495 240.008 427.007 239.622 426.874 238.963L426.861 238.9H425.759L425.766 238.957C425.899 240.135 426.836 240.927 428.388 240.927Z" fill="#272D33"/>
<path d="M350.265 219H354.426V218.231H351.12V212.146H350.265V219ZM355.704 213.224C355.994 213.224 356.222 212.991 356.222 212.706C356.222 212.417 355.994 212.189 355.704 212.189C355.419 212.189 355.186 212.417 355.186 212.706C355.186 212.991 355.419 213.224 355.704 213.224ZM355.291 219H356.117V214.06H355.291V219ZM358.635 219H359.48L361.295 214.06H360.435L359.067 218.121H359.048L357.685 214.06H356.815L358.635 219ZM363.789 219.095C364.867 219.095 365.674 218.449 365.836 217.632L365.845 217.585H365.033L365.019 217.627C364.876 218.05 364.435 218.364 363.808 218.364C362.929 218.364 362.368 217.77 362.349 216.753H365.907V216.449C365.907 214.967 365.085 213.965 363.736 213.965C362.387 213.965 361.513 215.015 361.513 216.544V216.549C361.513 218.102 362.368 219.095 363.789 219.095ZM363.732 214.697C364.454 214.697 364.986 215.148 365.066 216.107H362.364C362.454 215.186 363.014 214.697 363.732 214.697ZM371.731 219.114C373.165 219.114 374.262 218.264 374.524 216.953L374.533 216.905H373.669L373.654 216.948C373.355 217.851 372.69 218.326 371.731 218.326C370.367 218.326 369.479 217.238 369.479 215.571V215.566C369.479 213.899 370.363 212.82 371.731 212.82C372.695 212.82 373.369 213.305 373.635 214.136L373.669 214.241H374.533L374.524 214.193C374.262 212.896 373.156 212.032 371.731 212.032C369.821 212.032 368.6 213.409 368.6 215.566V215.571C368.6 217.727 369.826 219.114 371.731 219.114ZM375.459 219H376.286V212.146H375.459V219ZM378.846 219.095C379.506 219.095 380.1 218.739 380.39 218.197H380.409V219H381.235V215.585C381.235 214.597 380.504 213.965 379.335 213.965C378.172 213.965 377.464 214.621 377.393 215.433L377.388 215.485H378.186L378.195 215.442C378.29 215.001 378.689 214.697 379.326 214.697C380.015 214.697 380.409 215.062 380.409 215.666V216.079L378.993 216.16C377.858 216.226 377.203 216.753 377.203 217.594V217.604C377.203 218.501 377.863 219.095 378.846 219.095ZM378.048 217.604V217.594C378.048 217.133 378.428 216.839 379.088 216.801L380.409 216.72V217.124C380.409 217.841 379.81 218.378 379.031 218.378C378.438 218.378 378.048 218.079 378.048 217.604ZM384.038 219.095C385.14 219.095 385.957 218.487 385.957 217.623V217.618C385.957 216.915 385.596 216.521 384.599 216.278L383.815 216.088C383.269 215.955 383.045 215.723 383.045 215.385V215.381C383.045 214.944 383.416 214.654 384.014 214.654C384.627 214.654 384.993 214.972 385.059 215.452L385.064 215.485H385.853L385.848 215.423C385.786 214.597 385.097 213.965 384.014 213.965C382.946 213.965 382.2 214.568 382.2 215.419V215.423C382.2 216.136 382.651 216.568 383.582 216.791L384.366 216.981C384.926 217.119 385.112 217.319 385.112 217.675V217.68C385.112 218.126 384.713 218.406 384.043 218.406C383.368 218.406 383.003 218.117 382.903 217.623L382.893 217.575H382.067L382.071 217.618C382.171 218.501 382.874 219.095 384.038 219.095ZM388.57 219.095C389.672 219.095 390.489 218.487 390.489 217.623V217.618C390.489 216.915 390.128 216.521 389.13 216.278L388.346 216.088C387.8 215.955 387.577 215.723 387.577 215.385V215.381C387.577 214.944 387.947 214.654 388.546 214.654C389.159 214.654 389.524 214.972 389.591 215.452L389.596 215.485H390.384L390.379 215.423C390.318 214.597 389.629 213.965 388.546 213.965C387.477 213.965 386.731 214.568 386.731 215.419V215.423C386.731 216.136 387.183 216.568 388.114 216.791L388.897 216.981C389.458 217.119 389.643 217.319 389.643 217.675V217.68C389.643 218.126 389.244 218.406 388.574 218.406C387.9 218.406 387.534 218.117 387.434 217.623L387.425 217.575H386.598L386.603 217.618C386.703 218.501 387.406 219.095 388.57 219.095Z" fill="#647382"/>
<rect opacity="0.1" x="296.8" y="205.2" width="41.6" height="41.6" rx="6.48541" fill="#5C4FFF"/>
<path opacity="0.4" d="M322.07 215.333H313.131C309.888 215.333 308 217.232 308 220.485V231.504C308 234.811 309.888 236.667 313.131 236.667H322.07C325.365 236.667 327.2 234.811 327.2 231.504V220.485C327.2 217.232 325.365 215.333 322.07 215.333Z" fill="#5C4FFF"/>
<path fill-rule="evenodd" clip-rule="evenodd" d="M313.419 220.293V220.304C312.959 220.304 312.587 220.677 312.587 221.136C312.587 221.595 312.959 221.968 313.419 221.968H316.607C317.067 221.968 317.44 221.595 317.44 221.124C317.44 220.667 317.067 220.293 316.607 220.293H313.419ZM321.781 226.789H313.419C312.959 226.789 312.587 226.416 312.587 225.957C312.587 225.499 312.959 225.124 313.419 225.124H321.781C322.24 225.124 322.613 225.499 322.613 225.957C322.613 226.416 322.24 226.789 321.781 226.789ZM321.781 231.664H313.419C313.099 231.707 312.789 231.547 312.619 231.28C312.448 231.003 312.448 230.651 312.619 230.384C312.789 230.107 313.099 229.957 313.419 229.989H321.781C322.207 230.032 322.528 230.395 322.528 230.832C322.528 231.258 322.207 231.621 321.781 231.664Z" fill="#5C4FFF"/>
<g filter="url(#filter5_d_3080_5235)">
<rect x="284" y="114" width="217.6" height="64" rx="8.10676" fill="white"/>
<rect x="284.405" y="114.405" width="216.789" height="63.1893" rx="7.70143" stroke="#E8E8E8" stroke-opacity="0.4" stroke-width="0.810677"/>
</g>
<g opacity="0.5">
<path opacity="0.2" d="M488.8 146C488.8 150.412 485.211 154 480.8 154C476.389 154 472.8 150.412 472.8 146C472.8 141.589 476.389 138 480.8 138C485.211 138 488.8 141.589 488.8 146" fill="#272D33"/>
<path d="M484.177 144.846C484.177 144.999 484.118 145.152 484.002 145.269L481.226 148.059C481.113 148.172 480.96 148.235 480.8 148.235C480.641 148.235 480.488 148.172 480.375 148.059L477.598 145.269C477.364 145.035 477.364 144.656 477.599 144.421C477.834 144.188 478.214 144.188 478.448 144.423L480.8 146.785L483.152 144.423C483.386 144.188 483.765 144.188 484 144.421C484.118 144.538 484.177 144.692 484.177 144.846" fill="#272D33"/>
</g>
<path d="M350.487 160.8H351.551V153.738H351.589L354.508 160.8H355.471L358.391 153.738H358.429V160.8H359.493V151.661H358.176L355.009 159.362H354.971L351.804 151.661H350.487V160.8ZM362.831 160.927C363.711 160.927 364.503 160.452 364.889 159.73H364.914V160.8H366.016V156.246C366.016 154.929 365.041 154.087 363.483 154.087C361.931 154.087 360.988 154.961 360.893 156.044L360.886 156.113H361.95L361.963 156.056C362.09 155.467 362.622 155.062 363.47 155.062C364.389 155.062 364.914 155.55 364.914 156.354V156.905L363.027 157.013C361.513 157.101 360.639 157.804 360.639 158.925V158.938C360.639 160.135 361.52 160.927 362.831 160.927ZM361.767 158.938V158.925C361.767 158.311 362.273 157.918 363.154 157.868L364.914 157.76V158.298C364.914 159.255 364.116 159.97 363.078 159.97C362.286 159.97 361.767 159.571 361.767 158.938ZM367.416 160.8H368.518V156.734C368.518 155.733 369.075 155.138 369.93 155.138C370.196 155.138 370.431 155.17 370.519 155.201V154.131C370.431 154.118 370.266 154.087 370.076 154.087C369.335 154.087 368.765 154.568 368.543 155.328H368.518V154.213H367.416V160.8ZM371.507 160.8H372.609V158.317L373.224 157.728L375.668 160.8H376.948L374.003 157.057L376.859 154.213H375.523L372.635 157.12H372.609V151.661H371.507V160.8ZM380.108 160.927C381.546 160.927 382.622 160.065 382.838 158.976L382.851 158.913H381.767L381.748 158.97C381.558 159.533 380.969 159.951 380.133 159.951C378.962 159.951 378.214 159.16 378.189 157.804H382.933V157.399C382.933 155.423 381.837 154.087 380.038 154.087C378.24 154.087 377.074 155.486 377.074 157.526V157.532C377.074 159.603 378.214 160.927 380.108 160.927ZM380.032 155.062C380.995 155.062 381.704 155.664 381.812 156.943H378.208C378.328 155.714 379.076 155.062 380.032 155.062ZM386.188 160.927C386.404 160.927 386.638 160.901 386.777 160.882V159.989C386.682 159.996 386.556 160.015 386.423 160.015C385.834 160.015 385.523 159.818 385.523 159.115V155.125H386.777V154.213H385.523V152.434H384.383V154.213H383.421V155.125H384.383V159.122C384.383 160.382 384.979 160.927 386.188 160.927ZM388.582 153.099C388.969 153.099 389.273 152.788 389.273 152.408C389.273 152.022 388.969 151.718 388.582 151.718C388.202 151.718 387.892 152.022 387.892 152.408C387.892 152.788 388.202 153.099 388.582 153.099ZM388.031 160.8H389.133V154.213H388.031V160.8ZM390.634 160.8H391.736V156.924C391.736 155.803 392.414 155.062 393.453 155.062C394.466 155.062 394.966 155.651 394.966 156.721V160.8H396.068V156.525C396.068 155.024 395.232 154.087 393.788 154.087C392.788 154.087 392.116 154.536 391.762 155.151H391.736V154.213H390.634V160.8ZM400.261 163.143C402.047 163.143 403.168 162.143 403.168 160.616V154.213H402.066V155.328H402.041C401.635 154.593 400.901 154.087 399.97 154.087C398.298 154.087 397.151 155.417 397.151 157.462V157.469C397.151 159.527 398.285 160.863 399.944 160.863C400.888 160.863 401.648 160.395 402.041 159.666H402.066V160.509C402.066 161.528 401.407 162.168 400.248 162.168C399.349 162.168 398.722 161.877 398.513 161.402L398.488 161.345H397.379L397.392 161.402C397.607 162.377 398.633 163.143 400.261 163.143ZM400.185 159.888C399.013 159.888 398.279 158.963 398.279 157.469V157.462C398.279 155.999 399.013 155.062 400.185 155.062C401.3 155.062 402.066 156.012 402.066 157.462V157.469C402.066 158.932 401.306 159.888 400.185 159.888ZM411.243 160.952C413.156 160.952 414.619 159.818 414.967 158.07L414.98 158.007H413.827L413.808 158.064C413.409 159.267 412.523 159.901 411.243 159.901C409.425 159.901 408.241 158.45 408.241 156.227V156.221C408.241 153.998 409.419 152.56 411.243 152.56C412.529 152.56 413.428 153.206 413.783 154.315L413.827 154.454H414.98L414.967 154.391C414.619 152.662 413.143 151.509 411.243 151.509C408.697 151.509 407.069 153.346 407.069 156.221V156.227C407.069 159.103 408.703 160.952 411.243 160.952ZM416.215 160.8H417.317V151.661H416.215V160.8ZM420.731 160.927C421.611 160.927 422.403 160.452 422.789 159.73H422.814V160.8H423.916V156.246C423.916 154.929 422.941 154.087 421.383 154.087C419.831 154.087 418.888 154.961 418.793 156.044L418.786 156.113H419.85L419.863 156.056C419.99 155.467 420.522 155.062 421.37 155.062C422.289 155.062 422.814 155.55 422.814 156.354V156.905L420.927 157.013C419.413 157.101 418.539 157.804 418.539 158.925V158.938C418.539 160.135 419.42 160.927 420.731 160.927ZM419.667 158.938V158.925C419.667 158.311 420.173 157.918 421.054 157.868L422.814 157.76V158.298C422.814 159.255 422.016 159.97 420.978 159.97C420.186 159.97 419.667 159.571 419.667 158.938ZM427.653 160.927C429.122 160.927 430.212 160.116 430.212 158.963V158.957C430.212 158.02 429.73 157.494 428.4 157.171L427.355 156.918C426.627 156.74 426.329 156.43 426.329 155.98V155.974C426.329 155.391 426.823 155.005 427.621 155.005C428.438 155.005 428.926 155.429 429.015 156.069L429.021 156.113H430.072L430.066 156.031C429.984 154.929 429.065 154.087 427.621 154.087C426.196 154.087 425.202 154.891 425.202 156.025V156.031C425.202 156.981 425.804 157.557 427.045 157.855L428.09 158.108C428.837 158.292 429.084 158.558 429.084 159.033V159.039C429.084 159.635 428.552 160.008 427.659 160.008C426.76 160.008 426.272 159.622 426.139 158.963L426.127 158.9H425.025L425.031 158.957C425.164 160.135 426.101 160.927 427.653 160.927ZM433.695 160.927C435.164 160.927 436.254 160.116 436.254 158.963V158.957C436.254 158.02 435.772 157.494 434.442 157.171L433.397 156.918C432.669 156.74 432.371 156.43 432.371 155.98V155.974C432.371 155.391 432.865 155.005 433.663 155.005C434.48 155.005 434.968 155.429 435.057 156.069L435.063 156.113H436.114L436.108 156.031C436.026 154.929 435.107 154.087 433.663 154.087C432.238 154.087 431.244 154.891 431.244 156.025V156.031C431.244 156.981 431.846 157.557 433.087 157.855L434.132 158.108C434.879 158.292 435.126 158.558 435.126 159.033V159.039C435.126 159.635 434.594 160.008 433.701 160.008C432.802 160.008 432.314 159.622 432.181 158.963L432.169 158.9H431.067L431.073 158.957C431.206 160.135 432.143 160.927 433.695 160.927Z" fill="#272D33"/>
<path d="M350.265 139H354.426V138.23H351.12V132.146H350.265V139ZM355.704 133.224C355.994 133.224 356.222 132.991 356.222 132.706C356.222 132.416 355.994 132.188 355.704 132.188C355.419 132.188 355.186 132.416 355.186 132.706C355.186 132.991 355.419 133.224 355.704 133.224ZM355.291 139H356.117V134.06H355.291V139ZM358.635 139H359.48L361.295 134.06H360.435L359.067 138.121H359.048L357.685 134.06H356.815L358.635 139ZM363.789 139.095C364.867 139.095 365.674 138.449 365.836 137.632L365.845 137.584H365.033L365.019 137.627C364.876 138.05 364.435 138.363 363.808 138.363C362.929 138.363 362.368 137.77 362.349 136.753H365.907V136.449C365.907 134.967 365.085 133.965 363.736 133.965C362.387 133.965 361.513 135.015 361.513 136.544V136.549C361.513 138.102 362.368 139.095 363.789 139.095ZM363.732 134.696C364.454 134.696 364.986 135.148 365.066 136.107H362.364C362.454 135.186 363.014 134.696 363.732 134.696ZM371.731 139.114C373.165 139.114 374.262 138.264 374.524 136.953L374.533 136.905H373.669L373.654 136.948C373.355 137.85 372.69 138.325 371.731 138.325C370.367 138.325 369.479 137.238 369.479 135.57V135.566C369.479 133.898 370.363 132.82 371.731 132.82C372.695 132.82 373.369 133.305 373.635 134.136L373.669 134.24H374.533L374.524 134.193C374.262 132.896 373.156 132.032 371.731 132.032C369.821 132.032 368.6 133.409 368.6 135.566V135.57C368.6 137.727 369.826 139.114 371.731 139.114ZM375.459 139H376.286V132.146H375.459V139ZM378.846 139.095C379.506 139.095 380.1 138.739 380.39 138.197H380.409V139H381.235V135.585C381.235 134.597 380.504 133.965 379.335 133.965C378.172 133.965 377.464 134.62 377.393 135.433L377.388 135.485H378.186L378.195 135.442C378.29 135 378.689 134.696 379.326 134.696C380.015 134.696 380.409 135.062 380.409 135.665V136.079L378.993 136.159C377.858 136.226 377.203 136.753 377.203 137.594V137.603C377.203 138.501 377.863 139.095 378.846 139.095ZM378.048 137.603V137.594C378.048 137.133 378.428 136.839 379.088 136.801L380.409 136.72V137.124C380.409 137.841 379.81 138.378 379.031 138.378C378.438 138.378 378.048 138.078 378.048 137.603ZM384.038 139.095C385.14 139.095 385.957 138.487 385.957 137.622V137.618C385.957 136.915 385.596 136.52 384.599 136.278L383.815 136.088C383.269 135.955 383.045 135.722 383.045 135.385V135.38C383.045 134.943 383.416 134.654 384.014 134.654C384.627 134.654 384.993 134.972 385.059 135.452L385.064 135.485H385.853L385.848 135.423C385.786 134.597 385.097 133.965 384.014 133.965C382.946 133.965 382.2 134.568 382.2 135.418V135.423C382.2 136.136 382.651 136.568 383.582 136.791L384.366 136.981C384.926 137.119 385.112 137.318 385.112 137.675V137.679C385.112 138.126 384.713 138.406 384.043 138.406C383.368 138.406 383.003 138.116 382.903 137.622L382.893 137.575H382.067L382.071 137.618C382.171 138.501 382.874 139.095 384.038 139.095ZM388.57 139.095C389.672 139.095 390.489 138.487 390.489 137.622V137.618C390.489 136.915 390.128 136.52 389.13 136.278L388.346 136.088C387.8 135.955 387.577 135.722 387.577 135.385V135.38C387.577 134.943 387.947 134.654 388.546 134.654C389.159 134.654 389.524 134.972 389.591 135.452L389.596 135.485H390.384L390.379 135.423C390.318 134.597 389.629 133.965 388.546 133.965C387.477 133.965 386.731 134.568 386.731 135.418V135.423C386.731 136.136 387.183 136.568 388.114 136.791L388.897 136.981C389.458 137.119 389.643 137.318 389.643 137.675V137.679C389.643 138.126 389.244 138.406 388.574 138.406C387.9 138.406 387.534 138.116 387.434 137.622L387.425 137.575H386.598L386.603 137.618C386.703 138.501 387.406 139.095 388.57 139.095Z" fill="#647382"/>
<rect opacity="0.1" x="296.8" y="125.2" width="41.6" height="41.6" rx="6.48541" fill="#0BECB4"/>
<path opacity="0.4" d="M322.07 135.333H313.131C309.888 135.333 308 137.232 308 140.485V151.504C308 154.811 309.888 156.667 313.131 156.667H322.07C325.365 156.667 327.2 154.811 327.2 151.504V140.485C327.2 137.232 325.365 135.333 322.07 135.333Z" fill="#0BECB4"/>
<path fill-rule="evenodd" clip-rule="evenodd" d="M313.419 140.294V140.304C312.959 140.304 312.587 140.678 312.587 141.136C312.587 141.595 312.959 141.968 313.419 141.968H316.607C317.067 141.968 317.44 141.595 317.44 141.125C317.44 140.667 317.067 140.294 316.607 140.294H313.419ZM321.781 146.79H313.419C312.959 146.79 312.587 146.416 312.587 145.958C312.587 145.499 312.959 145.125 313.419 145.125H321.781C322.24 145.125 322.613 145.499 322.613 145.958C322.613 146.416 322.24 146.79 321.781 146.79ZM321.781 151.664H313.419C313.099 151.707 312.789 151.547 312.619 151.28C312.448 151.003 312.448 150.651 312.619 150.384C312.789 150.107 313.099 149.958 313.419 149.99H321.781C322.207 150.032 322.528 150.395 322.528 150.832C322.528 151.258 322.207 151.622 321.781 151.664Z" fill="#0BECB4"/>
<defs>
<filter id="filter0_d_3080_5235" x="2" y="1" width="260.427" height="287.475" filterUnits="userSpaceOnUse" color-interpolation-filters="sRGB">
<feFlood flood-opacity="0" result="BackgroundImageFix"/>
<feColorMatrix in="SourceAlpha" type="matrix" values="0 0 0 0 0 0 0 0 0 0 0 0 0 0 0 0 0 0 127 0" result="hardAlpha"/>
<feOffset/>
<feGaussianBlur stdDeviation="5"/>
<feComposite in2="hardAlpha" operator="out"/>
<feColorMatrix type="matrix" values="0 0 0 0 0 0 0 0 0 0 0 0 0 0 0 0 0 0 0.15 0"/>
<feBlend mode="normal" in2="BackgroundImageFix" result="effect1_dropShadow_3080_5235"/>
<feBlend mode="normal" in="SourceGraphic" in2="effect1_dropShadow_3080_5235" result="shape"/>
</filter>
<filter id="filter1_d_3080_5235" x="0.536657" y="7.59397" width="263.353" height="106.648" filterUnits="userSpaceOnUse" color-interpolation-filters="sRGB">
<feFlood flood-opacity="0" result="BackgroundImageFix"/>
<feColorMatrix in="SourceAlpha" type="matrix" values="0 0 0 0 0 0 0 0 0 0 0 0 0 0 0 0 0 0 127 0" result="hardAlpha"/>
<feOffset dy="8.27069"/>
<feGaussianBlur stdDeviation="10.3384"/>
<feColorMatrix type="matrix" values="0 0 0 0 0 0 0 0 0 0 0 0 0 0 0 0 0 0 0.1 0"/>
<feBlend mode="normal" in2="BackgroundImageFix" result="effect1_dropShadow_3080_5235"/>
<feBlend mode="normal" in="SourceGraphic" in2="effect1_dropShadow_3080_5235" result="shape"/>
</filter>
<filter id="filter2_d_3080_5235" x="0.186804" y="85.9377" width="264.053" height="213.291" filterUnits="userSpaceOnUse" color-interpolation-filters="sRGB">
<feFlood flood-opacity="0" result="BackgroundImageFix"/>
<feColorMatrix in="SourceAlpha" type="matrix" values="0 0 0 0 0 0 0 0 0 0 0 0 0 0 0 0 0 0 127 0" result="hardAlpha"/>
<feOffset dy="8.27069"/>
<feGaussianBlur stdDeviation="10.3384"/>
<feColorMatrix type="matrix" values="0 0 0 0 0 0 0 0 0 0 0 0 0 0 0 0 0 0 0.1 0"/>
<feBlend mode="normal" in2="BackgroundImageFix" result="effect1_dropShadow_3080_5235"/>
<feBlend mode="normal" in="SourceGraphic" in2="effect1_dropShadow_3080_5235" result="shape"/>
</filter>
<filter id="filter3_d_3080_5235" x="263.733" y="23.8399" width="258.134" height="104.534" filterUnits="userSpaceOnUse" color-interpolation-filters="sRGB">
<feFlood flood-opacity="0" result="BackgroundImageFix"/>
<feColorMatrix in="SourceAlpha" type="matrix" values="0 0 0 0 0 0 0 0 0 0 0 0 0 0 0 0 0 0 127 0" result="hardAlpha"/>
<feOffset dy="8.10676"/>
<feGaussianBlur stdDeviation="10.1335"/>
<feColorMatrix type="matrix" values="0 0 0 0 0 0 0 0 0 0 0 0 0 0 0 0 0 0 0.1 0"/>
<feBlend mode="normal" in2="BackgroundImageFix" result="effect1_dropShadow_3080_5235"/>
<feBlend mode="normal" in="SourceGraphic" in2="effect1_dropShadow_3080_5235" result="shape"/>
</filter>
<filter id="filter4_d_3080_5235" x="263.733" y="181.84" width="258.134" height="104.534" filterUnits="userSpaceOnUse" color-interpolation-filters="sRGB">
<feFlood flood-opacity="0" result="BackgroundImageFix"/>
<feColorMatrix in="SourceAlpha" type="matrix" values="0 0 0 0 0 0 0 0 0 0 0 0 0 0 0 0 0 0 127 0" result="hardAlpha"/>
<feOffset dy="8.10676"/>
<feGaussianBlur stdDeviation="10.1335"/>
<feColorMatrix type="matrix" values="0 0 0 0 0 0 0 0 0 0 0 0 0 0 0 0 0 0 0.1 0"/>
<feBlend mode="normal" in2="BackgroundImageFix" result="effect1_dropShadow_3080_5235"/>
<feBlend mode="normal" in="SourceGraphic" in2="effect1_dropShadow_3080_5235" result="shape"/>
</filter>
<filter id="filter5_d_3080_5235" x="263.733" y="101.84" width="258.134" height="104.534" filterUnits="userSpaceOnUse" color-interpolation-filters="sRGB">
<feFlood flood-opacity="0" result="BackgroundImageFix"/>
<feColorMatrix in="SourceAlpha" type="matrix" values="0 0 0 0 0 0 0 0 0 0 0 0 0 0 0 0 0 0 127 0" result="hardAlpha"/>
<feOffset dy="8.10676"/>
<feGaussianBlur stdDeviation="10.1335"/>
<feColorMatrix type="matrix" values="0 0 0 0 0 0 0 0 0 0 0 0 0 0 0 0 0 0 0.1 0"/>
<feBlend mode="normal" in2="BackgroundImageFix" result="effect1_dropShadow_3080_5235"/>
<feBlend mode="normal" in="SourceGraphic" in2="effect1_dropShadow_3080_5235" result="shape"/>
</filter>
</defs>
</svg>
