<svg width="59" height="33" viewBox="0 0 59 33" fill="none" xmlns="http://www.w3.org/2000/svg">
<g filter="url(#filter0_b_2213_5014)">
<rect x="0.884766" width="57.994" height="32.3428" rx="5.57634" fill="white" fill-opacity="0.3"/>
</g>
<path d="M25.6061 11.2864L21.7669 18.7442V23H19.8228V18.7851L16.0817 11.2864H18.2953L20.5988 16.31C20.6261 16.3699 20.7078 16.5959 20.8439 16.988H20.8684C20.9174 16.8137 21.0073 16.5878 21.138 16.31L23.5477 11.2864H25.6061ZM29.1104 23.196C27.8198 23.196 26.7878 22.8067 26.0145 22.028C25.2467 21.2438 24.8628 20.2064 24.8628 18.9158C24.8628 17.5108 25.263 16.4135 26.0636 15.6239C26.8695 14.8343 27.9532 14.4394 29.3146 14.4394C30.6216 14.4394 31.6399 14.8234 32.3696 15.5912C33.0993 16.359 33.4642 17.4237 33.4642 18.7851C33.4642 20.1193 33.0694 21.1893 32.2798 21.9953C31.4956 22.7958 30.4391 23.196 29.1104 23.196ZM29.2002 15.9506C28.4596 15.9506 27.8742 16.2093 27.444 16.7266C27.0138 17.244 26.7987 17.9573 26.7987 18.8668C26.7987 19.7435 27.0165 20.4351 27.4522 20.9415C27.8878 21.4425 28.4705 21.693 29.2002 21.693C29.9463 21.693 30.5181 21.4453 30.9156 20.9497C31.3186 20.4542 31.5201 19.7489 31.5201 18.8341C31.5201 17.9138 31.3186 17.2031 30.9156 16.7021C30.5181 16.2011 29.9463 15.9506 29.2002 15.9506ZM42.6946 23H40.7995V21.6767H40.7668C40.2168 22.6896 39.3618 23.196 38.2019 23.196C36.2251 23.196 35.2367 22.0089 35.2367 19.6346V14.6355H37.1318V19.4385C37.1318 20.9415 37.7118 21.693 38.8717 21.693C39.4326 21.693 39.8928 21.4861 40.2522 21.0722C40.617 20.6584 40.7995 20.1165 40.7995 19.4467V14.6355H42.6946V23Z" fill="white"/>
<defs>
<filter id="filter0_b_2213_5014" x="-106.181" y="-107.066" width="272.125" height="246.474" filterUnits="userSpaceOnUse" color-interpolation-filters="sRGB">
<feFlood flood-opacity="0" result="BackgroundImageFix"/>
<feGaussianBlur in="BackgroundImage" stdDeviation="53.5329"/>
<feComposite in2="SourceAlpha" operator="in" result="effect1_backgroundBlur_2213_5014"/>
<feBlend mode="normal" in="SourceGraphic" in2="effect1_backgroundBlur_2213_5014" result="shape"/>
</filter>
</defs>
</svg>
