<svg width="325" height="57" viewBox="0 0 325 57" fill="none" xmlns="http://www.w3.org/2000/svg">
<g filter="url(#filter0_b_2213_5071)">
<rect x="8.51709" y="8.54688" width="39.0344" height="39.0344" rx="19.5172" fill="white" fill-opacity="0.4"/>
</g>
<path d="M36.1961 20.0347C36.1379 19.9036 36.0359 19.7944 35.8975 19.7361C35.832 19.7143 35.7664 19.6997 35.6936 19.6997H29.1385C28.8399 19.6997 28.5923 19.9473 28.5923 20.246C28.5923 20.5446 28.8399 20.7922 29.1385 20.7922H34.3753L28.9546 26.2128C28.7434 26.424 28.7434 26.7737 28.9546 26.9849C29.0639 27.0941 29.2023 27.1451 29.3407 27.1451C29.479 27.1451 29.6174 27.0941 29.7267 26.9849L35.1473 21.5643V26.801C35.1473 27.0996 35.395 27.3473 35.6936 27.3473C35.9922 27.3473 36.2398 27.0996 36.2398 26.801V20.246C36.2398 20.1731 36.2253 20.1076 36.1961 20.0347Z" fill="white" stroke="white" stroke-width="0.557634"/>
<path d="M19.714 36.2182C19.7723 36.3493 19.8742 36.4585 20.0126 36.5168C20.0782 36.5387 20.1437 36.5532 20.2166 36.5532H26.7716C27.0702 36.5532 27.3179 36.3056 27.3179 36.007C27.3179 35.7084 27.0702 35.4607 26.7716 35.4607H21.5349L26.9555 30.0401C27.1667 29.8289 27.1667 29.4793 26.9555 29.2681C26.8463 29.1588 26.7079 29.1078 26.5695 29.1078C26.4311 29.1078 26.2927 29.1588 26.1835 29.2681L20.7628 34.6887V29.4519C20.7628 29.1533 20.5152 28.9057 20.2166 28.9057C19.918 28.9057 19.6703 29.1533 19.6703 29.4519V36.007C19.6703 36.0798 19.6849 36.1454 19.714 36.2182Z" fill="white" stroke="white" stroke-width="0.557634"/>
<g filter="url(#filter1_b_2213_5071)">
<rect x="75.4336" y="8.54688" width="39.0344" height="39.0344" rx="19.5172" fill="white" fill-opacity="0.4"/>
</g>
<path d="M98.0898 23.9548V24.9251L92.0004 31.0145C91.1974 30.2868 90.6956 29.2161 90.6956 28.0702V23.9548C90.6956 22.2317 91.8666 20.8014 93.4558 20.3915C93.6148 20.3497 93.7653 20.4835 93.7653 20.6425V21.9306C93.7653 22.2735 94.0497 22.5579 94.3927 22.5579C94.7356 22.5579 95.02 22.2735 95.02 21.9306V20.6425C95.02 20.4835 95.1706 20.3497 95.3295 20.3915C96.9188 20.8014 98.0898 22.2317 98.0898 23.9548Z" fill="white"/>
<path d="M100.926 26.7915V28.1215C100.926 31.5258 98.3078 34.3279 94.9787 34.6207V36.4023C94.9787 36.7285 94.7194 36.9878 94.3932 36.9878C94.067 36.9878 93.8077 36.7285 93.8077 36.4023V34.6207C92.896 34.537 92.0344 34.2694 91.2649 33.8428L92.1264 32.9812C92.8123 33.2991 93.5819 33.4831 94.3932 33.4831C97.3543 33.4831 99.7632 31.0741 99.7632 28.1215V26.7915C99.7632 26.4737 100.023 26.2144 100.349 26.2144C100.667 26.2144 100.926 26.4737 100.926 26.7915Z" fill="white"/>
<path d="M98.0906 27.0171V28.2299C98.0906 30.388 96.2337 32.1194 94.0255 31.9103C93.7913 31.8852 93.5571 31.8434 93.3396 31.7681L98.0906 27.0171Z" fill="white"/>
<path d="M102.565 20.4504C102.314 20.1995 101.904 20.1995 101.654 20.4504L90.4032 31.7007C89.5417 30.7555 89.0231 29.5008 89.0231 28.1207V26.7907C89.0231 26.4729 88.7638 26.2136 88.4376 26.2136C88.1197 26.2136 87.8604 26.4729 87.8604 26.7907V28.1207C87.8604 29.8187 88.5129 31.3661 89.5752 32.5288L86.2126 35.8913C85.9617 36.1422 85.9617 36.5521 86.2126 36.803C86.3464 36.9201 86.5054 36.9871 86.6727 36.9871C86.84 36.9871 86.9989 36.9201 87.1243 36.7947L102.565 21.3538C102.825 21.1028 102.825 20.7013 102.565 20.4504Z" fill="white"/>
<rect x="134.543" y="0.740234" width="55.7634" height="55.7634" rx="20.0748" fill="#FD5D5C"/>
<path d="M170.298 21.9307L171.681 20.5478C172.005 20.2244 172.005 19.689 171.681 19.3656C171.358 19.0422 170.823 19.0422 170.499 19.3656L169.116 20.7486L167.733 19.3656C167.41 19.0422 166.874 19.0422 166.551 19.3656C166.228 19.689 166.228 20.2244 166.551 20.5478L167.934 21.9307L166.551 23.3137C166.228 23.6371 166.228 24.1724 166.551 24.4959C166.718 24.6631 166.93 24.7412 167.142 24.7412C167.354 24.7412 167.566 24.6631 167.733 24.4959L169.116 23.1129L170.499 24.4959C170.666 24.6631 170.878 24.7412 171.09 24.7412C171.302 24.7412 171.514 24.6631 171.681 24.4959C172.005 24.1724 172.005 23.6371 171.681 23.3137L170.298 21.9307Z" fill="white"/>
<path d="M161.365 31.912L159.302 33.9752C158.867 34.4102 158.175 34.4102 157.729 33.9864C157.607 33.8637 157.484 33.7522 157.361 33.6295C156.212 32.4696 155.175 31.254 154.25 29.9825C153.335 28.7111 152.599 27.4397 152.064 26.1795C151.54 24.9081 151.272 23.6924 151.272 22.5326C151.272 21.7742 151.406 21.0492 151.673 20.3801C151.941 19.6998 152.365 19.0752 152.956 18.5176C153.67 17.815 154.45 17.4692 155.276 17.4692C155.588 17.4692 155.9 17.5362 156.179 17.67C156.469 17.8038 156.726 18.0046 156.926 18.2945L159.514 21.9415C159.714 22.2203 159.859 22.4768 159.96 22.7222C160.06 22.9564 160.116 23.1906 160.116 23.4025C160.116 23.6701 160.038 23.9378 159.882 24.1943C159.737 24.4508 159.525 24.7185 159.257 24.9861L158.41 25.8672C158.287 25.9899 158.231 26.1349 158.231 26.3133C158.231 26.4025 158.242 26.4806 158.265 26.5698C158.298 26.659 158.332 26.726 158.354 26.7929C158.555 27.1609 158.9 27.6405 159.391 28.2204C159.893 28.8004 160.428 29.3915 161.008 29.9825C161.12 30.0941 161.242 30.2056 161.354 30.3171C161.8 30.7521 161.811 31.4659 161.365 31.912Z" fill="white"/>
<path d="M173.544 35.682C173.544 35.9942 173.488 36.3177 173.377 36.6299C173.343 36.7192 173.31 36.8084 173.265 36.8976C173.075 37.2991 172.83 37.6783 172.507 38.0352C171.96 38.6374 171.358 39.0724 170.678 39.3512C170.666 39.3512 170.655 39.3623 170.644 39.3623C169.986 39.63 169.272 39.775 168.503 39.775C167.365 39.775 166.15 39.5073 164.867 38.9609C163.584 38.4144 162.302 37.6783 161.03 36.7526C160.596 36.4292 160.161 36.1058 159.748 35.76L163.395 32.1131C163.707 32.3473 163.986 32.5258 164.22 32.6484C164.276 32.6707 164.343 32.7042 164.421 32.7377C164.51 32.7711 164.599 32.7823 164.7 32.7823C164.889 32.7823 165.034 32.7153 165.157 32.5927L166.005 31.7562C166.283 31.4774 166.551 31.2655 166.808 31.1317C167.064 30.9755 167.321 30.8975 167.599 30.8975C167.811 30.8975 168.034 30.9421 168.28 31.0424C168.525 31.1428 168.782 31.2878 169.06 31.4774L172.752 34.0983C173.042 34.299 173.243 34.5332 173.365 34.8121C173.477 35.0909 173.544 35.3697 173.544 35.682Z" fill="white"/>
<g filter="url(#filter2_b_2213_5071)">
<rect x="209.266" y="8.54688" width="39.0344" height="39.0344" rx="19.5172" fill="white" fill-opacity="0.4"/>
</g>
<path d="M235.879 23.7461C235.536 23.5621 234.816 23.3697 233.838 24.0556L232.608 24.9255C232.516 22.3242 231.387 21.3037 228.643 21.3037H223.625C220.764 21.3037 219.652 22.4162 219.652 25.2769V31.9685C219.652 33.8923 220.697 35.9416 223.625 35.9416H228.643C231.387 35.9416 232.516 34.9211 232.608 32.3198L233.838 33.1897C234.356 33.5577 234.808 33.6748 235.168 33.6748C235.477 33.6748 235.72 33.5828 235.879 33.4992C236.222 33.3235 236.799 32.8467 236.799 31.6506V25.5947C236.799 24.3986 236.222 23.9218 235.879 23.7461ZM227.389 28.1041C226.527 28.1041 225.816 27.4014 225.816 26.5315C225.816 25.6616 226.527 24.959 227.389 24.959C228.25 24.959 228.961 25.6616 228.961 26.5315C228.961 27.4014 228.25 28.1041 227.389 28.1041Z" fill="white"/>
<g filter="url(#filter3_b_2213_5071)">
<rect x="276.182" y="8.54688" width="39.0344" height="39.0344" rx="19.5172" fill="white" fill-opacity="0.4"/>
</g>
<path d="M301.917 26.2974C300.403 26.2974 299.784 25.2267 300.536 23.9135C300.971 23.1523 300.712 22.182 299.951 21.7471L298.504 20.919C297.843 20.5259 296.99 20.7601 296.597 21.4209L296.505 21.5798C295.752 22.893 294.514 22.893 293.753 21.5798L293.661 21.4209C293.284 20.7601 292.431 20.5259 291.77 20.919L290.323 21.7471C289.562 22.182 289.303 23.1607 289.738 23.9219C290.499 25.2267 289.88 26.2974 288.366 26.2974C287.496 26.2974 286.777 27.0084 286.777 27.8866V29.3588C286.777 30.2287 287.488 30.9481 288.366 30.9481C289.88 30.9481 290.499 32.0187 289.738 33.3319C289.303 34.0931 289.562 35.0634 290.323 35.4984L291.77 36.3264C292.431 36.7196 293.284 36.4854 293.677 35.8246L293.769 35.6656C294.522 34.3524 295.76 34.3524 296.521 35.6656L296.613 35.8246C297.007 36.4854 297.86 36.7196 298.521 36.3264L299.968 35.4984C300.729 35.0634 300.988 34.0847 300.553 33.3319C299.792 32.0187 300.411 30.9481 301.925 30.9481C302.795 30.9481 303.514 30.2371 303.514 29.3588V27.8866C303.506 27.0167 302.795 26.2974 301.917 26.2974ZM295.141 31.3412C293.644 31.3412 292.423 30.12 292.423 28.6227C292.423 27.1255 293.644 25.9043 295.141 25.9043C296.638 25.9043 297.86 27.1255 297.86 28.6227C297.86 30.12 296.638 31.3412 295.141 31.3412Z" fill="white"/>
<defs>
<filter id="filter0_b_2213_5071" x="2.94075" y="2.97053" width="50.1871" height="50.1869" filterUnits="userSpaceOnUse" color-interpolation-filters="sRGB">
<feFlood flood-opacity="0" result="BackgroundImageFix"/>
<feGaussianBlur in="BackgroundImage" stdDeviation="2.78817"/>
<feComposite in2="SourceAlpha" operator="in" result="effect1_backgroundBlur_2213_5071"/>
<feBlend mode="normal" in="SourceGraphic" in2="effect1_backgroundBlur_2213_5071" result="shape"/>
</filter>
<filter id="filter1_b_2213_5071" x="69.8573" y="2.97053" width="50.1871" height="50.1869" filterUnits="userSpaceOnUse" color-interpolation-filters="sRGB">
<feFlood flood-opacity="0" result="BackgroundImageFix"/>
<feGaussianBlur in="BackgroundImage" stdDeviation="2.78817"/>
<feComposite in2="SourceAlpha" operator="in" result="effect1_backgroundBlur_2213_5071"/>
<feBlend mode="normal" in="SourceGraphic" in2="effect1_backgroundBlur_2213_5071" result="shape"/>
</filter>
<filter id="filter2_b_2213_5071" x="203.689" y="2.97053" width="50.1871" height="50.1869" filterUnits="userSpaceOnUse" color-interpolation-filters="sRGB">
<feFlood flood-opacity="0" result="BackgroundImageFix"/>
<feGaussianBlur in="BackgroundImage" stdDeviation="2.78817"/>
<feComposite in2="SourceAlpha" operator="in" result="effect1_backgroundBlur_2213_5071"/>
<feBlend mode="normal" in="SourceGraphic" in2="effect1_backgroundBlur_2213_5071" result="shape"/>
</filter>
<filter id="filter3_b_2213_5071" x="270.605" y="2.97053" width="50.1871" height="50.1869" filterUnits="userSpaceOnUse" color-interpolation-filters="sRGB">
<feFlood flood-opacity="0" result="BackgroundImageFix"/>
<feGaussianBlur in="BackgroundImage" stdDeviation="2.78817"/>
<feComposite in2="SourceAlpha" operator="in" result="effect1_backgroundBlur_2213_5071"/>
<feBlend mode="normal" in="SourceGraphic" in2="effect1_backgroundBlur_2213_5071" result="shape"/>
</filter>
</defs>
</svg>
