<svg width="387" height="150" viewBox="0 0 387 150" fill="none" xmlns="http://www.w3.org/2000/svg">
<g filter="url(#filter0_d_2213_4586)">
<rect x="29" y="18" width="328.813" height="91.3822" rx="11.3994" fill="white"/>
<rect x="29.57" y="18.57" width="327.673" height="90.2423" rx="10.8294" stroke="#E8E8E8" stroke-opacity="0.4" stroke-width="1.13994"/>
</g>
<rect x="125.278" y="71.0343" width="118.307" height="8.15913" rx="1.63183" fill="#BBC3CD"/>
<rect x="125.278" y="85.7208" width="76.6958" height="8.15913" rx="1.63183" fill="#BBC3CD"/>
<path d="M126.442 55.9501H128.412L131.262 45.9806H131.308L134.148 55.9501H136.119L139.692 42.7277H137.557L135.092 53.0912H135.046L132.252 42.7277H130.309L127.514 53.0912H127.478L125.013 42.7277H122.878L126.442 55.9501ZM144.182 56.1425C146.94 56.1425 148.754 54.2366 148.754 51.1303V51.112C148.754 48.024 146.922 46.1272 144.173 46.1272C141.433 46.1272 139.61 48.0332 139.61 51.112V51.1303C139.61 54.2274 141.415 56.1425 144.182 56.1425ZM144.191 54.484C142.643 54.484 141.635 53.2653 141.635 51.1303V51.112C141.635 49.0045 142.652 47.7858 144.173 47.7858C145.721 47.7858 146.729 49.0045 146.729 51.112V51.1303C146.729 53.2561 145.74 54.484 144.191 54.484ZM150.285 55.9501H152.264V50.2048C152.264 48.7662 153.052 47.9324 154.326 47.9324C154.71 47.9324 155.059 47.9782 155.214 48.0423V46.2006C155.059 46.1731 154.811 46.1272 154.527 46.1272C153.428 46.1272 152.621 46.8328 152.31 47.9599H152.264V46.3105H150.285V55.9501ZM156.552 55.9501H158.531V52.4773L159.356 51.6618L162.627 55.9501H164.927L160.813 50.4706L164.772 46.3105H162.444L158.577 50.4247H158.531V42.7277H156.552V55.9501ZM173.87 56.1425C176.629 56.1425 178.443 54.2366 178.443 51.1303V51.112C178.443 48.024 176.61 46.1272 173.861 46.1272C171.122 46.1272 169.298 48.0332 169.298 51.112V51.1303C169.298 54.2274 171.103 56.1425 173.87 56.1425ZM173.88 54.484C172.331 54.484 171.323 53.2653 171.323 51.1303V51.112C171.323 49.0045 172.34 47.7858 173.861 47.7858C175.41 47.7858 176.418 49.0045 176.418 51.112V51.1303C176.418 53.2561 175.428 54.484 173.88 54.484ZM179.973 55.9501H181.952V50.3331C181.952 48.8304 182.85 47.8224 184.243 47.8224C185.618 47.8224 186.296 48.6379 186.296 50.0857V55.9501H188.284V49.71C188.284 47.4925 187.065 46.1272 184.949 46.1272C183.492 46.1272 182.502 46.787 181.998 47.7674H181.952V46.3105H179.973V55.9501ZM194.011 55.9501H195.99V50.2048C195.99 48.7662 196.778 47.9324 198.052 47.9324C198.437 47.9324 198.785 47.9782 198.941 48.0423V46.2006C198.785 46.1731 198.537 46.1272 198.253 46.1272C197.154 46.1272 196.347 46.8328 196.036 47.9599H195.99V46.3105H194.011V55.9501ZM203.861 56.1425C206.198 56.1425 207.682 54.7497 207.994 53.2195L208.012 53.1187H206.134L206.106 53.192C205.859 53.9159 205.08 54.5206 203.907 54.5206C202.331 54.5206 201.332 53.4577 201.296 51.6343H208.122V50.9654C208.122 48.0698 206.464 46.1272 203.76 46.1272C201.057 46.1272 199.316 48.1431 199.316 51.1578V51.1669C199.316 54.2091 201.03 56.1425 203.861 56.1425ZM203.77 47.7491C205.062 47.7491 205.996 48.5646 206.161 50.2323H201.323C201.497 48.6196 202.487 47.7491 203.77 47.7491ZM212.493 56.1242C213.767 56.1242 214.884 55.4644 215.443 54.429H215.48V55.9501H217.468V49.3068C217.468 47.3734 215.975 46.1272 213.62 46.1272C211.247 46.1272 209.808 47.4009 209.671 49.0594L209.661 49.1602H211.531L211.549 49.0778C211.714 48.3081 212.42 47.7674 213.565 47.7674C214.793 47.7674 215.48 48.4089 215.48 49.4718V50.1957L212.859 50.3514C210.578 50.4889 209.277 51.5151 209.277 53.192V53.2103C209.277 54.9421 210.569 56.1242 212.493 56.1242ZM211.274 53.1645V53.1462C211.274 52.3307 211.934 51.8084 213.125 51.7351L215.48 51.5884V52.3398C215.48 53.5952 214.426 54.539 213.033 54.539C211.971 54.539 211.274 54.0075 211.274 53.1645ZM219.466 55.9501H221.445V42.7277H219.466V55.9501ZM227.291 59.1572H229.27V54.3282H229.316C229.884 55.4461 230.993 56.1425 232.358 56.1425C234.777 56.1425 236.363 54.2091 236.363 51.1395V51.1303C236.363 48.0515 234.787 46.1272 232.331 46.1272C230.956 46.1272 229.894 46.8236 229.316 47.969H229.27V46.3105H227.291V59.1572ZM231.818 54.4382C230.324 54.4382 229.261 53.137 229.261 51.1395V51.1303C229.261 49.1236 230.315 47.8224 231.818 47.8224C233.366 47.8224 234.347 49.0778 234.347 51.1303V51.1395C234.347 53.1737 233.376 54.4382 231.818 54.4382ZM237.902 55.9501H239.881V50.2048C239.881 48.7662 240.669 47.9324 241.943 47.9324C242.328 47.9324 242.676 47.9782 242.832 48.0423V46.2006C242.676 46.1731 242.429 46.1272 242.145 46.1272C241.045 46.1272 240.239 46.8328 239.927 47.9599H239.881V46.3105H237.902V55.9501ZM247.78 56.1425C250.538 56.1425 252.352 54.2366 252.352 51.1303V51.112C252.352 48.024 250.52 46.1272 247.771 46.1272C245.031 46.1272 243.207 48.0332 243.207 51.112V51.1303C243.207 54.2274 245.013 56.1425 247.78 56.1425ZM247.789 54.484C246.24 54.484 245.233 53.2653 245.233 51.1303V51.112C245.233 49.0045 246.25 47.7858 247.771 47.7858C249.319 47.7858 250.327 49.0045 250.327 51.112V51.1303C250.327 53.2561 249.338 54.484 247.789 54.484ZM254.936 44.8261C255.587 44.8261 256.091 44.313 256.091 43.6899C256.091 43.0576 255.587 42.5445 254.936 42.5445C254.295 42.5445 253.782 43.0576 253.782 43.6899C253.782 44.313 254.295 44.8261 254.936 44.8261ZM252.774 59.1755C254.909 59.1755 255.926 58.2408 255.926 56.2799V46.3105H253.947V56.2616C253.947 57.2329 253.58 57.5444 252.6 57.5444C252.499 57.5444 252.407 57.5353 252.316 57.5353V59.1572C252.444 59.1663 252.618 59.1755 252.774 59.1755ZM262.083 56.1425C264.42 56.1425 265.904 54.7497 266.216 53.2195L266.234 53.1187H264.356L264.328 53.192C264.081 53.9159 263.302 54.5206 262.129 54.5206C260.553 54.5206 259.554 53.4577 259.518 51.6343H266.344V50.9654C266.344 48.0698 264.686 46.1272 261.983 46.1272C259.28 46.1272 257.539 48.1431 257.539 51.1578V51.1669C257.539 54.2091 259.252 56.1425 262.083 56.1425ZM261.992 47.7491C263.284 47.7491 264.218 48.5646 264.383 50.2323H259.545C259.719 48.6196 260.709 47.7491 261.992 47.7491ZM272.025 56.1425C274.344 56.1425 275.956 54.6581 276.167 52.7247L276.176 52.6605H274.27L274.261 52.7338C274.023 53.7784 273.244 54.484 272.025 54.484C270.495 54.484 269.478 53.247 269.478 51.1395V51.1303C269.478 49.0686 270.477 47.7858 272.016 47.7858C273.308 47.7858 274.041 48.583 274.252 49.5268L274.27 49.6001H276.158L276.149 49.5359C275.984 47.7216 274.481 46.1272 271.998 46.1272C269.249 46.1272 267.453 48.0607 267.453 51.112V51.1211C267.453 54.2091 269.212 56.1425 272.025 56.1425ZM280.959 56.1425C281.363 56.1425 281.738 56.0967 281.967 56.06V54.5298C281.821 54.5481 281.647 54.5664 281.436 54.5664C280.602 54.5664 280.162 54.2732 280.162 53.2928V47.8866H281.967V46.3105H280.162V43.7998H278.137V46.3105H276.754V47.8866H278.137V53.4119C278.137 55.3361 279.053 56.1425 280.959 56.1425ZM287.218 56.1425C289.49 56.1425 291.14 54.933 291.14 53.1737V53.1645C291.14 51.7809 290.388 51.002 288.418 50.5439L286.851 50.1865C285.816 49.9391 285.422 49.5359 285.422 48.9403V48.9312C285.422 48.1615 286.091 47.6575 287.154 47.6575C288.272 47.6575 288.931 48.2439 289.05 49.0869L289.06 49.1511H290.92L290.911 49.0411C290.81 47.4009 289.435 46.1272 287.154 46.1272C284.936 46.1272 283.433 47.3093 283.433 49.0319V49.0411C283.433 50.4431 284.341 51.3227 286.173 51.7442L287.749 52.1016C288.785 52.349 289.133 52.7063 289.133 53.3294V53.3386C289.133 54.1175 288.418 54.6123 287.227 54.6123C286.008 54.6123 285.349 54.09 285.165 53.2011L285.147 53.1095H283.186L283.195 53.192C283.397 54.9513 284.808 56.1425 287.218 56.1425Z" fill="#272D33"/>
<rect opacity="0.1" x="47.239" y="33.9591" width="59.2766" height="59.2766" rx="9.11948" fill="#EC0B43"/>
<path opacity="0.4" d="M83.2472 48.3983H70.5088C65.8882 48.3983 63.198 51.1037 63.198 55.7394V71.4401C63.198 76.1519 65.8882 78.7965 70.5088 78.7965H83.2472C87.9422 78.7965 90.5564 76.1519 90.5564 71.4401V55.7394C90.5564 51.1037 87.9422 48.3983 83.2472 48.3983Z" fill="#EC0B43"/>
<path fill-rule="evenodd" clip-rule="evenodd" d="M70.9184 55.4659V55.481C70.2633 55.481 69.7329 56.013 69.7329 56.6666C69.7329 57.3201 70.2633 57.8521 70.9184 57.8521H75.4615C76.1165 57.8521 76.6485 57.3201 76.6485 56.6499C76.6485 55.9978 76.1165 55.4659 75.4615 55.4659H70.9184ZM82.8353 64.7221H70.9191C70.264 64.7221 69.7336 64.1901 69.7336 63.5366C69.7336 62.883 70.264 62.3495 70.9191 62.3495H82.8353C83.4888 62.3495 84.0208 62.883 84.0208 63.5366C84.0208 64.1901 83.4888 64.7221 82.8353 64.7221ZM82.8353 71.6681H70.9191C70.4632 71.7289 70.0224 71.5009 69.7792 71.121C69.536 70.7258 69.536 70.2242 69.7792 69.8442C70.0224 69.4491 70.4632 69.2363 70.9191 69.2819H82.8353C83.4417 69.3427 83.8992 69.8594 83.8992 70.4826C83.8992 71.089 83.4417 71.6073 82.8353 71.6681Z" fill="#EC0B43"/>
<defs>
<filter id="filter0_d_2213_4586" x="0.501616" y="0.90097" width="385.81" height="148.379" filterUnits="userSpaceOnUse" color-interpolation-filters="sRGB">
<feFlood flood-opacity="0" result="BackgroundImageFix"/>
<feColorMatrix in="SourceAlpha" type="matrix" values="0 0 0 0 0 0 0 0 0 0 0 0 0 0 0 0 0 0 127 0" result="hardAlpha"/>
<feOffset dy="11.3994"/>
<feGaussianBlur stdDeviation="14.2492"/>
<feColorMatrix type="matrix" values="0 0 0 0 0 0 0 0 0 0 0 0 0 0 0 0 0 0 0.07 0"/>
<feBlend mode="normal" in2="BackgroundImageFix" result="effect1_dropShadow_2213_4586"/>
<feBlend mode="normal" in="SourceGraphic" in2="effect1_dropShadow_2213_4586" result="shape"/>
</filter>
</defs>
</svg>
