<svg width="39" height="39" viewBox="0 0 39 39" fill="none" xmlns="http://www.w3.org/2000/svg">
<path opacity="0.05" d="M19.5 2.1873e-07C30.2543 3.39359e-07 39 8.7477 39 19.5C39 30.2523 30.2542 39 19.5 39C8.7477 39 1.10899e-07 30.2523 2.47212e-07 19.5C3.83525e-07 8.7477 8.7477 9.81221e-08 19.5 2.1873e-07Z" fill="#647382"/>
<path d="M16.6869 11.2696C17.0593 11.2696 17.4337 11.412 17.7184 11.6967L24.518 18.4632C24.793 18.7381 24.947 19.1105 24.947 19.5005C24.947 19.8886 24.793 20.261 24.518 20.536L17.7184 27.3063C17.1471 27.8757 16.2228 27.8757 15.6514 27.3024C15.082 26.7292 15.084 25.8029 15.6553 25.2335L21.4136 19.5005L15.6553 13.7676C15.084 13.1982 15.082 12.2739 15.6514 11.7006C15.9361 11.412 16.3125 11.2696 16.6869 11.2696Z" fill="#647382"/>
</svg>
