<svg width="422" height="79" viewBox="0 0 422 79" fill="none" xmlns="http://www.w3.org/2000/svg">
<g filter="url(#filter0_d_400_3546)">
<ellipse cx="211.518" cy="30.3531" rx="13.081" ry="13.3007" fill="#007AB7"/>
<path fill-rule="evenodd" clip-rule="evenodd" d="M208.922 28.4082H206.974V34.7866H208.922V28.4082ZM209.081 26.3878C209.081 25.7536 208.574 25.2375 207.951 25.2375C207.325 25.2375 206.822 25.7536 206.822 26.3878C206.822 27.0219 207.325 27.5381 207.951 27.5381C208.574 27.5381 209.081 27.0219 209.081 26.3878ZM212.011 28.4082H210.15V34.7866H212.094V31.6306C212.094 30.801 212.246 29.9936 213.26 29.9936C214.259 29.9936 214.27 30.9448 214.27 31.6859V34.7866H216.214V31.2914C216.214 29.5733 215.848 28.2534 213.879 28.2534C212.93 28.2534 212.297 28.7806 212.036 29.282H212.011V28.4082Z" fill="white"/>
</g>
<g filter="url(#filter1_d_400_3546)">
<ellipse cx="148.385" cy="30.3542" rx="13.0822" ry="13.3019" fill="#DB417C"/>
</g>
<path fill-rule="evenodd" clip-rule="evenodd" d="M148.385 36.8346C144.87 36.8346 142.011 33.9276 142.011 30.3542C142.011 26.7809 144.87 23.8738 148.385 23.8738C151.899 23.8738 154.758 26.7809 154.758 30.3542C154.758 33.9276 151.899 36.8346 148.385 36.8346ZM153.76 31.2412C153.574 31.1816 152.075 30.7268 150.369 31.0047C151.081 32.994 151.371 34.6144 151.427 34.951C152.648 34.1114 153.517 32.7814 153.76 31.2412ZM150.511 35.4581C150.43 34.9721 150.115 33.28 149.35 31.2602C149.338 31.2647 149.326 31.2683 149.314 31.2728C146.244 32.3606 145.141 34.5258 145.043 34.7295C145.966 35.4613 147.127 35.8979 148.385 35.8979C149.139 35.8979 149.858 35.7408 150.511 35.4581ZM144.341 34.0636C144.464 33.849 145.958 31.3339 148.766 30.4109C148.837 30.3879 148.908 30.3656 148.98 30.3453C148.844 30.0306 148.695 29.716 148.539 29.4057C145.82 30.2331 143.182 30.1983 142.944 30.1935C142.943 30.2497 142.941 30.306 142.941 30.3627C142.941 31.7843 143.472 33.0823 144.341 34.0636ZM143.057 29.2292C143.3 29.2324 145.543 29.2421 148.089 28.5544C147.187 26.9243 146.215 25.5534 146.071 25.3533C144.548 26.0839 143.41 27.5116 143.057 29.2292ZM147.109 24.9815C147.26 25.1864 148.249 26.5553 149.141 28.2219C151.077 27.484 151.896 26.3642 151.994 26.2224C151.032 25.3549 149.769 24.8276 148.385 24.8276C147.946 24.8276 147.519 24.8811 147.109 24.9815ZM152.599 26.8623C152.484 27.0203 151.572 28.2093 149.559 29.0449C149.686 29.3085 149.807 29.5766 149.92 29.8464C149.96 29.9423 149.999 30.0375 150.037 30.1323C151.849 29.9006 153.649 30.2716 153.828 30.3105C153.816 29.004 153.357 27.8043 152.599 26.8623Z" fill="white"/>
<g filter="url(#filter2_d_400_3546)">
<g filter="url(#filter3_d_400_3546)">
<ellipse cx="84.216" cy="29.3019" rx="13.0822" ry="13.3019" fill="#105DFB"/>
</g>
<path fill-rule="evenodd" clip-rule="evenodd" d="M83.0506 28.9459C83.0506 28.9459 84.2101 28.8079 84.2101 27.3433C84.2101 25.8783 83.2724 25.209 82.0069 25.209H79.6774H79.6091H77.8423V33.3944H79.6091H79.6774H82.0069C82.0069 33.3944 84.5495 33.4766 84.5495 30.9783C84.5495 30.9783 84.66 28.9459 83.0506 28.9459ZM81.6457 26.5733H81.9713C81.9713 26.5733 82.539 26.6096 82.539 27.5899C82.539 28.5697 82.1656 28.6197 81.8083 28.6197H79.8555V26.5733H81.6457ZM82.2645 32.0305H79.8555V29.984H82.2645C82.2645 29.984 83.2099 30.0597 83.2099 31.0648C83.2099 31.912 82.6209 32.0242 82.2645 32.0305ZM88.0628 27.2557C85.2449 27.2876 85.2264 30.4117 85.2264 30.4117C85.2264 30.4117 85.0023 33.3902 88.0112 33.3902C88.0112 33.3902 90.5838 33.5925 90.5838 31.2886H89.3233C89.3233 31.2886 89.2803 32.1655 88.0628 32.1655C88.0628 32.1655 86.8022 32.2619 86.8022 30.7625C86.8022 30.7625 90.5838 30.7625 90.5828 30.7573C90.5432 30.5802 91.0209 27.2223 88.0628 27.2557ZM86.564 29.984C86.564 29.984 86.7098 28.6197 87.9951 28.6197C89.28 28.6197 89.2474 29.984 89.2474 29.984H86.564ZM89.9184 26.5733H86.564V25.8911H89.9184V26.5733Z" fill="white"/>
</g>
<g filter="url(#filter4_d_400_3546)">
<ellipse cx="21.081" cy="29.3007" rx="13.081" ry="13.3007" fill="black"/>
<path d="M24.6893 35.5477C24.603 35.6178 24.5254 35.6967 24.4564 35.7844C24.3874 35.8897 24.3184 35.9774 24.2494 36.0475C24.1804 36.1177 24.1114 36.1528 24.0424 36.1528C23.9907 36.1703 23.9303 36.1352 23.8613 36.0475L23.6543 35.7844C23.2058 35.2232 22.8781 34.6181 22.6711 33.9691C22.4813 33.3202 22.3174 32.6537 22.1794 31.9696C22.0414 31.268 21.8948 30.5489 21.7396 29.8123C21.6016 29.0756 21.3773 28.3477 21.0668 27.6286C20.7391 28.1373 20.4286 28.7336 20.1354 29.4176C19.8421 30.0841 19.5661 30.7682 19.3074 31.4697C19.0659 32.1713 18.8416 32.8641 18.6346 33.5482C18.4449 34.2147 18.2896 34.7935 18.1689 35.2846C18.1171 35.4775 18.0481 35.609 17.9619 35.6792C17.8929 35.7669 17.8325 35.8634 17.7808 35.9686C17.7463 36.0388 17.6945 36.144 17.6255 36.2843C17.5565 36.4422 17.4789 36.5211 17.3927 36.5211C17.3064 36.5211 17.246 36.4948 17.2115 36.4422C17.177 36.3895 17.1253 36.3194 17.0563 36.2317C16.1766 34.8812 15.4952 33.4692 15.0122 31.9959C14.5465 30.5051 14.2015 29.0844 13.9772 27.7339C13.5115 27.2428 13.2269 26.8393 13.1234 26.5236C13.0199 26.2079 12.9336 25.9975 12.8646 25.8922C12.7439 25.6993 12.7352 25.5151 12.8387 25.3397C12.9422 25.1643 13.0889 25.0591 13.2786 25.024C13.3821 25.024 13.4942 25.0153 13.615 24.9977C13.7357 24.9802 13.8565 24.9977 13.9772 25.0503C14.1842 25.1556 14.3912 25.4011 14.5982 25.787C14.8225 26.1553 15.0553 26.8043 15.2968 27.7339C15.4003 28.1899 15.5211 28.6722 15.6591 29.1809C15.8143 29.6895 15.9696 30.1981 16.1248 30.7068C16.2801 31.1979 16.4353 31.6714 16.5905 32.1275C16.7458 32.5835 16.8752 32.9781 16.9787 33.3114C17.2029 32.9431 17.4703 32.4256 17.7808 31.7591C18.0913 31.0926 18.4276 30.3911 18.7899 29.6544C19.1521 28.9002 19.523 28.1548 19.9025 27.4181C20.282 26.664 20.6528 26.0238 21.0151 25.4976C21.0841 25.3923 21.1531 25.3222 21.2221 25.2871C21.2911 25.252 21.3601 25.2082 21.4291 25.1556C21.4808 25.1205 21.524 25.0766 21.5585 25.024C21.6102 24.9539 21.6533 24.9188 21.6878 24.9188C21.8258 24.8837 21.8948 24.9276 21.8948 25.0503C21.9983 25.3836 22.1363 25.8133 22.3088 26.3395C22.4986 26.8657 22.6883 27.4532 22.8781 28.1022C23.0678 28.7511 23.2403 29.4439 23.3955 30.1806C23.568 30.8997 23.6974 31.6101 23.7837 32.3116C23.9907 31.8381 24.2149 31.2944 24.4564 30.6805C24.6979 30.0491 24.9566 29.3913 25.2326 28.7073C25.5259 28.0233 25.8364 27.3304 26.1641 26.6289C26.5091 25.9273 26.88 25.2608 27.2767 24.6294C27.3975 24.4364 27.5527 24.2611 27.7425 24.1032C27.9322 23.9278 28.1047 23.7524 28.26 23.577C28.398 23.4367 28.5101 23.3052 28.5963 23.1824C28.6826 23.0596 28.7947 22.9368 28.9327 22.8141C29.0017 22.8491 28.9844 23.0245 28.8809 23.3402C28.7947 23.5332 28.6912 23.7612 28.5705 24.0243C28.4497 24.2698 28.3548 24.4891 28.2858 24.682C27.7166 26.3307 27.1387 27.9882 26.5522 29.6544C25.983 31.3031 25.4741 33.0308 25.0256 34.8373C25.0084 34.925 24.9653 35.0478 24.8963 35.2056C24.8273 35.381 24.7583 35.495 24.6893 35.5477Z" fill="white"/>
</g>
<g filter="url(#filter5_d_400_3546)">
<g filter="url(#filter6_d_400_3546)">
<ellipse cx="400.919" cy="30.3531" rx="13.081" ry="13.3007" fill="url(#paint0_linear_400_3546)"/>
</g>
<path fill-rule="evenodd" clip-rule="evenodd" d="M403.224 24.5554H398.615C396.741 24.5554 395.217 26.105 395.217 28.0097V32.6965C395.217 34.6012 396.741 36.1508 398.615 36.1508H403.224C405.097 36.1508 406.621 34.6012 406.621 32.6965V28.0097C406.621 26.105 405.097 24.5554 403.224 24.5554ZM405.474 32.6965C405.474 33.9601 404.466 34.9844 403.224 34.9844H398.614C397.372 34.9844 396.364 33.9601 396.364 32.6965V28.0097C396.364 26.7462 397.372 25.7219 398.614 25.7219H403.224C404.466 25.7219 405.474 26.7462 405.474 28.0097V32.6965ZM397.97 30.3531C397.97 28.6995 399.293 27.3541 400.92 27.3541C402.546 27.3541 403.869 28.6995 403.869 30.3531C403.869 32.0068 402.546 33.3521 400.92 33.3521C399.293 33.3521 397.97 32.0068 397.97 30.3531ZM400.919 32.1856C399.924 32.1856 399.117 31.3652 399.117 30.3531C399.117 29.3411 399.924 28.5206 400.919 28.5206C401.914 28.5206 402.721 29.3411 402.721 30.3531C402.721 31.3652 401.914 32.1856 400.919 32.1856ZM403.875 28.0952C404.265 28.0952 404.581 27.7735 404.581 27.3766C404.581 26.9797 404.265 26.658 403.875 26.658C403.484 26.658 403.168 26.9797 403.168 27.3766C403.168 27.7735 403.484 28.0952 403.875 28.0952Z" fill="white"/>
</g>
<g filter="url(#filter7_d_400_3546)">
<ellipse cx="337.785" cy="30.3531" rx="13.081" ry="13.3007" fill="#2AA3EF"/>
<path fill-rule="evenodd" clip-rule="evenodd" d="M343.152 26.9691C342.757 27.1471 342.332 27.2674 341.887 27.3219C342.341 27.0445 342.691 26.6061 342.855 26.0836C342.429 26.3401 341.958 26.5263 341.456 26.6264C341.055 26.1913 340.483 25.9195 339.849 25.9195C338.633 25.9195 337.647 26.9216 337.647 28.158C337.647 28.3341 337.667 28.5045 337.704 28.6685C335.874 28.5754 334.252 27.6836 333.166 26.3293C332.976 26.66 332.868 27.0445 332.868 27.4549C332.868 28.2315 333.257 28.9168 333.847 29.3178C333.486 29.3064 333.147 29.2057 332.85 29.0378C332.85 29.0473 332.85 29.0568 332.85 29.0663C332.85 30.1507 333.609 31.0552 334.616 31.2611C334.431 31.3124 334.238 31.3396 334.036 31.3396C333.895 31.3396 333.756 31.3257 333.622 31.2991C333.902 32.1884 334.716 32.8358 335.679 32.8541C334.925 33.454 333.976 33.8118 332.944 33.8118C332.766 33.8118 332.591 33.8017 332.418 33.7808C333.393 34.4161 334.55 34.7867 335.794 34.7867C339.844 34.7867 342.059 31.3757 342.059 28.4177C342.059 28.3202 342.057 28.2245 342.053 28.1282C342.483 27.8128 342.857 27.4182 343.152 26.9697V26.9691Z" fill="white"/>
</g>
<g filter="url(#filter8_d_400_3546)">
<ellipse cx="274.651" cy="30.3531" rx="13.081" ry="13.3007" fill="#3D5A96"/>
<path fill-rule="evenodd" clip-rule="evenodd" d="M275.536 35.8098H273.157V30.6564H271.968V28.6705H273.157V27.4792C273.157 25.8602 273.829 24.8964 275.736 24.8964H277.324V26.8823H276.331C275.589 26.8823 275.539 27.1595 275.539 27.6775L275.536 28.6705H277.335L277.124 30.6564H275.536V35.8098Z" fill="white"/>
</g>
<defs>
<filter id="filter0_d_400_3546" x="190.659" y="13.1635" width="41.7177" height="42.157" filterUnits="userSpaceOnUse" color-interpolation-filters="sRGB">
<feFlood flood-opacity="0" result="BackgroundImageFix"/>
<feColorMatrix in="SourceAlpha" type="matrix" values="0 0 0 0 0 0 0 0 0 0 0 0 0 0 0 0 0 0 127 0" result="hardAlpha"/>
<feOffset dy="3.88889"/>
<feGaussianBlur stdDeviation="3.88889"/>
<feColorMatrix type="matrix" values="0 0 0 0 0 0 0 0 0 0 0 0 0 0 0 0 0 0 0.1 0"/>
<feBlend mode="normal" in2="BackgroundImageFix" result="effect1_dropShadow_400_3546"/>
<feBlend mode="normal" in="SourceGraphic" in2="effect1_dropShadow_400_3546" result="shape"/>
</filter>
<filter id="filter1_d_400_3546" x="111.303" y="1.05237" width="74.1646" height="74.6038" filterUnits="userSpaceOnUse" color-interpolation-filters="sRGB">
<feFlood flood-opacity="0" result="BackgroundImageFix"/>
<feColorMatrix in="SourceAlpha" type="matrix" values="0 0 0 0 0 0 0 0 0 0 0 0 0 0 0 0 0 0 127 0" result="hardAlpha"/>
<feOffset dy="8"/>
<feGaussianBlur stdDeviation="12"/>
<feColorMatrix type="matrix" values="0 0 0 0 0 0 0 0 0 0 0 0 0 0 0 0 0 0 0.08 0"/>
<feBlend mode="normal" in2="BackgroundImageFix" result="effect1_dropShadow_400_3546"/>
<feBlend mode="normal" in="SourceGraphic" in2="effect1_dropShadow_400_3546" result="shape"/>
</filter>
<filter id="filter2_d_400_3546" x="47.1338" y="4" width="74.1646" height="74.6038" filterUnits="userSpaceOnUse" color-interpolation-filters="sRGB">
<feFlood flood-opacity="0" result="BackgroundImageFix"/>
<feColorMatrix in="SourceAlpha" type="matrix" values="0 0 0 0 0 0 0 0 0 0 0 0 0 0 0 0 0 0 127 0" result="hardAlpha"/>
<feOffset dy="12"/>
<feGaussianBlur stdDeviation="12"/>
<feColorMatrix type="matrix" values="0 0 0 0 0 0 0 0 0 0 0 0 0 0 0 0 0 0 0.1 0"/>
<feBlend mode="normal" in2="BackgroundImageFix" result="effect1_dropShadow_400_3546"/>
<feBlend mode="normal" in="SourceGraphic" in2="effect1_dropShadow_400_3546" result="shape"/>
</filter>
<filter id="filter3_d_400_3546" x="47.1338" y="0" width="74.1646" height="74.6038" filterUnits="userSpaceOnUse" color-interpolation-filters="sRGB">
<feFlood flood-opacity="0" result="BackgroundImageFix"/>
<feColorMatrix in="SourceAlpha" type="matrix" values="0 0 0 0 0 0 0 0 0 0 0 0 0 0 0 0 0 0 127 0" result="hardAlpha"/>
<feOffset dy="8"/>
<feGaussianBlur stdDeviation="12"/>
<feColorMatrix type="matrix" values="0 0 0 0 0 0 0 0 0 0 0 0 0 0 0 0 0 0 0.08 0"/>
<feBlend mode="normal" in2="BackgroundImageFix" result="effect1_dropShadow_400_3546"/>
<feBlend mode="normal" in="SourceGraphic" in2="effect1_dropShadow_400_3546" result="shape"/>
</filter>
<filter id="filter4_d_400_3546" x="0.222222" y="12.1111" width="41.7177" height="42.157" filterUnits="userSpaceOnUse" color-interpolation-filters="sRGB">
<feFlood flood-opacity="0" result="BackgroundImageFix"/>
<feColorMatrix in="SourceAlpha" type="matrix" values="0 0 0 0 0 0 0 0 0 0 0 0 0 0 0 0 0 0 127 0" result="hardAlpha"/>
<feOffset dy="3.88889"/>
<feGaussianBlur stdDeviation="3.88889"/>
<feColorMatrix type="matrix" values="0 0 0 0 0 0 0 0 0 0 0 0 0 0 0 0 0 0 0.1 0"/>
<feBlend mode="normal" in2="BackgroundImageFix" result="effect1_dropShadow_400_3546"/>
<feBlend mode="normal" in="SourceGraphic" in2="effect1_dropShadow_400_3546" result="shape"/>
</filter>
<filter id="filter5_d_400_3546" x="380.06" y="13.1635" width="41.7177" height="42.157" filterUnits="userSpaceOnUse" color-interpolation-filters="sRGB">
<feFlood flood-opacity="0" result="BackgroundImageFix"/>
<feColorMatrix in="SourceAlpha" type="matrix" values="0 0 0 0 0 0 0 0 0 0 0 0 0 0 0 0 0 0 127 0" result="hardAlpha"/>
<feOffset dy="3.88889"/>
<feGaussianBlur stdDeviation="3.88889"/>
<feColorMatrix type="matrix" values="0 0 0 0 0 0 0 0 0 0 0 0 0 0 0 0 0 0 0.1 0"/>
<feBlend mode="normal" in2="BackgroundImageFix" result="effect1_dropShadow_400_3546"/>
<feBlend mode="normal" in="SourceGraphic" in2="effect1_dropShadow_400_3546" result="shape"/>
</filter>
<filter id="filter6_d_400_3546" x="385.245" y="15.7561" width="31.3473" height="31.7866" filterUnits="userSpaceOnUse" color-interpolation-filters="sRGB">
<feFlood flood-opacity="0" result="BackgroundImageFix"/>
<feColorMatrix in="SourceAlpha" type="matrix" values="0 0 0 0 0 0 0 0 0 0 0 0 0 0 0 0 0 0 127 0" result="hardAlpha"/>
<feOffset dy="1.2963"/>
<feGaussianBlur stdDeviation="1.2963"/>
<feColorMatrix type="matrix" values="0 0 0 0 0 0 0 0 0 0 0 0 0 0 0 0 0 0 0.1 0"/>
<feBlend mode="normal" in2="BackgroundImageFix" result="effect1_dropShadow_400_3546"/>
<feBlend mode="normal" in="SourceGraphic" in2="effect1_dropShadow_400_3546" result="shape"/>
</filter>
<filter id="filter7_d_400_3546" x="316.926" y="13.1635" width="41.7177" height="42.157" filterUnits="userSpaceOnUse" color-interpolation-filters="sRGB">
<feFlood flood-opacity="0" result="BackgroundImageFix"/>
<feColorMatrix in="SourceAlpha" type="matrix" values="0 0 0 0 0 0 0 0 0 0 0 0 0 0 0 0 0 0 127 0" result="hardAlpha"/>
<feOffset dy="3.88889"/>
<feGaussianBlur stdDeviation="3.88889"/>
<feColorMatrix type="matrix" values="0 0 0 0 0 0 0 0 0 0 0 0 0 0 0 0 0 0 0.1 0"/>
<feBlend mode="normal" in2="BackgroundImageFix" result="effect1_dropShadow_400_3546"/>
<feBlend mode="normal" in="SourceGraphic" in2="effect1_dropShadow_400_3546" result="shape"/>
</filter>
<filter id="filter8_d_400_3546" x="253.793" y="13.1635" width="41.7177" height="42.157" filterUnits="userSpaceOnUse" color-interpolation-filters="sRGB">
<feFlood flood-opacity="0" result="BackgroundImageFix"/>
<feColorMatrix in="SourceAlpha" type="matrix" values="0 0 0 0 0 0 0 0 0 0 0 0 0 0 0 0 0 0 127 0" result="hardAlpha"/>
<feOffset dy="3.88889"/>
<feGaussianBlur stdDeviation="3.88889"/>
<feColorMatrix type="matrix" values="0 0 0 0 0 0 0 0 0 0 0 0 0 0 0 0 0 0 0.1 0"/>
<feBlend mode="normal" in2="BackgroundImageFix" result="effect1_dropShadow_400_3546"/>
<feBlend mode="normal" in="SourceGraphic" in2="effect1_dropShadow_400_3546" result="shape"/>
</filter>
<linearGradient id="paint0_linear_400_3546" x1="387.925" y1="17.0079" x2="387.835" y2="43.6093" gradientUnits="userSpaceOnUse">
<stop stop-color="#7024C4"/>
<stop offset="0.415461" stop-color="#C21975"/>
<stop offset="0.702206" stop-color="#C74C4D"/>
<stop offset="1" stop-color="#E09B3D"/>
</linearGradient>
</defs>
</svg>
