<svg width="81" height="18" viewBox="0 0 81 18" fill="none" xmlns="http://www.w3.org/2000/svg">
<path d="M8.52447 1.46353C8.67415 1.00287 9.32585 1.00287 9.47553 1.46353L10.9084 5.87336C10.9753 6.07937 11.1673 6.21885 11.3839 6.21885H16.0207C16.505 6.21885 16.7064 6.83865 16.3146 7.12336L12.5633 9.84878C12.3881 9.9761 12.3148 10.2018 12.3817 10.4078L13.8145 14.8176C13.9642 15.2783 13.437 15.6613 13.0451 15.3766L9.29389 12.6512C9.11865 12.5239 8.88135 12.5239 8.70611 12.6512L4.95488 15.3766C4.56303 15.6613 4.03578 15.2783 4.18546 14.8176L5.6183 10.4078C5.68524 10.2018 5.61191 9.9761 5.43667 9.84878L1.68544 7.12336C1.29358 6.83866 1.49497 6.21885 1.97933 6.21885H6.6161C6.83272 6.21885 7.02469 6.07937 7.09163 5.87336L8.52447 1.46353Z" fill="#FFCB46"/>
<path d="M29.5245 1.46353C29.6741 1.00287 30.3259 1.00287 30.4755 1.46353L31.9084 5.87336C31.9753 6.07937 32.1673 6.21885 32.3839 6.21885H37.0207C37.505 6.21885 37.7064 6.83865 37.3146 7.12336L33.5633 9.84878C33.3881 9.9761 33.3148 10.2018 33.3817 10.4078L34.8145 14.8176C34.9642 15.2783 34.437 15.6613 34.0451 15.3766L30.2939 12.6512C30.1186 12.5239 29.8814 12.5239 29.7061 12.6512L25.9549 15.3766C25.563 15.6613 25.0358 15.2783 25.1855 14.8176L26.6183 10.4078C26.6852 10.2018 26.6119 9.9761 26.4367 9.84878L22.6854 7.12336C22.2936 6.83866 22.495 6.21885 22.9793 6.21885H27.6161C27.8327 6.21885 28.0247 6.07937 28.0916 5.87336L29.5245 1.46353Z" fill="#FFCB46"/>
<path d="M50.5245 1.46353C50.6741 1.00287 51.3259 1.00287 51.4755 1.46353L52.9084 5.87336C52.9753 6.07937 53.1673 6.21885 53.3839 6.21885H58.0207C58.505 6.21885 58.7064 6.83865 58.3146 7.12336L54.5633 9.84878C54.3881 9.9761 54.3148 10.2018 54.3817 10.4078L55.8145 14.8176C55.9642 15.2783 55.437 15.6613 55.0451 15.3766L51.2939 12.6512C51.1186 12.5239 50.8814 12.5239 50.7061 12.6512L46.9549 15.3766C46.563 15.6613 46.0358 15.2783 46.1855 14.8176L47.6183 10.4078C47.6852 10.2018 47.6119 9.9761 47.4367 9.84878L43.6854 7.12336C43.2936 6.83866 43.495 6.21885 43.9793 6.21885H48.6161C48.8327 6.21885 49.0247 6.07937 49.0916 5.87336L50.5245 1.46353Z" fill="#FFCB46"/>
<path d="M71.5245 1.46353C71.6741 1.00287 72.3259 1.00287 72.4755 1.46353L73.9084 5.87336C73.9753 6.07937 74.1673 6.21885 74.3839 6.21885H79.0207C79.505 6.21885 79.7064 6.83865 79.3146 7.12336L75.5633 9.84878C75.3881 9.9761 75.3148 10.2018 75.3817 10.4078L76.8145 14.8176C76.9642 15.2783 76.437 15.6613 76.0451 15.3766L72.2939 12.6512C72.1186 12.5239 71.8814 12.5239 71.7061 12.6512L67.9549 15.3766C67.563 15.6613 67.0358 15.2783 67.1855 14.8176L68.6183 10.4078C68.6852 10.2018 68.6119 9.9761 68.4367 9.84878L64.6854 7.12336C64.2936 6.83866 64.495 6.21885 64.9793 6.21885H69.6161C69.8327 6.21885 70.0247 6.07937 70.0916 5.87336L71.5245 1.46353Z" fill="#FFCB46"/>
</svg>
